<?xml version="1.0" encoding="utf-8"?>
<!-- Generator: Adobe Illustrator 23.1.0, SVG Export Plug-In . SVG Version: 6.00 Build 0)  -->
<svg version="1.1" id="圖層_1" xmlns="http://www.w3.org/2000/svg" xmlns:xlink="http://www.w3.org/1999/xlink" x="0px" y="0px"
	 viewBox="0 0 40 40" style="enable-background:new 0 0 40 40;" xml:space="preserve">
<style type="text/css">
	.st0{fill:#595757;}
</style>
<path id="XMLID_950_" class="st0" d="M30.33,11.78c-6.89,0-13.78,0-20.66,0c-1.22,0-2.17,0.95-2.17,2.17c0,4.03,0,8.06,0,12.09
	c0,0.15,0.01,0.31,0.04,0.46c0.21,1.02,1.07,1.72,2.13,1.72c3.44,0,6.87,0,10.31,0c3.45,0,6.89,0,10.34,0
	c1.23,0,2.18-0.95,2.18-2.17c0-4.03,0-8.06,0-12.09C32.5,12.73,31.55,11.78,30.33,11.78z M30.5,14.27
	c-2.05,1.71-4.09,3.39-6.09,5.05c2.03,2.03,4.06,4.06,6.09,6.09v0.63c0,0.12-0.05,0.17-0.18,0.17h-0.47
	c-2.09-2.09-4.16-4.16-6.24-6.23c-0.03,0.03-0.08,0.07-0.13,0.11c-1.04,0.86-2.08,1.72-3.11,2.58c-0.26,0.22-0.47,0.22-0.73,0
	c-0.59-0.49-1.18-0.98-1.78-1.47c-0.49-0.41-0.99-0.82-1.47-1.22c-2.07,2.07-4.15,4.14-6.24,6.23H9.67c-0.15,0-0.16-0.07-0.17-0.12
	c0-0.22,0-0.43,0-0.65c2.04-2.04,4.07-4.07,6.11-6.1c-2.02-1.68-4.05-3.36-6.11-5.07c0-0.11,0-0.21,0-0.32
	c0-0.12,0.05-0.17,0.17-0.17h0.73c3.21,2.67,6.4,5.31,9.6,7.96c3.2-2.66,6.4-5.31,9.6-7.96h0.73c0.11,0,0.17,0.05,0.17,0.17V14.27z"
	/>
</svg>
