<?xml version="1.0" encoding="utf-8"?>
<!-- Generator: Adobe Illustrator 17.1.0, SVG Export Plug-In . SVG Version: 6.00 Build 0)  -->
<!DOCTYPE svg PUBLIC "-//W3C//DTD SVG 1.1//EN" "http://www.w3.org/Graphics/SVG/1.1/DTD/svg11.dtd">
<svg version="1.1" id="Layer_1" xmlns="http://www.w3.org/2000/svg" xmlns:xlink="http://www.w3.org/1999/xlink" x="0px" y="0px"
	 viewBox="0 0 960 560" enable-background="new 0 0 960 560" xml:space="preserve">
<g id="XMLID_2133_">
	<g id="upAk6x_7_">
		<g id="XMLID_2150_">
			<path id="XMLID_2153_" fill="#FFFFFF" d="M476.7,318.4c-1.1,0.1-2.2,0.2-3.2,0.1c-4.6-0.3-8.4-2.4-11.9-5.2
				c-4.3-3.5-7.5-7.8-10-12.6c-1.7-3.2-3.4-6.4-5-9.6c-1.6-3.3-2.7-6.7-3.3-10.3c-0.4-2.3-0.6-4.6-0.5-6.9c0.2-3.9,1.2-7.5,3.8-10.5
				c0.2-0.2,0.5-0.5,0.7-0.7c0.1,0.2,0.2,0.3,0.2,0.4c2.6,5,5.2,9.9,7.9,14.9c0.2,0.3,0.2,0.5,0,0.8c-0.9,1.2-1,2.5-0.9,4
				c0.1,1.2,0.5,2.3,1.1,3.3c2.2,4.1,4.3,8.2,6.5,12.4c0.8,1.5,1.9,2.8,3.4,3.6c0.8,0.4,1.6,0.6,2.5,0.6c0.2,0,0.5,0.2,0.5,0.3
				c2.7,5.1,5.4,10.2,8.1,15.3C476.6,318.1,476.6,318.2,476.7,318.4z"/>
			<path id="XMLID_2152_" fill="#FFFFFF" d="M469.9,301.5c1.5-0.7,3-1.5,4.5-2.1c1-0.4,2.2,0.1,2.8,1.1c0.6,1,1.2,2.1,1.7,3.2
				c1.4,2.6,2.8,5.2,4.1,7.9c0.9,1.6,0.4,3.1-1.2,4c-1.2,0.6-2.4,1.2-3.6,1.9C475.5,312.1,472.7,306.8,469.9,301.5z"/>
			<path id="XMLID_2151_" fill="#FFFFFF" d="M457.2,277.4c-2.8-5.2-5.5-10.4-8.2-15.7c0.1-0.1,0.2-0.2,0.4-0.2
				c1.1-0.6,2.1-1.1,3.2-1.7c1.6-0.9,3.1-0.4,4,1.2c1.8,3.5,3.7,7,5.5,10.4c0.9,1.7,0.4,3.1-1.2,4
				C459.6,276.2,458.4,276.8,457.2,277.4z"/>
		</g>
	</g>
	<path id="XMLID_2134_" fill="#FFFFFF" d="M484.9,244.1c-11.4,0-21.5,5.7-27.7,14.3c0.5,0.4,0.9,1,1.2,1.6c0,0.1,0.1,0.1,0.1,0.2
		c2.3-3.4,5.1-6.2,8.5-8.5c3.7-2.6,7.9-4.2,12.4-5c-1.6,1.6-3.1,3.1-4.5,4.7c-2.5,2.8-4.4,6-6,9.4c-0.1,0.3-0.5,0.6-0.7,0.6
		c-3,0-6,0-9.1,0c0.4,0.8,0.8,1.5,1.2,2.3c2.3,0,4.6,0,6.9,0c0.1,0,0.2,0,0.4,0.1c-1.5,4.2-2.3,8.6-2.5,13c-0.8,0-1.6,0-2.3,0
		c-0.3,0.3-0.7,0.5-1.1,0.7c-0.8,0.4-1.6,0.9-2.5,1.3l-0.6,0.3c2.2,0,4.3,0,6.6,0c0.2,4.5,1,8.8,2.7,13.1c-2.2,0-4.4,0-6.6,0
		c0.4,0.8,0.8,1.6,1.2,2.3c1.7,0,3.3,0,4.9,0c1,0,1.5,0.3,2,1.2c0.5,0.9,0.9,1.8,1.5,2.7c0.7-0.3,1.4-0.7,2.1-1
		c-0.6-0.9-1.1-1.8-1.6-2.8c4.1,0,8.1,0,12.1,0c0,4.4,0,8.8,0,13.3c0.4,0.9,0.9,1.7,1.3,2.6c0.2,0.5,0.4,0.9,0.5,1.4
		c18.3-0.3,33.2-15.4,33.2-33.8C518.8,259.3,503.6,244.1,484.9,244.1z M483.6,246.5c0,5,0,9.9,0,14.8c-4.1,0-8.1,0-12.4,0
		C474.2,255.3,478.2,250.4,483.6,246.5z M468,272.5c0.6-2.7,1.3-5.4,2-8.1c0.1-0.4,0.3-0.7,0.8-0.7c4.1,0,8.2,0,12.3,0
		c0.1,0,0.3,0,0.5,0c0,4.3,0,8.6,0,13c-5.3,0-10.6,0-16.1,0C467.7,275.3,467.7,273.8,468,272.5z M483.6,292.2c-0.5,0-1,0-1.5,0
		c-3.6,0-7.3,0-10.9,0c-0.4,0-0.7,0-0.9-0.5c-1.5-4-2.4-8.1-2.6-12.4c0-0.1,0-0.2,0.1-0.3c5.3,0,10.6,0,15.9,0
		C483.6,283.5,483.6,287.8,483.6,292.2z M513.5,264.2c1.8,3.8,2.8,7.9,3.1,12.1c0,0.1,0,0.2,0,0.4c-4,0-8,0-12.1,0
		c-0.1-4.5-0.9-8.8-2.5-13.1c1.2,0,2.4,0,3.5,0c2.4,0,4.7,0,7.1,0C513.1,263.6,513.3,263.8,513.5,264.2z M486.1,279.1
		c5.3,0,10.6,0,16.1,0c-0.1,1.4-0.1,2.8-0.5,4.2c-0.6,2.8-1.4,5.5-2.2,8.3c-0.1,0.2-0.4,0.6-0.7,0.6c-4.2,0-8.5,0-12.7,0
		C486.1,287.9,486.1,283.5,486.1,279.1z M486.1,276.7c0-4.3,0-8.6,0-13c0.3,0,0.5,0,0.7,0c4,0,8,0,12,0c0.5,0,0.7,0.1,0.9,0.6
		c1.4,3.8,2.2,7.6,2.3,11.6c0,0.2,0,0.4,0,0.6c0,0.1,0,0.2-0.1,0.3C496.8,276.7,491.5,276.7,486.1,276.7z M511.9,261.4
		c-3.5,0-6.9,0-10.3,0c-0.2,0-0.5-0.2-0.6-0.4c-2.5-5.5-6-10.2-10.7-14.2C496.1,246.2,508.8,254.7,511.9,261.4z M486.1,246.5
		c5.4,3.9,9.5,8.7,12.4,14.7c-4.2,0-8.3,0-12.4,0C486.1,256.4,486.1,251.5,486.1,246.5z M486.1,294.6c4,0,8,0,12,0
		c-0.7,3.3-8.3,12.2-12,14C486.1,304,486.1,299.3,486.1,294.6z M489.3,309.3c0.2-0.2,0.4-0.4,0.6-0.5c4.5-3.8,8.1-8.3,10.6-13.6
		c0.2-0.4,0.3-0.7,0.8-0.7c3.4,0,6.8,0,10.2,0c0.1,0,0.2,0,0.3,0.1C507.9,302,496.7,309.3,489.3,309.3z M513.6,291.6
		c-0.1,0.2-0.4,0.6-0.7,0.6c-3.6,0-7.3,0-11,0c1.6-4.3,2.5-8.6,2.7-13.1c4.1,0,8,0,12.3,0c-0.4,2.3-0.6,4.5-1.2,6.7
		C515.1,287.8,514.3,289.7,513.6,291.6z"/>
</g>
</svg>
