<?xml version="1.0" encoding="utf-8"?>
<!-- Generator: Adobe Illustrator 17.1.0, SVG Export Plug-In . SVG Version: 6.00 Build 0)  -->
<!DOCTYPE svg PUBLIC "-//W3C//DTD SVG 1.1//EN" "http://www.w3.org/Graphics/SVG/1.1/DTD/svg11.dtd">
<svg version="1.1" id="Layer_1" xmlns="http://www.w3.org/2000/svg" xmlns:xlink="http://www.w3.org/1999/xlink" x="0px" y="0px"
	 viewBox="0 0 82.5 90" enable-background="new 0 0 82.5 90" xml:space="preserve">
<g id="XMLID_2214_">
	<g id="XMLID_2227_">
		<path id="XMLID_2228_" fill="#FFFFFF" d="M38.6,9.5c-2.3,0-4.9-0.7-4.9-2.1c0-1.5,2.5-2.1,4.9-2.1s4.9,0.7,4.9,2.1
			C43.4,8.8,40.9,9.5,38.6,9.5z M38.6,6.4c-2.5,0-3.7,0.7-3.7,1s1.3,1,3.7,1s3.7-0.7,3.7-1S41,6.4,38.6,6.4z"/>
	</g>
	<g id="XMLID_2222_">
		<path id="XMLID_2226_" fill="#FFFFFF" d="M53,64.2c-1.4,0-2.9,0-4.2-0.1c0,0.5,0.1,1.1,0.1,1.6c0,9.4-5.1,17.6-12.7,22
			C41,89.1,46.8,90,53.1,90c16.3,0,29.5-5.7,29.5-12.7v-1.7c0,7-13.2,12.7-29.5,12.7c-5.2,0-10.1-0.6-14.4-1.6
			c0,0,21.6,2.7,34.6-3.1l-0.6-18.9c1.9-0.4,3.6-0.9,5.1-1.4l-0.3,17.8c2.4-1.8,4.2-4.1,5-7.1V57.4C82.5,61.2,69.3,64.2,53,64.2z"/>
		<path id="XMLID_2223_" fill="#FFFFFF" d="M53,0C36.7,0,23.5,3,23.5,6.8v3.4v30.2c13.1,0,23.9,10.1,25.2,22.9
			c7.5,0,16.7-0.4,23.8-2.1l-0.6-21.8c2.4-0.5,4.5-1,6.2-1.7l-0.3,21.7c2-0.9,3.6-1.9,4.7-3.1V31.9c0,3.7-13.2,6.8-29.5,6.8
			c-7,0-13.4-0.6-18.5-1.5c0,0,22.5,1.9,37.2-1.4l-0.6-20.7c2.9-0.5,5.4-1.2,7.3-1.9l-0.3,20.6c1.8-0.8,3.3-1.8,4.3-3V10.2V6.8
			C82.5,3.1,69.3,0,53,0z M53.1,13.3c-17.3,0-28.4-3.6-28.4-6.1s11.1-6.1,28.4-6.1s28.4,3.6,28.4,6.1S70.4,13.3,53.1,13.3z"/>
	</g>
	<g id="XMLID_2218_">
		<path id="XMLID_2219_" fill="#FFFFFF" d="M23.4,89.2C10.5,89.2,0,78.7,0,65.8s10.5-23.4,23.4-23.4s23.4,10.5,23.4,23.4
			S36.3,89.2,23.4,89.2z M23.4,44c-12,0-21.7,9.7-21.7,21.7s9.7,21.7,21.7,21.7s21.8-9.7,21.8-21.6C45.2,53.8,35.4,44,23.4,44z"/>
	</g>
	<path id="XMLID_2215_" fill="#FFFFFF" d="M22.9,50.5c0,0-10.5,11.8-10.5,22.1c0,4.9,4.7,8.9,10.5,8.9s10.5-4,10.5-8.9
		C33.4,62.2,22.9,50.5,22.9,50.5z M16.9,78.2c0,0-3.9-4.7,0-10.7c0,0-1.2,6,2.8,8.7L16.9,78.2z"/>
</g>
</svg>
