<?xml version="1.0" encoding="utf-8"?>
<!-- Generator: Adobe Illustrator 17.1.0, SVG Export Plug-In . SVG Version: 6.00 Build 0)  -->
<!DOCTYPE svg PUBLIC "-//W3C//DTD SVG 1.1//EN" "http://www.w3.org/Graphics/SVG/1.1/DTD/svg11.dtd">
<svg version="1.1" id="Layer_1" xmlns="http://www.w3.org/2000/svg" xmlns:xlink="http://www.w3.org/1999/xlink" x="0px" y="0px"
	 viewBox="0 0 82.5 90" enable-background="new 0 0 82.5 90" xml:space="preserve">
<g id="XMLID_2161_">
	<g id="XMLID_2192_">
		<path id="XMLID_2209_" fill="#FFFFFF" d="M29.5,19.5c-2.1-0.5-4.1-1.1-6.3-1.6c0.2-1.1,0.3-2.3,0.5-3.4c0.3-1.8,0.5-3.5,0.8-5.3
			c0.2-1,1.3-1.9,2.3-2c0.4,0,0.4,0.1,0.4,0.5c-0.1,2.9,0.2,5.8,1.1,8.6c0.3,1,0.8,2,1.2,3c0,0.1,0.1,0.1,0.1,0.2
			C29.6,19.4,29.5,19.4,29.5,19.5z"/>
		<path id="XMLID_2208_" fill="#FFFFFF" d="M64,33.3c4.4-0.1,8.7-0.5,13.1-0.4c0,0.1,0,0.2,0.1,0.3c-0.3,0.1-0.5,0.3-0.8,0.3
			c-3.6,0.5-7.2,1-10.9,1.5c-0.3,0-0.5,0-0.6-0.3C64.6,34.3,64.3,33.8,64,33.3z"/>
		<path id="XMLID_2207_" fill="#FFFFFF" d="M15.7,21.1c0.2,0,0.4,0,0.5,0c0.4,0.1,0.8,0.2,1.2,0.3c1.5,0.3,1.5,0.3,2.4,1.7
			C18.8,22.9,16,21.6,15.7,21.1z"/>
		<path id="XMLID_2194_" fill="#FFFFFF" d="M65.8,40.8c-0.2-1.4-0.5-2.8-1-4.1c-0.3,0.4-1,0.9-2,1c-1.5,0.1-5.6-1-4.9-1.9
			c0,0,4.5,0.7,6.2-0.7c-0.8-1.5-2-2.7-3.5-3.6c-1.1-0.6-2.2-1.1-3.4-1.5c-4.9-1.7-9.8-3.4-14.7-5c-4.2-1.4-8.4-2.8-12.6-4.2
			c-3.4-1.1-6.8-2.2-10.2-3.2c-0.9-0.3-1.5,0.2-1.5,1.1c0,0.4,0.1,0.9,0.3,1.3c1,2.2,2.7,3.9,4.6,5.4c1.5,1.1,4.6,2.7,6.2,3.7
			l1.9,0.5c-0.7-0.1-13.4-1.6-18.7-2.5c-3.2-0.5-6.5-1-9.7-1.5c-0.3-0.1-0.7,0-1,0c0,0.1,0,0.1-0.1,0.2c0.3,0.2,0.6,0.5,0.9,0.6
			c1.6,0.5,3.2,0.9,4.7,1.3c4.6,1.1,9.3,2.3,13.9,3.4c4.8,1.1,9.5,2,14.3,3c2.4,0.5,4.9,0.9,7.4,1.3c0,0.7-0.2,0.8-0.8,0.7
			c-0.3,0-0.5-0.1-0.8-0.1c0.2,0.2,0.4,0.4,0.6,0.5c1.1,0.6,2.2,1.2,3.3,1.7c1.9,1,3.8,2,5.7,3c2.6,1.3,5.2,2.2,8.1,2.7
			c1.6,0.3,3.2,0.4,4.8,0C65.3,43.2,66,42.4,65.8,40.8z M31.1,26.7c-0.3-0.1-0.4-0.4-0.2-0.7s0.4-0.4,0.7-0.3
			c0.3,0.1,0.4,0.4,0.2,0.7S31.4,26.8,31.1,26.7z M32.8,27.5c-0.3-0.1-0.4-0.4-0.2-0.7c0.1-0.3,0.4-0.4,0.7-0.3
			c0.3,0.1,0.4,0.4,0.2,0.7C33.4,27.4,33.1,27.6,32.8,27.5z M34.5,28.2c-0.3-0.1-0.4-0.4-0.2-0.7c0.1-0.3,0.4-0.4,0.7-0.3
			c0.3,0.1,0.4,0.4,0.2,0.7C35,28.1,34.7,28.3,34.5,28.2z M36.1,28.9c-0.3-0.1-0.4-0.4-0.2-0.7c0.1-0.3,0.4-0.4,0.7-0.3
			c0.3,0.1,0.4,0.4,0.2,0.7C36.7,28.9,36.4,29,36.1,28.9z M37.8,29.6c-0.3-0.1-0.4-0.4-0.2-0.7c0.1-0.3,0.4-0.4,0.7-0.3
			c0.3,0.1,0.4,0.4,0.2,0.7C38.4,29.6,38,29.7,37.8,29.6z M39.4,30.3c-0.3-0.1-0.4-0.4-0.2-0.7s0.4-0.4,0.7-0.3
			c0.3,0.1,0.4,0.4,0.2,0.7S39.7,30.4,39.4,30.3z M41.1,31c-0.3-0.1-0.4-0.4-0.2-0.7c0.1-0.3,0.4-0.4,0.7-0.3
			c0.3,0.1,0.4,0.4,0.2,0.7C41.7,31,41.4,31.2,41.1,31z M42.8,31.8c-0.3-0.1-0.4-0.4-0.2-0.7c0.1-0.3,0.4-0.4,0.7-0.3
			c0.3,0.1,0.4,0.4,0.2,0.7C43.3,31.7,43,31.9,42.8,31.8z M44.4,32.5c-0.3-0.1-0.4-0.4-0.2-0.7c0.1-0.3,0.4-0.4,0.7-0.3
			c0.3,0.1,0.4,0.4,0.2,0.7C45,32.4,44.7,32.6,44.4,32.5z M46.1,33.2c-0.3-0.1-0.4-0.4-0.2-0.7c0.1-0.3,0.4-0.4,0.7-0.3
			c0.3,0.1,0.4,0.4,0.2,0.7C46.7,33.2,46.3,33.3,46.1,33.2z M47.7,33.9c-0.3-0.1-0.4-0.4-0.2-0.7s0.4-0.4,0.7-0.3
			c0.3,0.1,0.4,0.4,0.2,0.7S48,34,47.7,33.9z"/>
		<path id="XMLID_2193_" fill="#FFFFFF" d="M37.6,35.2c-0.1,0-0.3-0.1-0.5-0.1c0,0,0,0,0,0c0.3,0.7,0.3,1.5-0.1,2.2
			c-0.5,0.9-1.4,1.4-2.2,1.2c-0.9-0.3-1.4-1.2-1.2-2.3c0.1-0.6,0.5-1.1,0.8-1.6c-2.7-0.6-5.6-1.1-8.4-1.7c0,0-0.1,0.1-0.1,0.1
			c0.2,0.2,0.4,0.3,0.6,0.5c1.1,0.8,2.2,1.6,3.3,2.3c1.3,0.9,2.5,1.8,3.8,2.7c0.8,0.5,1.7,0.8,2.6,0.3c1.1-0.6,1.7-2,1.5-3.2
			C37.7,35.4,37.7,35.3,37.6,35.2z"/>
	</g>
	<g id="XMLID_2162_">
		<path id="XMLID_2191_" fill="#FFFFFF" d="M59,52.4"/>
		<polygon id="XMLID_2190_" fill="#FFFFFF" points="45.3,54.7 40.8,55.6 38.2,55.5 42.8,54.6 		"/>
		<polygon id="XMLID_2189_" fill="#FFFFFF" points="34.7,57.2 41.1,55.9 44.3,56.1 38.5,57.2 		"/>
		<polygon id="XMLID_2188_" fill="#FFFFFF" points="30.1,57 37.3,55.7 39.9,55.8 33.6,57.1 		"/>
		<polygon id="XMLID_2187_" fill="#FFFFFF" points="61,53.8 58.1,53.6 62,52.8 65.5,52.9 65.5,56.1 61,57.2 		"/>
		<polygon id="XMLID_2186_" fill="#FFFFFF" points="55.9,53.7 51,54.7 47.6,54.6 52.9,53.5 		"/>
		<polygon id="XMLID_2185_" fill="#FFFFFF" points="51.5,53.5 46.3,54.5 43.8,54.4 49.6,53.3 		"/>
		<polygon id="XMLID_2184_" fill="#FFFFFF" points="32.1,57.4 26.2,58.6 26.2,62.9 21.8,62.9 21.8,58.6 28,57.4 		"/>
		<polygon id="XMLID_2183_" fill="#FFFFFF" points="56.8,53.5 53.7,53.4 56.5,52.8 56.5,52.8 60.3,52.8 		"/>
		<polygon id="XMLID_2182_" fill="#FFFFFF" points="49.5,56.1 46.3,55.9 51.3,55 54.6,55.1 54.6,58.7 49.5,60 		"/>
		<polygon id="XMLID_2181_" fill="#FFFFFF" points="41.9,55.7 46.7,54.8 50.1,54.9 45.2,55.9 		"/>
		<polygon id="XMLID_2180_" fill="#FFFFFF" points="57.2,53.8 60.1,54 60.1,57.4 55.5,58.5 55.5,54.9 52.3,54.8 		"/>
		<polygon id="XMLID_2179_" fill="#FFFFFF" points="32.4,63.5 36.9,63.5 42.4,62.2 42.4,66.1 36.9,67.6 32.4,67.6 		"/>
		<polygon id="XMLID_2178_" fill="#FFFFFF" points="37.2,57.5 31.5,58.7 31.5,62.9 27.2,62.9 27.2,58.6 33.2,57.5 		"/>
		<polygon id="XMLID_2177_" fill="#FFFFFF" points="52.3,53.3 50.4,53.2 52.4,52.8 54.6,52.8 		"/>
		<polygon id="XMLID_2176_" fill="#FFFFFF" points="31.5,67.6 27.2,67.6 27.2,63.5 31.5,63.5 		"/>
		<polygon id="XMLID_2175_" fill="#FFFFFF" points="61,57.8 65.5,56.7 65.5,60.1 61,61.3 		"/>
		<polygon id="XMLID_2174_" fill="#FFFFFF" points="26.2,63.5 26.2,67.6 21.8,67.6 21.8,63.5 		"/>
		<polygon id="XMLID_2173_" fill="#FFFFFF" points="32.4,63 32.4,58.7 38.3,57.5 42.4,57.6 42.4,61.7 36.9,63 		"/>
		<polygon id="XMLID_2172_" fill="#FFFFFF" points="55.5,59.1 60.1,58 60.1,61.5 55.5,62.7 		"/>
		<polygon id="XMLID_2171_" fill="#FFFFFF" points="49.5,60.5 54.6,59.3 54.6,63 49.5,64.3 		"/>
		<polygon id="XMLID_2170_" fill="#FFFFFF" points="43.3,62 48.6,60.8 48.6,64.5 43.3,65.9 		"/>
		<polygon id="XMLID_2169_" fill="#FFFFFF" points="45.4,56.1 48.6,56.3 48.6,60.2 43.3,61.4 43.3,57.4 39.5,57.3 		"/>
		<path id="XMLID_2163_" fill="#FFFFFF" d="M21,67.6v-1.7l-8.8,3.3c0.3,0.3,5.2,4.2,7.2,5.8c2,1.6,2.1,2.7,1,5.3
			c-0.1,0.3-0.3,0.6-0.5,1c0.3,0,0.5,0.1,0.7,0c2.1-0.2,4.3-0.3,6.4-0.5c1.6-0.2,3.3-0.5,4.9-0.8c2.4-0.5,4.8-1.1,7.2-1.8
			c3.5-1,6.9-2,10.4-3c4.1-1.3,8.1-2.6,12.1-4c3.7-1.3,7.3-2.7,11-4c2-0.7,3.6-1.9,5.3-3.3c2.6-2.2,3.2-6.1,3.2-6.3
			c0-0.4-0.1-0.5-0.5-0.5l-2.5,0.2c-0.4,0-0.5-0.2-0.5-0.6c0-0.6,0-1.4,0-2c0-0.2-0.3-0.5-0.5-0.5c-0.7-0.1-1.4,0-2.2-0.1
			c-0.4-0.1-0.8-0.2-0.9-0.7c0-0.3-1.1-2.4,0.4-2.5v-1.3h-1.9c0,0-1-3-1.4-4.1c-0.1-0.4-0.3-0.6-0.8-0.6H68c-0.5,0-0.8,0.4-0.8,1
			c0.1,1,0,2,0,3c0,0.7-0.2,0.8-0.8,0.8H56.4c0,0-0.1,2.3,1.8,2.3c0.3,0,0.6,0,0.9,0c0.4,0,0.6,0.1,0.6,0.5c0,0,0,0,0,0H70v6
			c0,0-4.1,0-4.1,0v0.9l4.1-0.1c1-0.3,4.4-1.3,5.4-1.6l1.1,0.1c-0.9,0.3-34.4,9.9-36.8,10.5c-5.3,1.4-10.7,1.7-16.2,1.7
			c-3.6,0-7.7-0.6-8-0.7L21,67.6z M71.7,48.5l-3.7,0.3v-1.2l3.3-0.3L71.7,48.5z M72.4,51.2H57.5l-0.5-1h15L72.4,51.2z M30.1,73.3
			c0,0.8-1.1,1.4-2.4,1.4c-1.3,0-2.4-0.6-2.4-1.4c0-0.8,1.1-1.4,2.4-1.4C29,71.8,30.1,72.5,30.1,73.3z M21.5,80.4
			c0.1-1,0.2-1.9,0.4-2.8c0-0.2,0.4-0.4,0.6-0.3c3.3,0.2,6.6-0.3,9.8-1.1c3.1-0.7,6.2-1.4,9.2-2.2c4.1-1.1,8.2-2.3,12.3-3.6
			c4.1-1.2,8.2-2.5,12.3-3.8c1.5-0.5,2.9-0.9,4.4-1.5c1.9-0.7,3.8-1.4,5.7-2.2c0.8-0.3,1.6-0.8,2.4-1.2c0,0,0.1,0.1,0.1,0.1
			c-0.3,0.3-0.6,0.7-0.9,1c-1,1.1-2,2.2-3.5,2.8c-2.3,0.9-4.6,1.9-7,2.7c-4.7,1.7-9.4,3.3-14.1,4.8c-3.2,1.1-6.5,2.1-9.8,3
			c-2,0.6-4.1,1.1-6.2,1.7c-1.6,0.4-3.2,0.8-4.9,1.2c-1.7,0.4-3.4,0.7-5.1,0.9c-1.6,0.2-3.2,0.2-4.7,0.3
			C22.2,80.4,21.8,80.4,21.5,80.4z"/>
	</g>
</g>
</svg>
