<?xml version="1.0" encoding="utf-8"?>
<!-- Generator: Adobe Illustrator 17.1.0, SVG Export Plug-In . SVG Version: 6.00 Build 0)  -->
<!DOCTYPE svg PUBLIC "-//W3C//DTD SVG 1.1//EN" "http://www.w3.org/Graphics/SVG/1.1/DTD/svg11.dtd">
<svg version="1.1" id="Layer_1" xmlns="http://www.w3.org/2000/svg" xmlns:xlink="http://www.w3.org/1999/xlink" x="0px" y="0px"
	 viewBox="0 0 960 560" enable-background="new 0 0 960 560" xml:space="preserve">
<g id="XMLID_2214_">
	<g id="XMLID_2227_">
		<path id="XMLID_2228_" fill="#FFFFFF" d="M477.4,245.8c-2.3,0-4.9-0.7-4.9-2.1c0-1.5,2.5-2.1,4.9-2.1s4.9,0.7,4.9,2.1
			C482.2,245.1,479.7,245.8,477.4,245.8z M477.4,242.7c-2.5,0-3.7,0.7-3.7,1s1.3,1,3.7,1s3.7-0.7,3.7-1S479.8,242.7,477.4,242.7z"/>
	</g>
	<g id="XMLID_2222_">
		<path id="XMLID_2226_" fill="#FFFFFF" d="M491.8,300.5c-1.4,0-2.9,0-4.2-0.1c0,0.5,0.1,1.1,0.1,1.6c0,9.4-5.1,17.6-12.7,22
			c4.8,1.4,10.6,2.3,16.9,2.3c16.3,0,29.5-5.7,29.5-12.7v-1.7c0,7-13.2,12.7-29.5,12.7c-5.2,0-10.1-0.6-14.4-1.6
			c0,0,21.6,2.7,34.6-3.1l-0.6-18.9c1.9-0.4,3.6-0.9,5.1-1.4l-0.3,17.8c2.4-1.8,4.2-4.1,5-7.1v-16.6
			C521.3,297.5,508.1,300.5,491.8,300.5z"/>
		<path id="XMLID_2223_" fill="#FFFFFF" d="M491.8,236.3c-16.3,0-29.5,3-29.5,6.8v3.4v30.2c13.1,0,23.9,10.1,25.2,22.9
			c7.5,0,16.7-0.4,23.8-2.1l-0.6-21.8c2.4-0.5,4.5-1,6.2-1.7l-0.3,21.7c2-0.9,3.6-1.9,4.7-3.1v-24.4c0,3.7-13.2,6.8-29.5,6.8
			c-7,0-13.4-0.6-18.5-1.5c0,0,22.5,1.9,37.2-1.4l-0.6-20.7c2.9-0.5,5.4-1.2,7.3-1.9l-0.3,20.6c1.8-0.8,3.3-1.8,4.3-3v-20.6v-3.4
			C521.3,239.4,508.1,236.3,491.8,236.3z M491.9,249.6c-17.3,0-28.4-3.6-28.4-6.1c0-2.5,11.1-6.1,28.4-6.1c17.3,0,28.4,3.6,28.4,6.1
			C520.3,246,509.2,249.6,491.9,249.6z"/>
	</g>
	<g id="XMLID_2218_">
		<path id="XMLID_2219_" fill="#FFFFFF" d="M462.2,325.5c-12.9,0-23.4-10.5-23.4-23.4c0-12.9,10.5-23.4,23.4-23.4
			s23.4,10.5,23.4,23.4C485.6,315,475.1,325.5,462.2,325.5z M462.2,280.3c-12,0-21.7,9.7-21.7,21.7c0,12,9.7,21.7,21.7,21.7
			S484,314,484,302.1C484,290.1,474.2,280.3,462.2,280.3z"/>
	</g>
	<path id="XMLID_2215_" fill="#FFFFFF" d="M461.7,286.8c0,0-10.5,11.8-10.5,22.1c0,4.9,4.7,8.9,10.5,8.9s10.5-4,10.5-8.9
		C472.2,298.5,461.7,286.8,461.7,286.8z M455.7,314.5c0,0-3.9-4.7,0-10.7c0,0-1.2,6,2.8,8.7L455.7,314.5z"/>
</g>
</svg>
