<?xml version="1.0" encoding="utf-8"?>
<!-- Generator: Adobe Illustrator 17.1.0, SVG Export Plug-In . SVG Version: 6.00 Build 0)  -->
<!DOCTYPE svg PUBLIC "-//W3C//DTD SVG 1.1//EN" "http://www.w3.org/Graphics/SVG/1.1/DTD/svg11.dtd">
<svg version="1.1" id="Layer_1" xmlns="http://www.w3.org/2000/svg" xmlns:xlink="http://www.w3.org/1999/xlink" x="0px" y="0px"
	 viewBox="0 0 960 560" enable-background="new 0 0 960 560" xml:space="preserve">
<g id="XMLID_2161_">
	<g id="XMLID_2192_">
		<path id="XMLID_2209_" fill="#FFFFFF" d="M464.9,250.1c-2.6-0.7-5.3-1.4-8-2.1c0.2-1.4,0.4-2.9,0.7-4.3c0.3-2.2,0.7-4.5,1-6.7
			c0.2-1.3,1.6-2.5,2.9-2.6c0.5-0.1,0.6,0.2,0.5,0.6c-0.1,3.7,0.3,7.4,1.4,11c0.4,1.3,1,2.6,1.5,3.9c0,0.1,0.1,0.1,0.1,0.2
			C465,250.1,465,250.1,464.9,250.1z"/>
		<path id="XMLID_2208_" fill="#FFFFFF" d="M508.9,267.9c5.6-0.1,11.1-0.7,16.7-0.6c0,0.1,0.1,0.2,0.1,0.3c-0.3,0.1-0.7,0.4-1,0.4
			c-4.6,0.7-9.2,1.3-13.9,1.9c-0.4,0.1-0.6-0.1-0.8-0.4C509.7,269,509.4,268.5,508.9,267.9z"/>
		<path id="XMLID_2207_" fill="#FFFFFF" d="M447.3,252.3c0.3,0,0.5,0,0.7,0c0.5,0.1,1,0.2,1.5,0.3c1.9,0.4,1.9,0.4,3.1,2.1
			C451.3,254.6,447.7,252.9,447.3,252.3z"/>
		<path id="XMLID_2194_" fill="#FFFFFF" d="M511.3,277.4c-0.3-1.8-0.6-3.6-1.3-5.3c-0.4,0.5-1.3,1.2-2.6,1.3
			c-1.9,0.1-7.1-1.3-6.2-2.4c0,0,5.7,0.8,7.9-0.9c-1.1-1.9-2.6-3.4-4.5-4.6c-1.4-0.8-2.8-1.4-4.3-1.9c-6.3-2.2-12.5-4.3-18.8-6.4
			c-5.3-1.8-10.7-3.6-16.1-5.3c-4.3-1.4-8.6-2.8-13-4.1c-1.1-0.3-1.9,0.2-1.9,1.4c0,0.6,0.1,1.2,0.3,1.7c1.3,2.8,3.5,5,5.9,6.8
			c1.9,1.4,5.9,3.5,7.9,4.7l2.5,0.6c-0.9-0.1-17-2.1-23.9-3.2c-4.1-0.7-8.2-1.3-12.4-1.9c-0.4-0.1-0.9,0-1.3,0c0,0.1,0,0.2-0.1,0.2
			c0.4,0.2,0.8,0.6,1.2,0.7c2,0.6,4,1.2,6.1,1.7c5.9,1.5,11.8,3,17.8,4.3c6.1,1.4,12.2,2.6,18.3,3.8c3.1,0.6,6.3,1.1,9.4,1.6
			c0,0.9-0.2,1-1.1,0.9c-0.4-0.1-0.7-0.1-1-0.2c0.2,0.3,0.5,0.4,0.8,0.6c1.4,0.7,2.9,1.5,4.3,2.2c2.4,1.3,4.8,2.6,7.3,3.8
			c3.3,1.7,6.7,2.8,10.3,3.4c2,0.3,4.1,0.5,6.1,0C510.7,280.4,511.6,279.5,511.3,277.4z M467.1,259.4c-0.3-0.1-0.5-0.6-0.3-0.9
			c0.2-0.4,0.6-0.6,0.9-0.4c0.3,0.1,0.5,0.6,0.3,0.9C467.8,259.4,467.4,259.6,467.1,259.4z M469.2,260.4c-0.3-0.1-0.5-0.6-0.3-0.9
			c0.2-0.4,0.6-0.6,0.9-0.4s0.5,0.6,0.3,0.9C469.9,260.3,469.5,260.5,469.2,260.4z M471.3,261.3c-0.3-0.1-0.5-0.6-0.3-0.9
			c0.2-0.4,0.6-0.6,0.9-0.4c0.3,0.1,0.5,0.6,0.3,0.9C472,261.2,471.6,261.4,471.3,261.3z M473.4,262.2c-0.3-0.1-0.5-0.6-0.3-0.9
			c0.2-0.4,0.6-0.6,0.9-0.4c0.3,0.1,0.5,0.6,0.3,0.9S473.7,262.3,473.4,262.2z M475.5,263.1c-0.3-0.1-0.5-0.6-0.3-0.9
			c0.2-0.4,0.6-0.6,0.9-0.4c0.3,0.1,0.5,0.6,0.3,0.9C476.3,263.1,475.9,263.3,475.5,263.1z M477.6,264c-0.3-0.1-0.5-0.6-0.3-0.9
			c0.2-0.4,0.6-0.6,0.9-0.4c0.3,0.1,0.5,0.6,0.3,0.9S478,264.2,477.6,264z M479.8,264.9c-0.3-0.1-0.5-0.6-0.3-0.9
			c0.2-0.4,0.6-0.6,0.9-0.4c0.3,0.1,0.5,0.6,0.3,0.9C480.5,264.9,480.1,265.1,479.8,264.9z M481.9,265.9c-0.3-0.1-0.5-0.6-0.3-0.9
			c0.2-0.4,0.6-0.6,0.9-0.4c0.3,0.1,0.5,0.6,0.3,0.9C482.6,265.8,482.2,266,481.9,265.9z M484,266.8c-0.3-0.1-0.5-0.6-0.3-0.9
			c0.2-0.4,0.6-0.6,0.9-0.4c0.3,0.1,0.5,0.6,0.3,0.9S484.3,266.9,484,266.8z M486.1,267.7c-0.3-0.1-0.5-0.6-0.3-0.9
			c0.2-0.4,0.6-0.6,0.9-0.4c0.3,0.1,0.5,0.6,0.3,0.9C486.8,267.6,486.4,267.8,486.1,267.7z M488.2,268.6c-0.3-0.1-0.5-0.6-0.3-0.9
			c0.2-0.4,0.6-0.6,0.9-0.4c0.3,0.1,0.5,0.6,0.3,0.9S488.6,268.7,488.2,268.6z"/>
		<path id="XMLID_2193_" fill="#FFFFFF" d="M475.3,270.2c-0.2,0-0.4-0.1-0.6-0.1c0,0,0,0,0,0c0.4,1,0.4,1.9-0.1,2.8
			c-0.6,1.1-1.8,1.8-2.8,1.5c-1.1-0.4-1.8-1.5-1.5-2.9c0.2-0.7,0.6-1.4,1-2.1c-3.5-0.7-7.1-1.5-10.7-2.2c0,0-0.1,0.1-0.1,0.1
			c0.3,0.2,0.5,0.4,0.8,0.6c1.4,1,2.8,2,4.2,3c1.6,1.1,3.2,2.3,4.8,3.4c1,0.7,2.2,1,3.4,0.4c1.4-0.8,2.2-2.5,1.9-4.1
			C475.5,270.5,475.4,270.3,475.3,270.2z"/>
	</g>
	<g id="XMLID_2162_">
		<path id="XMLID_2191_" fill="#FFFFFF" d="M502.6,292.2"/>
		<polygon id="XMLID_2190_" fill="#FFFFFF" points="485.1,295.2 479.4,296.3 476,296.2 482,295 		"/>
		<polygon id="XMLID_2189_" fill="#FFFFFF" points="471.6,298.3 479.7,296.6 483.9,296.9 476.4,298.4 		"/>
		<polygon id="XMLID_2188_" fill="#FFFFFF" points="465.8,298.1 474.9,296.4 478.3,296.6 470.2,298.2 		"/>
		<polygon id="XMLID_2187_" fill="#FFFFFF" points="505.1,294 501.4,293.8 506.4,292.8 510.9,292.8 510.9,297 505.1,298.4 		"/>
		<polygon id="XMLID_2186_" fill="#FFFFFF" points="498.7,293.9 492.4,295.2 488.1,295 494.8,293.7 		"/>
		<polygon id="XMLID_2185_" fill="#FFFFFF" points="493,293.5 486.3,294.9 483.3,294.8 490.6,293.4 		"/>
		<polygon id="XMLID_2184_" fill="#FFFFFF" points="468.2,298.6 460.8,300.2 460.8,305.6 455.2,305.6 455.2,300.1 463,298.6 		"/>
		<polygon id="XMLID_2183_" fill="#FFFFFF" points="499.8,293.7 495.8,293.4 499.4,292.7 499.4,292.7 504.3,292.8 		"/>
		<polygon id="XMLID_2182_" fill="#FFFFFF" points="490.5,296.9 486.4,296.7 492.8,295.5 497,295.6 497,300.3 490.5,301.8 		"/>
		<polygon id="XMLID_2181_" fill="#FFFFFF" points="480.8,296.4 486.9,295.2 491.2,295.4 485,296.6 		"/>
		<polygon id="XMLID_2180_" fill="#FFFFFF" points="500.3,294 503.9,294.2 503.9,298.6 498.2,300 498.2,295.4 494,295.2 		"/>
		<polygon id="XMLID_2179_" fill="#FFFFFF" points="468.7,306.4 474.4,306.4 481.4,304.7 481.4,309.7 474.4,311.6 468.7,311.6 		"/>
		<polygon id="XMLID_2178_" fill="#FFFFFF" points="474.8,298.7 467.5,300.2 467.5,305.7 462,305.6 462,300.2 469.6,298.7 		"/>
		<polygon id="XMLID_2177_" fill="#FFFFFF" points="494,293.3 491.6,293.2 494.2,292.7 497,292.7 		"/>
		<polygon id="XMLID_2176_" fill="#FFFFFF" points="467.5,311.6 462,311.6 462,306.4 467.5,306.4 		"/>
		<polygon id="XMLID_2175_" fill="#FFFFFF" points="505.1,299.1 510.9,297.8 510.9,302.1 505.1,303.6 		"/>
		<polygon id="XMLID_2174_" fill="#FFFFFF" points="460.8,306.4 460.8,311.6 455.2,311.6 455.2,306.3 		"/>
		<polygon id="XMLID_2173_" fill="#FFFFFF" points="468.7,305.7 468.7,300.2 476.2,298.7 481.4,298.8 481.4,304 474.4,305.7 		"/>
		<polygon id="XMLID_2172_" fill="#FFFFFF" points="498.2,300.8 503.9,299.4 503.9,303.9 498.2,305.4 		"/>
		<polygon id="XMLID_2171_" fill="#FFFFFF" points="490.5,302.6 497,301 497,305.7 490.5,307.4 		"/>
		<polygon id="XMLID_2170_" fill="#FFFFFF" points="482.6,304.5 489.3,302.9 489.3,307.7 482.6,309.4 		"/>
		<polygon id="XMLID_2169_" fill="#FFFFFF" points="485.2,297 489.3,297.2 489.3,302.1 482.6,303.7 482.6,298.5 477.7,298.4 		"/>
		<path id="XMLID_2163_" fill="#FFFFFF" d="M454.1,311.6v-2.1l-11.2,4.2c0.4,0.3,6.7,5.3,9.2,7.4c2.5,2.1,2.7,3.4,1.3,6.8
			c-0.2,0.4-0.4,0.8-0.7,1.3c0.4,0,0.6,0.1,0.9,0c2.7-0.2,5.5-0.4,8.2-0.7c2.1-0.2,4.2-0.6,6.3-1.1c3.1-0.7,6.1-1.4,9.1-2.3
			c4.4-1.2,8.9-2.5,13.2-3.9c5.2-1.6,10.4-3.3,15.5-5.1c4.7-1.6,9.4-3.5,14.1-5.2c2.6-0.9,4.6-2.5,6.7-4.3c3.3-2.8,4.1-7.8,4.1-8.1
			c0-0.5-0.1-0.7-0.7-0.6l-3.2,0.2c-0.5,0-0.7-0.2-0.7-0.7c0-0.7,0.1-1.8,0-2.5c0-0.3-0.4-0.6-0.6-0.7c-0.9-0.2-1.8,0-2.8-0.1
			c-0.6-0.1-1-0.3-1.1-0.9c-0.1-0.4-1.4-3,0.5-3.2v-1.6h-2.4c0,0-1.3-3.8-1.8-5.2c-0.2-0.5-0.4-0.8-1-0.7h-2.9c-0.7,0-1,0.5-1,1.3
			c0.1,1.3,0,2.6,0,3.8c0.1,0.8-0.3,1-1,1h-12.9c0,0-0.1,2.9,2.3,2.9c0.4,0,0.8,0,1.1,0c0.5,0,0.8,0.1,0.7,0.7c0,0,0,0,0,0h13.2v7.7
			c0,0-5.2,0-5.2,0v1.1l5.3-0.2c1.3-0.4,5.6-1.7,6.9-2l1.4,0.2c-1.2,0.4-44,12.6-46.9,13.4c-6.8,1.8-13.7,2.2-20.6,2.2
			c-4.5,0-9.8-0.7-10.2-0.9L454.1,311.6z M518.9,287.2l-4.7,0.3V286l4.2-0.4L518.9,287.2z M519.8,290.6h-19l-0.7-1.2h19.1
			L519.8,290.6z M465.7,318.8c0,1-1.3,1.8-3,1.8s-3-0.8-3-1.8c0-1,1.3-1.8,3-1.8S465.7,317.8,465.7,318.8z M454.7,328
			c0.2-1.3,0.3-2.5,0.5-3.6c0-0.2,0.5-0.5,0.7-0.4c4.2,0.2,8.4-0.4,12.5-1.4c3.9-0.9,7.9-1.7,11.8-2.8c5.3-1.4,10.5-3,15.7-4.6
			c5.2-1.6,10.4-3.2,15.6-4.9c1.9-0.6,3.7-1.2,5.6-1.9c2.4-0.9,4.9-1.8,7.3-2.8c1-0.4,2-1,3.1-1.5c0.1,0.1,0.1,0.1,0.2,0.2
			c-0.4,0.4-0.7,0.9-1.1,1.3c-1.3,1.4-2.6,2.8-4.4,3.5c-3,1.2-5.9,2.4-8.9,3.5c-6,2.1-12,4.2-18,6.2c-4.1,1.4-8.3,2.6-12.4,3.9
			c-2.6,0.8-5.3,1.5-7.9,2.1c-2.1,0.5-4.1,1.1-6.2,1.5c-2.2,0.4-4.3,0.9-6.5,1.1c-2,0.2-4,0.3-6.1,0.4
			C455.6,327.9,455.1,327.9,454.7,328z"/>
	</g>
</g>
</svg>
