<?xml version="1.0" encoding="utf-8"?>
<!-- Generator: Adobe Illustrator 23.1.0, SVG Export Plug-In . SVG Version: 6.00 Build 0)  -->
<svg version="1.1" id="圖層_1" xmlns="http://www.w3.org/2000/svg" xmlns:xlink="http://www.w3.org/1999/xlink" x="0px" y="0px"
	 viewBox="0 0 40 40" style="enable-background:new 0 0 40 40;" xml:space="preserve">
<style type="text/css">
	.st0{fill:#595757;}
</style>
<g id="tNC30H_1_">
	<g id="XMLID_410_">
		<path id="XMLID_1486_" class="st0" d="M19.98,37.29c-0.34-0.39-0.67-0.78-1-1.17c-2.19-2.61-4.22-5.35-6.01-8.25
			c-1.4-2.27-2.65-4.61-3.52-7.13c-0.53-1.56-0.94-3.16-0.9-4.82c0.07-3.7,1.55-6.75,4.5-8.98c3.36-2.55,7.13-3.11,11.04-1.59
			c4.17,1.62,6.58,4.77,7.26,9.2c0.31,2.02-0.07,3.97-0.7,5.88c-0.98,2.97-2.49,5.67-4.17,8.3c-1.89,2.95-4.02,5.73-6.32,8.38
			C20.1,37.18,20.05,37.23,19.98,37.29z M24.08,16.04c0-2.27-1.84-4.09-4.1-4.09c-2.26,0-4.08,1.84-4.07,4.11
			c0.01,2.25,1.84,4.07,4.09,4.07C22.24,20.12,24.08,18.28,24.08,16.04z"/>
	</g>
</g>
</svg>
