<?xml version="1.0" encoding="utf-8"?>
<!-- Generator: Adobe Illustrator 23.1.0, SVG Export Plug-In . SVG Version: 6.00 Build 0)  -->
<svg version="1.1" id="圖層_1" xmlns="http://www.w3.org/2000/svg" xmlns:xlink="http://www.w3.org/1999/xlink" x="0px" y="0px"
	 viewBox="0 0 40 40" style="enable-background:new 0 0 40 40;" xml:space="preserve">
<style type="text/css">
	.st0{fill:#595757;}
</style>
<g id="upAk6x_4_">
	<g id="XMLID_946_">
		<path id="XMLID_1078_" class="st0" d="M27.57,37.41c-0.66,0.03-1.27,0.12-1.87,0.08c-2.64-0.16-4.83-1.38-6.83-3.01
			c-2.45-2-4.29-4.48-5.75-7.25c-0.97-1.84-1.95-3.67-2.86-5.53c-0.92-1.88-1.55-3.87-1.9-5.94c-0.23-1.32-0.34-2.64-0.27-3.98
			c0.13-2.23,0.67-4.32,2.17-6.06c0.12-0.14,0.26-0.27,0.41-0.42c0.05,0.09,0.1,0.16,0.14,0.23c1.51,2.86,3.01,5.71,4.52,8.57
			c0.09,0.17,0.09,0.29-0.02,0.45c-0.5,0.68-0.6,1.46-0.53,2.28c0.06,0.68,0.31,1.3,0.63,1.89c1.25,2.37,2.5,4.74,3.74,7.11
			c0.46,0.88,1.07,1.6,1.97,2.05c0.45,0.22,0.92,0.33,1.42,0.34c0.11,0,0.26,0.09,0.31,0.19c1.55,2.92,3.09,5.85,4.63,8.78
			C27.51,37.23,27.52,37.26,27.57,37.41z"/>
		<path id="XMLID_1020_" class="st0" d="M24.62,26.69c0.89-0.43,1.73-0.89,2.61-1.24c0.6-0.24,1.27,0.07,1.6,0.63
			c0.35,0.6,0.67,1.23,0.99,1.85c0.79,1.51,1.59,3.01,2.38,4.52c0.49,0.94,0.24,1.79-0.7,2.29c-0.68,0.36-1.36,0.71-2.07,1.09
			C27.83,32.8,26.24,29.78,24.62,26.69z"/>
		<path id="XMLID_947_" class="st0" d="M17.33,12.86c-1.58-3.01-3.16-6-4.74-9.01c0.08-0.05,0.14-0.1,0.21-0.13
			c0.62-0.33,1.23-0.66,1.85-0.98c0.95-0.49,1.78-0.23,2.28,0.72c1.06,2,2.11,4,3.16,6.01c0.51,0.97,0.26,1.79-0.7,2.31
			C18.71,12.13,18.03,12.49,17.33,12.86z"/>
	</g>
</g>
</svg>
