<?xml version="1.0" encoding="utf-8"?>
<!-- Generator: Adobe Illustrator 26.0.0, SVG Export Plug-In . SVG Version: 6.00 Build 0)  -->
<svg version="1.1" id="圖層_1" xmlns="http://www.w3.org/2000/svg" xmlns:xlink="http://www.w3.org/1999/xlink" x="0px" y="0px"
	 viewBox="0 0 204.8 46.7" style="enable-background:new 0 0 204.8 46.7;" xml:space="preserve">
<g id="XMLID_65_">
	<g id="XMLID_1394_">
		<g id="XMLID_1395_" style="opacity:0.51;">
			<g id="XMLID_1396_">
				<g>
					<defs>
						<rect id="SVGID_1_" x="-0.1" y="15.4" width="58.5" height="34.6"/>
					</defs>
					<clipPath id="SVGID_00000047029924275150606320000017981933055352242857_">
						<use xlink:href="#SVGID_1_"  style="overflow:visible;"/>
					</clipPath>
					<g id="XMLID_1398_" style="clip-path:url(#SVGID_00000047029924275150606320000017981933055352242857_);">
						<g>
							<defs>
								<rect id="SVGID_00000023959407248150039490000007527618491264991672_" x="-0.1" y="15.4" width="58.5" height="34.6"/>
							</defs>
							<clipPath id="SVGID_00000090271010183904661100000006199461621277952148_">
								<use xlink:href="#SVGID_00000023959407248150039490000007527618491264991672_"  style="overflow:visible;"/>
							</clipPath>
							<g style="clip-path:url(#SVGID_00000090271010183904661100000006199461621277952148_);">
							</g>
						</g>
					</g>
				</g>
			</g>
		</g>
	</g>
	<polygon id="XMLID_1325_" style="fill:#5F5F60;" points="55.4,33.6 28.2,35 28.2,15.4 0,46.9 51.4,46.5 	"/>
	<g id="XMLID_1315_">
		<g id="XMLID_1316_" style="opacity:0.51;">
			<g id="XMLID_1317_">
				<g>
					<defs>
						<rect id="SVGID_00000007387592421563392600000003280250376601824168_" x="4.9" y="0.3" width="58.5" height="34.6"/>
					</defs>
					<clipPath id="SVGID_00000150084209436119660030000013342546384284274095_">
						<use xlink:href="#SVGID_00000007387592421563392600000003280250376601824168_"  style="overflow:visible;"/>
					</clipPath>
					<g id="XMLID_1320_" style="clip-path:url(#SVGID_00000150084209436119660030000013342546384284274095_);">
						<g>
							<defs>
								<rect id="SVGID_00000156558477440260783170000005396011144411136698_" x="4.9" y="0.3" width="58.5" height="34.6"/>
							</defs>
							<clipPath id="SVGID_00000011750718251248629810000006591832681755400374_">
								<use xlink:href="#SVGID_00000156558477440260783170000005396011144411136698_"  style="overflow:visible;"/>
							</clipPath>
							<g style="clip-path:url(#SVGID_00000011750718251248629810000006591832681755400374_);">
							</g>
						</g>
					</g>
				</g>
			</g>
		</g>
	</g>
	<polygon id="XMLID_1313_" style="fill:#D71819;" points="5,13.8 32.2,12.4 32.2,31.9 60.4,0.4 9,0.9 	"/>
	<g id="XMLID_73_">
		<path id="XMLID_1312_" style="fill:#D71819;" d="M95.2,15.2c0,2.3-0.4,4.3-1.3,5.9s-2,2.9-3.4,3.9c-1.4,0.9-2.9,1.6-4.6,2
			c-1.6,0.4-3.3,0.6-4.9,0.6c-2.3,0-4.5-0.4-6.6-1.2c-2.2-0.8-4-2.1-5.4-4s-2.2-4.3-2.2-7.3V0.2h8.1V13c0,1.8,0.3,3.2,0.8,4.4
			c0.5,1.2,1.2,2,2.1,2.5s2,0.8,3.2,0.8s2.2-0.3,3.2-0.8c0.9-0.5,1.6-1.4,2.2-2.5c0.5-1.2,0.8-2.6,0.8-4.4V0.2h8.1v15H95.2z"/>
		<rect id="XMLID_1311_" x="101.7" y="0.3" style="fill:#D71819;" width="8.1" height="26.9"/>
		<polygon id="XMLID_1310_" style="fill:#D71819;" points="142.4,6.9 132.5,6.9 132.5,27.3 124.4,27.3 124.4,6.9 114.6,6.9 
			114.6,0.3 142.4,0.3 		"/>
		<path id="XMLID_1307_" style="fill:#D71819;" d="M176.3,13.8c0,2.5-0.6,4.8-1.7,6.9c-1.2,2.1-2.9,3.8-5.2,5
			c-2.3,1.2-5.1,1.9-8.4,1.9s-6.1-0.6-8.4-1.9s-4-3-5.1-5.1s-1.7-4.4-1.7-6.8s0.6-4.7,1.7-6.8c1.1-2.1,2.8-3.8,5.1-5.1
			c2.3-1.3,5.1-1.9,8.4-1.9c2.5,0,4.7,0.4,6.6,1.1s3.5,1.7,4.8,3s2.2,2.7,2.9,4.4C176,10.2,176.3,11.9,176.3,13.8 M168.1,13.8
			c0-1-0.1-1.9-0.4-2.8c-0.3-0.8-0.7-1.6-1.4-2.2c-0.6-0.6-1.3-1.1-2.2-1.4c-0.9-0.3-1.9-0.5-3-0.5c-2.2,0-3.9,0.6-5.1,1.9
			s-1.9,2.9-1.9,5s0.6,3.7,1.9,5s3,1.9,5.1,1.9c1.5,0,2.8-0.3,3.8-0.9s1.9-1.4,2.4-2.4C167.8,16.3,168.1,15.1,168.1,13.8"/>
		<path id="XMLID_1304_" style="fill:#D71819;" d="M204.7,8.8c0,1-0.2,2-0.5,2.9c-0.3,1-0.9,1.8-1.7,2.7c-0.8,0.8-1.8,1.5-3.1,2
			c-1.3,0.5-2.8,0.8-4.6,0.8h-5.3v10.1h-8.1V0.4h13.4c1.8,0,3.3,0.3,4.6,0.8c1.3,0.5,2.3,1.2,3.1,2c0.8,0.8,1.3,1.7,1.7,2.7
			C204.5,6.8,204.7,7.8,204.7,8.8 M196.5,8.8c0-1.3-0.4-2.2-1.1-2.6c-0.8-0.5-2.1-0.7-4.1-0.7h-1.7V12h1.8c1.4,0,2.4-0.1,3.1-0.3
			c0.7-0.2,1.3-0.5,1.6-0.9C196.3,10.4,196.5,9.7,196.5,8.8"/>
	</g>
	<g>
		<path style="fill:#5F5F60;" d="M66.8,37.5h3.6c1.2,0,2.2,0.4,2.9,1.3c0.6,0.8,0.9,1.8,0.9,3.1c0,1-0.2,1.8-0.5,2.6
			c-0.6,1.4-1.7,2.1-3.3,2.1h-3.6V37.5z M70.2,45.6c0.4,0,0.7,0,1-0.1c0.5-0.2,0.9-0.5,1.2-0.9c0.2-0.4,0.4-0.8,0.5-1.4
			c0.1-0.3,0.1-0.7,0.1-1c0-1.1-0.2-2-0.7-2.6c-0.4-0.6-1.1-0.9-2.1-0.9h-2.1v7h2.1V45.6z"/>
		<path style="fill:#5F5F60;" d="M76.2,37.5h6.6v1.1h-5.4v2.8h5v1.1h-5v3.1h5.5v1.1h-6.7V37.5z"/>
		<path style="fill:#5F5F60;" d="M85.4,37.5l2.6,7.8l2.6-7.8H92l-3.3,9.1h-1.3l-3.3-9.1H85.4z"/>
		<path style="fill:#5F5F60;" d="M93.4,37.5h6.6v1.1h-5.4v2.8h5v1.1h-5v3.1h5.5v1.1h-6.7V37.5z"/>
		<path style="fill:#5F5F60;" d="M101.9,37.5h1.2v8h4.6v1.1h-5.8L101.9,37.5L101.9,37.5z"/>
		<path style="fill:#5F5F60;" d="M116.6,38.8c0.6,0.8,0.9,1.8,0.9,3.1c0,1.4-0.3,2.5-1,3.4c-0.8,1.1-2,1.6-3.5,1.6
			c-1.4,0-2.5-0.5-3.3-1.4c-0.7-0.9-1.1-2-1.1-3.4c0-1.2,0.3-2.3,0.9-3.2c0.8-1.1,2-1.7,3.5-1.7C114.7,37.3,115.8,37.8,116.6,38.8z
			 M115.5,44.6c0.5-0.8,0.7-1.7,0.7-2.7c0-1.1-0.3-1.9-0.8-2.6c-0.6-0.7-1.3-1-2.3-1c-0.9,0-1.7,0.3-2.3,1c-0.6,0.6-0.9,1.6-0.9,2.9
			c0,1,0.3,1.9,0.8,2.6s1.3,1,2.5,1C114.3,45.8,115,45.4,115.5,44.6z"/>
		<path style="fill:#5F5F60;" d="M119.2,37.5h4.1c0.8,0,1.5,0.2,2,0.7s0.7,1.1,0.7,1.9c0,0.7-0.2,1.3-0.7,1.9
			c-0.4,0.5-1.1,0.8-2,0.8h-2.8v3.9h-1.2v-9.2H119.2z M124,38.8c-0.3-0.1-0.6-0.2-1.1-0.2h-2.4v3.2h2.4c0.6,0,1-0.1,1.3-0.4
			s0.5-0.7,0.5-1.2C124.8,39.5,124.5,39,124,38.8z"/>
		<path style="fill:#5F5F60;" d="M127.7,37.5h1.8l2.6,7.7l2.6-7.7h1.8v9.1h-1.2v-5.4c0-0.2,0-0.5,0-0.9s0-0.9,0-1.4l-2.6,7.7h-1.2
			l-2.6-7.7v0.3c0,0.2,0,0.6,0,1c0,0.5,0,0.8,0,1v5.4h-1.2L127.7,37.5L127.7,37.5z"/>
		<path style="fill:#5F5F60;" d="M138.6,37.5h6.6v1.1h-5.4v2.8h5v1.1h-5v3.1h5.5v1.1h-6.7V37.5z"/>
		<path style="fill:#5F5F60;" d="M147.1,37.5h1.5l4.6,7.4v-7.4h1.2v9.1H153l-4.6-7.4v7.4h-1.2v-9.1H147.1z"/>
		<path style="fill:#5F5F60;" d="M163,37.5v1.1h-3.1v8h-1.2v-8h-3.1v-1.1H163z"/>
		<path style="fill:#5F5F60;" d="M174.2,38.2c0.6,0.6,1,1.3,1,2.1H174c-0.1-0.6-0.4-1.1-0.8-1.4s-1-0.5-1.7-0.5
			c-0.9,0-1.6,0.3-2.1,0.9s-0.8,1.6-0.8,2.9c0,1.1,0.2,1.9,0.7,2.6s1.2,1,2.2,1c0.9,0,1.6-0.4,2-1c0.2-0.4,0.4-0.9,0.6-1.5h1.2
			c-0.1,1-0.5,1.8-1.1,2.4c-0.7,0.8-1.7,1.2-2.9,1.2c-1,0-1.9-0.3-2.6-1c-0.9-0.8-1.4-2.2-1.4-3.9c0-1.3,0.4-2.5,1.1-3.3
			c0.8-0.9,1.8-1.4,3.1-1.4C172.7,37.3,173.6,37.6,174.2,38.2z"/>
		<path style="fill:#5F5F60;" d="M184.6,38.8c0.6,0.8,0.9,1.8,0.9,3.1c0,1.4-0.3,2.5-1,3.4c-0.8,1.1-2,1.6-3.5,1.6
			c-1.4,0-2.5-0.5-3.3-1.4c-0.7-0.9-1.1-2-1.1-3.4c0-1.2,0.3-2.3,0.9-3.2c0.8-1.1,2-1.7,3.5-1.7C182.6,37.3,183.8,37.8,184.6,38.8z
			 M183.5,44.6c0.5-0.8,0.7-1.7,0.7-2.7c0-1.1-0.3-1.9-0.8-2.6c-0.6-0.7-1.3-1-2.3-1c-0.9,0-1.7,0.3-2.3,1c-0.6,0.6-0.9,1.6-0.9,2.9
			c0,1,0.3,1.9,0.8,2.6s1.3,1,2.5,1C182.2,45.8,183,45.4,183.5,44.6z"/>
		<path style="fill:#5F5F60;" d="M187.2,37.5h4.1c0.7,0,1.2,0.1,1.7,0.3c0.8,0.4,1.3,1.1,1.3,2.2c0,0.5-0.1,1-0.3,1.3
			c-0.2,0.3-0.5,0.6-0.9,0.8c0.4,0.1,0.6,0.3,0.8,0.6s0.3,0.6,0.3,1.1V45c0,0.3,0,0.6,0.1,0.8c0.1,0.3,0.2,0.5,0.4,0.6v0.2h-1.5
			c0-0.1-0.1-0.2-0.1-0.3c0-0.1,0-0.4-0.1-0.7l-0.1-1.5c0-0.6-0.2-1-0.6-1.2c-0.2-0.1-0.6-0.2-1.1-0.2h-2.7v3.9h-1.2L187.2,37.5
			L187.2,37.5z M191.2,41.7c0.6,0,1-0.1,1.3-0.3c0.3-0.2,0.5-0.7,0.5-1.3c0-0.7-0.2-1.1-0.7-1.3c-0.2-0.1-0.6-0.2-1-0.2h-2.9v3.1
			L191.2,41.7L191.2,41.7z"/>
		<path style="fill:#5F5F60;" d="M196.5,37.5h4.1c0.8,0,1.5,0.2,2,0.7s0.7,1.1,0.7,1.9c0,0.7-0.2,1.3-0.7,1.9
			c-0.4,0.5-1.1,0.8-2,0.8h-2.8v3.9h-1.2v-9.2H196.5z M201.3,38.8c-0.3-0.1-0.6-0.2-1.1-0.2h-2.4v3.2h2.4c0.6,0,1-0.1,1.3-0.4
			s0.5-0.7,0.5-1.2C202,39.5,201.8,39,201.3,38.8z"/>
		<path style="fill:#5F5F60;" d="M203.5,45.3h1.3v1.4h-1.3V45.3z"/>
	</g>
</g>
</svg>
