<svg xmlns="http://www.w3.org/2000/svg" viewBox="0 0 82.5 90"><path d="M37.3 82.1c-1.1.1-2.2.2-3.2.1-4.6-.3-8.4-2.4-11.9-5.2-4.3-3.5-7.5-7.8-10-12.6-1.7-3.2-3.4-6.4-5-9.6-1.6-3.3-2.7-6.7-3.3-10.3-.4-2.3-.6-4.6-.5-6.9.2-3.9 1.2-7.5 3.8-10.5l.7-.7c.1.2.2.3.2.4 2.6 5 5.2 9.9 7.9 14.9.2.3.2.5 0 .8-.9 1.2-1 2.5-.9 4 .1 1.2.5 2.3 1.1 3.3 2.2 4.1 4.3 8.2 6.5 12.4.8 1.5 1.9 2.8 3.4 3.6.8.4 1.6.6 2.5.6.2 0 .5.2.5.3L37.2 82c0-.2 0-.1.1.1zm-6.8-16.9c1.5-.7 3-1.5 4.5-2.1 1-.4 2.2.1 2.8 1.1.6 1 1.2 2.1 1.7 3.2 1.4 2.6 2.8 5.2 4.1 7.9.9 1.6.4 3.1-1.2 4-1.2.6-2.4 1.2-3.6 1.9-2.7-5.4-5.5-10.7-8.3-16zM17.8 41.1c-2.8-5.2-5.5-10.4-8.2-15.7.1-.1.2-.2.4-.2 1.1-.6 2.1-1.1 3.2-1.7 1.6-.9 3.1-.4 4 1.2 1.8 3.5 3.7 7 5.5 10.4.9 1.7.4 3.1-1.2 4-1.3.8-2.5 1.4-3.7 2z" fill="#FFF"/><path fill="#FFF" d="M45.5 7.8c-11.4 0-21.5 5.7-27.7 14.3.5.4.9 1 1.2 1.6 0 .1.1.1.1.2 2.3-3.4 5.1-6.2 8.5-8.5 3.7-2.6 7.9-4.2 12.4-5-1.6 1.6-3.1 3.1-4.5 4.7-2.5 2.8-4.4 6-6 9.4-.1.3-.5.6-.7.6h-9.1c.4.8.8 1.5 1.2 2.3h6.9c.1 0 .2 0 .4.1-1.5 4.2-2.3 8.6-2.5 13h-2.3c-.3.3-.7.5-1.1.7-.8.4-1.6.9-2.5 1.3l-.6.3h6.6c.2 4.5 1 8.8 2.7 13.1h-6.6c.4.8.8 1.6 1.2 2.3H28c1 0 1.5.3 2 1.2.5.9.9 1.8 1.5 2.7.7-.3 1.4-.7 2.1-1-.6-.9-1.1-1.8-1.6-2.8h12.1v13.3c.4.9.9 1.7 1.3 2.6.2.5.4.9.5 1.4 18.3-.3 33.2-15.4 33.2-33.8.3-18.8-14.9-34-33.6-34zm-1.3 2.4V25H31.8c3-6 7-10.9 12.4-14.8zm-15.6 26c.6-2.7 1.3-5.4 2-8.1.1-.4.3-.7.8-.7h12.8v13H28.1c.2-1.4.2-2.9.5-4.2zm15.6 19.7H31.8c-.4 0-.7 0-.9-.5-1.5-4-2.4-8.1-2.6-12.4 0-.1 0-.2.1-.3h15.9c-.1 4.5-.1 8.8-.1 13.2zm29.9-28c1.8 3.8 2.8 7.9 3.1 12.1v.4H65.1c-.1-4.5-.9-8.8-2.5-13.1h10.6c.5 0 .7.2.9.6zM46.7 42.8h16.1c-.1 1.4-.1 2.8-.5 4.2-.6 2.8-1.4 5.5-2.2 8.3-.1.2-.4.6-.7.6H46.7V42.8zm0-2.4v-13h12.7c.5 0 .7.1.9.6 1.4 3.8 2.2 7.6 2.3 11.6v.6c0 .1 0 .2-.1.3-5.1-.1-10.4-.1-15.8-.1zm25.8-15.3H62.2c-.2 0-.5-.2-.6-.4-2.5-5.5-6-10.2-10.7-14.2 5.8-.6 18.5 7.9 21.6 14.6zM46.7 10.2c5.4 3.9 9.5 8.7 12.4 14.7H46.7V10.2zm0 48.1h12c-.7 3.3-8.3 12.2-12 14v-14zM49.9 73c.2-.2.4-.4.6-.5 4.5-3.8 8.1-8.3 10.6-13.6.2-.4.3-.7.8-.7h10.2c.1 0 .2 0 .3.1C68.5 65.7 57.3 73 49.9 73zm24.3-17.7c-.1.2-.4.6-.7.6h-11c1.6-4.3 2.5-8.6 2.7-13.1h12.3c-.4 2.3-.6 4.5-1.2 6.7-.6 2-1.4 3.9-2.1 5.8z"/></svg>