<?xml version="1.0" encoding="utf-8"?>
<!-- Generator: Adobe Illustrator 23.1.0, SVG Export Plug-In . SVG Version: 6.00 Build 0)  -->
<svg version="1.1" id="圖層_1" xmlns="http://www.w3.org/2000/svg" xmlns:xlink="http://www.w3.org/1999/xlink" x="0px" y="0px"
	 viewBox="0 0 204.8 49.8" style="enable-background:new 0 0 204.8 49.8;" xml:space="preserve">
<style type="text/css">
	.st0{opacity:0.51;}
	.st1{clip-path:url(#SVGID_2_);}
	.st2{clip-path:url(#SVGID_4_);}
	.st3{fill:#5F5F5F;}
	.st4{clip-path:url(#SVGID_6_);}
	.st5{clip-path:url(#SVGID_8_);}
	.st6{fill:#E50012;}
</style>
<g class="st0">
	<g>
		<defs>
			<rect id="SVGID_1_" y="15.4" width="58.5" height="34.6"/>
		</defs>
		<clipPath id="SVGID_2_">
			<use xlink:href="#SVGID_1_"  style="overflow:visible;"/>
		</clipPath>
		<g class="st1">
			<g>
				<defs>
					<rect id="SVGID_3_" y="15.4" width="58.5" height="34.6"/>
				</defs>
				<clipPath id="SVGID_4_">
					<use xlink:href="#SVGID_3_"  style="overflow:visible;"/>
				</clipPath>
				<g class="st2">
				</g>
			</g>
		</g>
	</g>
</g>
<path class="st3" d="M55.5,33.6L28.3,35V15.4L0.1,46.9l51.4-0.4L55.5,33.6z"/>
<g class="st0">
	<g>
		<defs>
			<rect id="SVGID_5_" x="5" y="0.3" width="58.5" height="34.6"/>
		</defs>
		<clipPath id="SVGID_6_">
			<use xlink:href="#SVGID_5_"  style="overflow:visible;"/>
		</clipPath>
		<g class="st4">
			<g>
				<defs>
					<rect id="SVGID_7_" x="5" y="0.3" width="58.5" height="34.6"/>
				</defs>
				<clipPath id="SVGID_8_">
					<use xlink:href="#SVGID_7_"  style="overflow:visible;"/>
				</clipPath>
				<g class="st5">
				</g>
			</g>
		</g>
	</g>
</g>
<path class="st6" d="M5.1,13.8l27.2-1.4v19.5L60.5,0.4L9.1,0.9L5.1,13.8z M95.3,15.2c0,2.3-0.4,4.3-1.3,5.9S92,24,90.6,25
	c-1.4,0.9-2.9,1.6-4.6,2c-1.6,0.4-3.3,0.6-4.9,0.6c-2.3,0-4.5-0.4-6.6-1.2c-2.2-0.8-4-2.1-5.4-4s-2.2-4.3-2.2-7.3V0.2H75V13
	c0,1.8,0.3,3.2,0.8,4.4c0.5,1.2,1.2,2,2.1,2.5s2,0.8,3.2,0.8s2.2-0.3,3.2-0.8c0.9-0.5,1.6-1.4,2.2-2.5c0.5-1.2,0.8-2.6,0.8-4.4V0.2
	h8.1v15H95.3z M101.8,0.3h8.1v26.9h-8.1V0.3z M142.5,6.9h-9.9v20.4h-8.1V6.9h-9.9V0.3h27.9V6.9z M176.4,13.8c0,2.5-0.6,4.8-1.7,6.9
	c-1.2,2.1-2.9,3.8-5.2,5s-5.1,1.9-8.4,1.9c-3.3,0-6.1-0.6-8.4-1.9c-2.3-1.3-4-3-5.1-5.1s-1.7-4.4-1.7-6.8s0.6-4.7,1.7-6.8
	c1.1-2.1,2.8-3.8,5.1-5.1c2.3-1.3,5.1-1.9,8.4-1.9c2.5,0,4.7,0.4,6.6,1.1c1.9,0.7,3.5,1.7,4.8,3s2.2,2.7,2.9,4.4
	C176.1,10.2,176.4,11.9,176.4,13.8 M168.2,13.8c0-1-0.1-1.9-0.4-2.8c-0.3-0.8-0.7-1.6-1.4-2.2c-0.6-0.6-1.3-1.1-2.2-1.4
	s-1.9-0.5-3-0.5c-2.2,0-3.9,0.6-5.1,1.9c-1.2,1.3-1.9,2.9-1.9,5s0.6,3.7,1.9,5c1.3,1.3,3,1.9,5.1,1.9c1.5,0,2.8-0.3,3.8-0.9
	s1.9-1.4,2.4-2.4C167.9,16.3,168.2,15.1,168.2,13.8 M204.8,8.8c0,1-0.2,2-0.5,2.9c-0.3,1-0.9,1.8-1.7,2.7c-0.8,0.8-1.8,1.5-3.1,2
	s-2.8,0.8-4.6,0.8h-5.3v10.1h-8.1V0.4h13.4c1.8,0,3.3,0.3,4.6,0.8s2.3,1.2,3.1,2s1.3,1.7,1.7,2.7C204.6,6.8,204.8,7.8,204.8,8.8
	 M196.5,8.8c0-1.3-0.4-2.2-1.1-2.6c-0.8-0.5-2.1-0.7-4.1-0.7h-1.7V12h1.8c1.4,0,2.4-0.1,3.1-0.3c0.7-0.2,1.3-0.5,1.6-0.9
	S196.5,9.7,196.5,8.8"/>
<path class="st3" d="M70.4,47.6v-9.7h-3.6v-1.4h8.8v1.4h-3.7v9.7H70.4z M77.1,47.6V36.5H82c1,0,1.7,0.1,2.3,0.3
	c0.5,0.2,0.9,0.5,1.2,1.1c0.3,0.5,0.5,1.1,0.5,1.7c0,0.8-0.3,1.4-0.8,2c-0.5,0.5-1.3,0.9-2.4,1c0.4,0.2,0.7,0.4,0.9,0.6
	c0.4,0.4,0.8,0.9,1.2,1.5l1.9,3H85l-1.5-2.3c-0.4-0.7-0.8-1.2-1.1-1.5c-0.3-0.4-0.5-0.6-0.7-0.7S81.3,43,81,42.9
	c-0.2,0-0.4-0.1-0.8-0.1h-1.7v4.9L77.1,47.6L77.1,47.6z M78.6,41.4h3.2c0.7,0,1.2-0.1,1.6-0.2s0.7-0.4,0.9-0.7
	c0.2-0.3,0.3-0.6,0.3-1c0-0.5-0.2-1-0.6-1.3s-1-0.5-1.8-0.5h-3.5v3.7H78.6z M87.1,47.6l4.3-11.1H93l4.5,11.1h-1.7l-1.3-3.4h-4.7
	l-1.2,3.4H87.1L87.1,47.6z M90.2,43.1H94L92.8,40c-0.4-0.9-0.6-1.7-0.8-2.3c-0.1,0.7-0.3,1.4-0.6,2.1L90.2,43.1L90.2,43.1z
	 M98.6,47.6V36.5h3.8c0.9,0,1.5,0.1,2,0.2c0.6,0.1,1.2,0.4,1.6,0.8c0.6,0.5,1,1.1,1.3,1.9s0.4,1.6,0.4,2.6c0,0.8-0.1,1.6-0.3,2.2
	c-0.2,0.7-0.5,1.2-0.8,1.6s-0.6,0.8-1,1s-0.8,0.4-1.3,0.6c-0.5,0.1-1.1,0.2-1.8,0.2L98.6,47.6L98.6,47.6z M100.1,46.3h2.4
	c0.7,0,1.3-0.1,1.7-0.2c0.4-0.1,0.7-0.3,1-0.6c0.3-0.3,0.6-0.8,0.8-1.4c0.2-0.6,0.3-1.3,0.3-2.1c0-1.2-0.2-2.1-0.6-2.7
	s-0.8-1-1.4-1.3c-0.4-0.1-1-0.2-1.9-0.2h-2.3V46.3L100.1,46.3z M110.1,36.5h1.5v11.1h-1.5V36.5z M114.1,47.6V36.5h1.5l5.8,8.7v-8.7
	h1.4v11.1h-1.5l-5.8-8.7v8.7H114.1z M130.5,43.3V42h4.7v4.1c-0.7,0.6-1.5,1-2.2,1.3c-0.8,0.3-1.6,0.4-2.4,0.4c-1.1,0-2.1-0.2-3-0.7
	s-1.6-1.1-2-2c-0.5-0.9-0.7-1.9-0.7-3s0.2-2.1,0.7-3s1.1-1.6,2-2.1c0.8-0.5,1.8-0.7,2.9-0.7c0.8,0,1.5,0.1,2.2,0.4
	c0.6,0.3,1.2,0.6,1.5,1.1c0.4,0.5,0.6,1.1,0.8,1.8l-1.3,0.4c-0.2-0.6-0.4-1-0.6-1.3c-0.3-0.3-0.6-0.6-1.1-0.8
	c-0.5-0.2-1-0.3-1.5-0.3c-0.7,0-1.2,0.1-1.7,0.3c-0.5,0.2-0.9,0.5-1.2,0.8c-0.3,0.3-0.5,0.7-0.7,1.1c-0.3,0.7-0.4,1.4-0.4,2.2
	c0,1,0.2,1.8,0.5,2.5s0.8,1.2,1.5,1.5s1.3,0.5,2.1,0.5c0.6,0,1.3-0.1,1.9-0.4c0.6-0.2,1.1-0.5,1.4-0.8v-2.1h-3.4V43.3z M149.6,43.7
	l1.5,0.4c-0.3,1.2-0.9,2.1-1.7,2.8c-0.8,0.6-1.8,0.9-2.9,0.9c-1.2,0-2.2-0.2-2.9-0.7s-1.3-1.2-1.7-2.1s-0.6-1.9-0.6-3
	c0-1.2,0.2-2.2,0.7-3c0.4-0.9,1.1-1.5,1.9-2c0.8-0.4,1.7-0.7,2.7-0.7c1.1,0,2,0.3,2.8,0.8c0.8,0.6,1.3,1.4,1.6,2.4l-1.5,0.3
	c-0.3-0.8-0.6-1.4-1.1-1.8s-1.1-0.6-1.8-0.6c-0.9,0-1.6,0.2-2.1,0.6c-0.6,0.4-1,1-1.2,1.6c-0.2,0.7-0.3,1.4-0.3,2.1
	c0,0.9,0.1,1.8,0.4,2.5c0.3,0.7,0.7,1.2,1.3,1.6s1.2,0.5,1.9,0.5c0.8,0,1.5-0.2,2.1-0.7C149,45.4,149.4,44.7,149.6,43.7 M152.4,42.2
	c0-1.8,0.5-3.3,1.5-4.3s2.3-1.6,3.8-1.6c1,0,1.9,0.2,2.8,0.7c0.8,0.5,1.5,1.2,1.9,2c0.4,0.9,0.6,1.9,0.6,3s-0.2,2.1-0.7,3
	s-1.1,1.6-1.9,2c-0.8,0.5-1.7,0.7-2.7,0.7s-2-0.3-2.8-0.8s-1.4-1.2-1.9-2.1C152.6,44.1,152.4,43.2,152.4,42.2 M153.9,42.2
	c0,1.3,0.4,2.4,1.1,3.2c0.7,0.8,1.6,1.1,2.7,1.1s2-0.4,2.7-1.2c0.7-0.8,1.1-1.9,1.1-3.3c0-0.9-0.2-1.7-0.5-2.4s-0.8-1.2-1.3-1.6
	c-0.6-0.4-1.2-0.6-2-0.6c-1,0-1.9,0.4-2.7,1.1C154.3,39.4,153.9,40.6,153.9,42.2 M165.1,46.1h1.6v1.6h-1.6V46.1z M169.4,47.6V46h1.6
	v1.6c0,0.6-0.1,1-0.3,1.4c-0.2,0.3-0.5,0.6-1,0.8l-0.4-0.6c0.3-0.1,0.5-0.3,0.6-0.6c0.1-0.2,0.2-0.6,0.2-1.1h-0.7L169.4,47.6z
	 M177.8,47.6V36.5h1.4v9.8h5.5v1.3L177.8,47.6z M189.3,47.6v-9.7h-3.7v-1.4h8.8v1.4h-3.6v9.7H189.3z M195.9,47.6V36.5h3.8
	c0.9,0,1.5,0.1,2,0.2c0.6,0.1,1.2,0.4,1.6,0.8c0.6,0.5,1,1.1,1.3,1.9S205,41,205,42c0,0.8-0.1,1.6-0.3,2.2c-0.2,0.7-0.5,1.2-0.8,1.6
	s-0.6,0.8-1,1s-0.8,0.4-1.3,0.6c-0.5,0.1-1.1,0.2-1.8,0.2L195.9,47.6L195.9,47.6z M197.4,46.3h2.4c0.7,0,1.3-0.1,1.7-0.2
	s0.7-0.3,1-0.6c0.3-0.3,0.6-0.8,0.8-1.4s0.3-1.3,0.3-2.1c0-1.2-0.2-2.1-0.6-2.7c-0.4-0.6-0.8-1-1.4-1.3c-0.4-0.1-1-0.2-1.9-0.2h-2.3
	V46.3L197.4,46.3z"/>
</svg>
