<svg xmlns="http://www.w3.org/2000/svg" viewBox="0 0 40 40"><path d="M30.33 11.78H9.67c-1.22 0-2.17.95-2.17 2.17v12.09c0 .15.01.31.04.46.21 1.02 1.07 1.72 2.13 1.72h20.65c1.23 0 2.18-.95 2.18-2.17V13.96c0-1.23-.95-2.18-2.17-2.18zm.17 2.49c-2.05 1.71-4.09 3.39-6.09 5.05l6.09 6.09v.63c0 .12-.05.17-.18.17h-.47c-2.09-2.09-4.16-4.16-6.24-6.23-.03.03-.08.07-.13.11-1.04.86-2.08 1.72-3.11 2.58-.26.22-.47.22-.73 0-.59-.49-1.18-.98-1.78-1.47-.49-.41-.99-.82-1.47-1.22-2.07 2.07-4.15 4.14-6.24 6.23h-.48c-.15 0-.16-.07-.17-.12v-.65c2.04-2.04 4.07-4.07 6.11-6.1-2.02-1.68-4.05-3.36-6.11-5.07v-.32c0-.12.05-.17.17-.17h.73c3.21 2.67 6.4 5.31 9.6 7.96 3.2-2.66 6.4-5.31 9.6-7.96h.73c.11 0 .17.05.17.17v.32z" fill="#595757"/></svg>