<?xml version="1.0" encoding="utf-8"?>
<!-- Generator: Adobe Illustrator 26.0.0, SVG Export Plug-In . SVG Version: 6.00 Build 0)  -->
<svg version="1.1" id="_x2014_ÎÓÈ_x5F_1" xmlns="http://www.w3.org/2000/svg" xmlns:xlink="http://www.w3.org/1999/xlink"
	 x="0px" y="0px" viewBox="0 0 1240.6 984" style="enable-background:new 0 0 1240.6 984;" xml:space="preserve">
<path id="molecule_1_" style="opacity:5.000000e-02;fill:#A7A9AC;" d="M30,849.3c0.7-0.2,1.4-0.6,1.9-1.1L56.8,870
	c-0.5,0.9-0.7,2-0.4,3c0.6,2,2.7,3.1,4.7,2.4c1.7-0.6,2.8-2.3,2.6-4l31.7-10.8c1.1,2.3,3.8,3.5,6.3,2.7c0.8-0.2,1.4-0.7,2-1.2
	l24.9,21.8c-0.7,1-0.9,2.3-0.5,3.6c0.7,2.2,3.1,3.5,5.4,2.8c2.1-0.7,3.3-2.9,2.9-5l31-10.5c1.1,2.4,3.8,3.6,6.3,2.8
	c2.8-0.9,4.3-3.8,3.4-6.6c-0.5-1.7-1.8-2.9-3.4-3.4l6.4-32.1c0.6,0.1,1.2,0,1.8-0.2c2.2-0.7,3.5-3,3-5.2l31.8-10.8
	c0.9,2.1,3.2,3.2,5.4,2.5c0.7-0.2,1.2-0.6,1.7-1l25.5,22.3c-0.6,0.9-0.8,2-0.4,3.2c0.6,2,2.7,3.1,4.7,2.4c1.8-0.6,2.8-2.3,2.6-4.1
	l32.7-11.1c0.9,2,3.2,3.1,5.4,2.4c0.7-0.2,1.2-0.6,1.7-1l25.8,22.7c-0.6,0.9-0.9,2.1-0.5,3.3c0.4,1.2,1.2,2,2.3,2.4l-6.7,33.2
	c-0.6,0-1.1,0-1.7,0.2c-2.3,0.7-3.6,3.2-2.9,5.6c0.7,2.3,3.2,3.6,5.6,2.9c0.6-0.2,1.1-0.5,1.5-0.9l24.7,21.8
	c-0.9,1.3-1.2,2.9-0.7,4.5c0.9,2.8,3.8,4.3,6.6,3.4c2.6-0.8,4.1-3.5,3.5-6.2l30.9-10.4c0.9,2.1,3.2,3.3,5.4,2.6
	c0.7-0.2,1.2-0.6,1.7-1l24.5,21.6c-0.8,1.3-1.1,2.9-0.6,4.5c0.9,2.8,3.8,4.3,6.6,3.4c2.6-0.8,4.1-3.4,3.6-6l31.8-10.7
	c0.8,1.7,2.7,2.5,4.5,2c2-0.6,3.1-2.7,2.4-4.7c-0.4-1.2-1.3-2.1-2.5-2.5l6.6-32.6c0.8,0.1,1.6,0.1,2.4-0.2c2.7-0.9,4.2-3.7,3.5-6.5
	l30.9-10.4c0.9,2.1,3.2,3.2,5.4,2.5c0.6-0.2,1.2-0.5,1.6-0.9l24.8,21.9c-0.7,1.1-0.9,2.4-0.5,3.7c0.7,2.3,3.2,3.6,5.6,2.9
	c2.1-0.7,3.3-2.7,3.1-4.8l32.6-11c0.9,1.5,2.7,2.2,4.4,1.7c0.4-0.1,0.8-0.4,1.2-0.6l25.9,22.8c-0.7,1.1-0.9,2.4-0.5,3.7
	c0.7,2.3,3.2,3.6,5.6,2.9c2.1-0.7,3.4-2.8,3-5l32.3-10.9c0.8,1.8,2.8,2.7,4.8,2.1c2.1-0.7,3.2-2.9,2.6-4.9c-0.4-1.3-1.4-2.2-2.5-2.5
	l6.7-33c0.5,0,1.1,0,1.7-0.2c2.5-0.8,3.8-3.4,3-5.9c-0.8-2.5-3.4-3.8-5.9-3c-0.5,0.2-1,0.4-1.4,0.8l-25.8-22.7
	c0.6-0.9,0.9-2.1,0.5-3.3c-0.6-2-2.7-3.1-4.7-2.4c-1.9,0.6-3,2.6-2.5,4.5L594,845.8c-1-2.5-3.8-3.9-6.5-3.1
	c-0.8,0.3-1.5,0.7-2.1,1.3l-24.9-22c0.5-0.9,0.7-2,0.3-3c-0.6-2-2.7-3.1-4.7-2.4c-1.7,0.6-2.8,2.3-2.6,4l-33.4,11.2
	c-0.9-1.5-2.7-2.3-4.4-1.7c-0.4,0.1-0.7,0.3-1,0.5l-26.3-23.2c0.6-0.9,0.9-2.1,0.5-3.3c-0.4-1.2-1.3-2-2.4-2.4l6.8-33.7
	c0.5,0,1,0,1.4-0.2c2.1-0.7,3.2-2.8,2.6-4.9l33.1-11.1c0.8,1.6,2.7,2.4,4.4,1.8c2-0.6,3.1-2.7,2.4-4.7c-0.4-1.2-1.3-2-2.3-2.4
	l6.6-32.6c0.6,0,1.3,0,1.9-0.2c2.7-0.8,4.2-3.6,3.5-6.2l31.3-10.5c0.9,2.2,3.4,3.4,5.7,2.7c0.7-0.2,1.2-0.6,1.7-1l25.2,22.2
	c-0.6,0.9-0.8,2.1-0.5,3.2c0.4,1.2,1.4,2.1,2.5,2.5l-6.9,34.3c-0.4,0-0.8,0-1.2,0.2c-2,0.6-3.1,2.7-2.4,4.7c0.6,2,2.7,3.1,4.7,2.4
	c0.4-0.1,0.8-0.3,1.1-0.6l25,22c-0.9,1.3-1.2,2.9-0.7,4.5c0.9,2.8,3.8,4.3,6.6,3.4c2.5-0.8,4-3.4,3.6-5.9l31.7-10.7
	c0.8,1.6,2.7,2.5,4.5,1.9c2-0.6,3.1-2.7,2.4-4.7c-0.4-1.1-1.2-2-2.3-2.4l6.7-33.5c0.6,0.1,1.2,0,1.8-0.2c2.5-0.8,3.8-3.4,3-5.9
	c-0.8-2.5-3.4-3.8-5.9-3c-0.7,0.2-1.2,0.6-1.7,1l-24.4-21.5c1-1.3,1.4-3.1,0.9-4.8c-0.6-1.7-1.9-3-3.6-3.5l6.6-32.6
	c0.5,0.1,1,0,1.5-0.2c1.9-0.6,2.9-2.5,2.5-4.4l32.3-10.9c1,2.1,3.4,3.2,5.6,2.5c0.6-0.2,1.1-0.5,1.6-0.9l24.8,21.9
	c-0.7,1.1-0.9,2.5-0.5,3.8c0.8,2.5,3.4,3.8,5.9,3c2.2-0.7,3.6-3,3.2-5.2l30.7-10.3c1.1,2.4,3.8,3.6,6.4,2.8c0.7-0.2,1.4-0.6,1.9-1.1
	l25.2,22.2c-0.5,0.9-0.7,2-0.4,3.1c0.4,1.1,1.2,2,2.2,2.4l-6.7,33c-0.6,0-1.3,0-1.9,0.2c-2.8,0.9-4.3,3.8-3.4,6.6
	c0.9,2.8,3.8,4.3,6.6,3.4c0.7-0.2,1.4-0.6,1.9-1.1l24.3,21.4c-0.7,1.1-0.9,2.5-0.5,3.9c0.8,2.5,3.4,3.8,5.9,3c2.3-0.7,3.6-3,3.2-5.3
	l31.3-10.5c1,2.1,3.4,3.2,5.6,2.5c0.6-0.2,1.2-0.5,1.7-0.9l25.8,22.8c-0.5,0.8-0.6,1.9-0.3,2.9c0.6,1.9,2.7,3,4.6,2.4
	c1.8-0.6,2.8-2.4,2.5-4.2l32-10.8c1.1,1.9,3.3,2.9,5.5,2.2c2.5-0.8,3.8-3.4,3-5.9c-0.5-1.4-1.5-2.5-2.8-3l6.7-33.5
	c0.5,0.1,1,0,1.5-0.1c1.8-0.6,2.8-2.3,2.6-4.1l31.4-10.6c1.1,2.3,3.8,3.6,6.3,2.8c0.8-0.2,1.4-0.6,1.9-1.1l25.1,22.1
	c-0.6,0.9-0.9,2.1-0.5,3.2c0.6,2,2.7,3.1,4.7,2.4c1.8-0.6,2.8-2.4,2.6-4.2l32.4-10.9c1,2,3.3,3,5.5,2.3c2.5-0.8,3.8-3.4,3-5.9
	c-0.5-1.4-1.5-2.5-2.8-3l6.4-31.8c0.8,0.1,1.6,0.1,2.3-0.2c2.8-0.9,4.3-3.8,3.4-6.6c-0.9-2.8-3.8-4.3-6.6-3.4
	c-0.8,0.3-1.5,0.7-2.1,1.2l-25.3-22.3c0.6-0.9,0.8-2,0.4-3.2c-0.6-2-2.7-3.1-4.7-2.4c-1.8,0.6-2.9,2.4-2.5,4.3l-33.3,11.2
	c-0.8-1.7-2.7-2.6-4.5-2c-0.5,0.2-0.9,0.4-1.3,0.7l-25.5-22.5c0.8-1.1,1-2.6,0.6-4c-0.8-2.5-3.4-3.8-5.9-3c-2.3,0.7-3.6,3.1-3.1,5.4
	l-30.1,10.1c-1.2-2.8-4.4-4.3-7.3-3.4c-3.2,1-4.9,4.4-3.9,7.5c0.6,2,2.2,3.4,4,3.9l-6.3,31.3c-0.6,0-1.2,0-1.8,0.2
	c-2.3,0.7-3.6,3.1-3.1,5.4L882.1,710c-0.8-1.5-2.7-2.3-4.4-1.7c-0.4,0.1-0.8,0.3-1.1,0.6l-24.7-21.8c1.1-1.5,1.6-3.5,1-5.5
	c-0.6-2-2.2-3.4-4-3.9l6.4-32c0.4,0,0.8,0,1.3-0.2c1.8-0.6,2.9-2.4,2.5-4.3l32.4-10.9c1,2.1,3.4,3.2,5.6,2.5c2.5-0.8,3.8-3.4,3-5.9
	c-0.5-1.5-1.7-2.6-3.1-3l6.3-31.4c0.8,0.1,1.6,0,2.4-0.2c3-0.9,4.7-4,4.1-7l31.2-10.5c0.8,1.8,2.9,2.7,4.8,2.1
	c0.4-0.1,0.8-0.3,1.1-0.6l24.3,21.5c-1.4,1.5-1.9,3.7-1.3,5.8c1,3.2,4.4,4.9,7.5,3.9c3.2-1,4.9-4.4,3.9-7.5l30.6-10.3
	c1,2,3.3,3.1,5.6,2.4c2.5-0.8,3.8-3.4,3-5.9c-0.5-1.5-1.6-2.5-2.9-3l6.2-30.9c0.8,0.1,1.7,0,2.5-0.2c3.1-1,4.8-4.2,4-7.3l28.9-9.7
	c1.2,2.8,4.4,4.2,7.3,3.3c0.9-0.3,1.6-0.7,2.3-1.3l24.5,21.6c-0.6,0.9-0.8,2-0.4,3.1c0.6,2,2.7,3.1,4.7,2.4c1.8-0.6,2.8-2.3,2.6-4.1
	l31.4-10.6c1.2,2.8,4.4,4.3,7.3,3.4c0.8-0.3,1.5-0.7,2.1-1.2l24.2,21.3c-0.5,0.9-0.7,2-0.4,3c0.6,2,2.7,3.1,4.7,2.4
	c1.7-0.5,2.7-2.2,2.6-3.9l31.1-10.5c1.3,2.6,4.3,4,7.2,3.1c3.2-1,4.9-4.4,3.9-7.5c-0.6-1.9-2.1-3.3-3.8-3.9l6.4-31.7
	c0.4,0,0.9,0,1.3-0.2c2-0.6,3.1-2.7,2.4-4.7c-0.6-2-2.7-3.1-4.7-2.4c-0.4,0.1-0.8,0.3-1.1,0.6l-24.6-21.7c1.1-1.5,1.5-3.5,0.9-5.4
	c-1-3.2-4.4-4.9-7.5-3.9c-3,1-4.7,4.1-4,7.1l-31.2,10.5c-0.8-1.5-2.7-2.3-4.4-1.8c-0.5,0.1-0.9,0.4-1.2,0.7l-25.8-22.7
	c0.7-1.1,1-2.4,0.6-3.8c-0.7-2.3-3.2-3.5-5.4-2.8c-2.1,0.7-3.3,2.8-2.9,4.9l-32.6,11c-0.8-1.7-2.7-2.5-4.5-2c-0.5,0.2-1,0.4-1.4,0.8
	l-24.5-21.6c1.2-1.5,1.6-3.5,1-5.5c-0.6-2-2.2-3.4-4.1-4l6.4-31.7c0.4,0,0.9,0,1.3-0.2c1.9-0.6,3-2.6,2.5-4.5l32.7-11
	c0.9,1.9,3.1,2.9,5.2,2.2c2.3-0.7,3.5-3.2,2.8-5.4c-0.4-1.4-1.5-2.4-2.8-2.8l6.8-33.7c0.4,0,0.7,0,1.1-0.2c1.8-0.6,2.9-2.4,2.5-4.2
	l32.4-10.9c1,2,3.3,3,5.5,2.3c2.5-0.8,3.8-3.4,3-5.9c-0.5-1.4-1.6-2.5-2.9-3l6.7-33.2c0.4,0,0.8,0,1.2-0.2c2-0.6,3.1-2.7,2.4-4.7
	c-0.6-2-2.7-3.1-4.7-2.4c-0.4,0.1-0.8,0.3-1.1,0.6l-26.3-23.1c0.7-0.9,0.9-2.1,0.5-3.3c-0.6-2-2.7-3.1-4.7-2.4
	c-1.8,0.6-2.9,2.5-2.5,4.3l-32.5,10.9c-1-2-3.3-3.1-5.6-2.4c-2.5,0.8-3.8,3.4-3,5.9c0.5,1.5,1.6,2.6,3,3l-6.7,33.3
	c-0.5,0-0.9,0-1.4,0.2c-1.8,0.6-2.9,2.4-2.5,4.3l-33.2,11.2c-0.8-1.6-2.7-2.3-4.4-1.8c-2,0.6-3.1,2.7-2.4,4.7c0.4,1.2,1.3,2,2.4,2.4
	l-6.7,33.3c-0.6-0.1-1.3,0-1.9,0.2c-2.3,0.7-3.6,3.1-3.1,5.5l-30,10.1c-1.3-2.7-4.3-4.1-7.2-3.2c-0.9,0.3-1.6,0.7-2.2,1.3L949.1,381
	c0.5-0.9,0.7-2,0.4-3.1c-0.6-2-2.7-3.1-4.7-2.4c-1.8,0.6-2.8,2.3-2.6,4.1L910,390.4c-1-2.1-3.4-3.2-5.6-2.5c-2.5,0.8-3.8,3.4-3,5.9
	c0.5,1.5,1.6,2.5,3,3l-6.7,33.3c-0.4,0-0.8,0-1.2,0.2c-2,0.6-3.1,2.7-2.4,4.7c0.6,2,2.7,3.1,4.7,2.4c0.4-0.1,0.8-0.3,1.1-0.6
	l26.3,23.2c-0.6,0.9-0.8,2-0.4,3.1c0.6,2,2.7,3.1,4.7,2.4c1.8-0.6,2.9-2.4,2.5-4.3l32.2-10.8c1,2,3.3,3.1,5.6,2.4
	c0.6-0.2,1.2-0.5,1.7-0.9l25.6,22.5c-0.6,0.9-0.8,2-0.4,3.2c0.4,1.2,1.3,2.1,2.4,2.4l-6.5,32.3c-0.8-0.1-1.6,0-2.4,0.2
	c-3,1-4.7,4.1-4,7.1l-30.1,10.1c-1-2-3.3-3.1-5.6-2.4c-0.6,0.2-1.2,0.5-1.6,0.9l-24.8-21.8c0.9-1.2,1.2-2.7,0.7-4.2
	c-0.8-2.5-3.4-3.8-5.9-3c-2.3,0.7-3.6,3-3.2,5.3l-30.4,10.2c-1.2-2.8-4.4-4.4-7.3-3.4c-3.2,1-4.9,4.4-3.9,7.5c0.6,2,2.2,3.4,4.1,4
	l-6.5,32.2c-0.4,0-0.9,0-1.3,0.1c-1.8,0.6-2.8,2.4-2.3,4.2l-33.4,11.2c-0.9-1.7-2.9-2.6-4.8-2c-2.1,0.7-3.3,2.9-2.6,5
	c0.4,1.3,1.4,2.2,2.6,2.6l-6.5,32.4c-0.7-0.1-1.4,0-2.1,0.2c-2.7,0.8-4.2,3.6-3.5,6.3l-30.3,10.2c-0.9-2.2-3.4-3.4-5.7-2.7
	c-0.9,0.3-1.6,0.8-2.1,1.4l-25.6-22.6c0.5-0.9,0.7-2,0.4-3c-0.6-2-2.7-3.1-4.7-2.4c-1.8,0.6-2.8,2.3-2.6,4.1l-30.7,10.3
	c-1.2-2.7-4.3-4.2-7.3-3.3c-1,0.3-1.8,0.8-2.5,1.5l-24.8-21.9c0.5-0.9,0.7-2,0.4-3c-0.4-1.1-1.2-1.9-2.2-2.3l7-34.6
	c0.4,0,0.9,0,1.3-0.2c1.8-0.6,2.8-2.4,2.6-4.2l32.1-10.8c1,2,3.3,3,5.5,2.3c2.5-0.8,3.8-3.4,3-5.9c-0.4-1.4-1.5-2.4-2.8-2.9
	l6.7-33.4c0.4,0,0.9,0,1.3-0.2c1.8-0.6,2.9-2.4,2.5-4.2l31.8-10.7c1.1,2.4,3.8,3.6,6.3,2.8c0.8-0.3,1.5-0.7,2.1-1.2l24.9,21.9
	c-0.7,1-0.9,2.3-0.5,3.5c0.7,2.1,2.9,3.3,5,2.6c1.9-0.6,3-2.5,2.7-4.5l32.3-10.9c1,2.1,3.4,3.2,5.6,2.5c2.5-0.8,3.8-3.4,3-5.9
	c-0.5-1.5-1.7-2.6-3.1-3.1l6.3-31.1c0.8,0.1,1.6,0,2.4-0.3c3.2-1,4.9-4.4,3.9-7.5c-1-3.2-4.4-4.9-7.5-3.9c-0.9,0.3-1.6,0.7-2.2,1.3
	l-24.7-21.8c0.5-0.8,0.7-1.9,0.4-2.9c-0.6-1.8-2.5-2.9-4.4-2.3c-1.7,0.5-2.7,2.2-2.4,3.9l-33.5,11.3c-0.8-1.7-2.7-2.6-4.5-2
	c-0.5,0.2-0.9,0.4-1.3,0.7l-25-22.1c0.9-1.3,1.2-3,0.7-4.6c-0.9-2.8-3.9-4.4-6.7-3.5c-2.7,0.8-4.2,3.6-3.6,6.3L717,416.6
	c-0.9-1.9-3.1-2.8-5.2-2.2c-2.3,0.7-3.6,3.2-2.8,5.4c0.4,1.4,1.5,2.4,2.8,2.8l-6.5,32c-0.7-0.1-1.5,0-2.2,0.2
	c-2.7,0.8-4.2,3.6-3.5,6.3l-31,10.4c-1-2-3.3-3-5.5-2.3c-2.5,0.8-3.8,3.4-3,5.9c0.5,1.5,1.6,2.5,2.9,3l-6.3,31.3
	c-0.8-0.1-1.6,0-2.3,0.3c-2.9,0.9-4.7,3.9-4.1,6.9l-29.7,10c-1.1-2.3-3.8-3.5-6.3-2.7c-0.7,0.2-1.3,0.5-1.8,1l-23.9-21.1
	c1-1.3,1.4-3.1,0.8-4.8c-0.9-2.8-3.8-4.3-6.6-3.4c-2.6,0.8-4.1,3.5-3.5,6.1L548,512.3c-0.9-2.1-3.4-3.3-5.7-2.6
	c-0.6,0.2-1.2,0.5-1.6,0.9l-25-22c0.7-1,0.9-2.2,0.5-3.4c-0.4-1.4-1.6-2.4-2.9-2.7l6.5-32.2c0.7,0.1,1.5,0,2.3-0.3
	c3.2-1,4.9-4.4,3.9-7.5c-1-3.2-4.4-4.9-7.5-3.9c-0.9,0.3-1.7,0.8-2.3,1.4L492,418.7c0.7-1,0.9-2.2,0.5-3.5c-0.7-2.1-2.9-3.3-5-2.6
	c-1.9,0.6-3.1,2.6-2.7,4.5l-31.2,10.5c-1.1-2.4-3.8-3.6-6.3-2.8c-2.8,0.9-4.3,3.8-3.4,6.6c0.5,1.6,1.7,2.7,3.1,3.3l-6.2,31
	c-0.8-0.1-1.6,0-2.3,0.3c-3.2,1-4.9,4.4-3.9,7.5c1,3.2,4.4,4.9,7.5,3.9c0.9-0.3,1.7-0.8,2.4-1.4l23.7,20.9c-1,1.2-1.4,2.8-0.9,4.4
	c0.5,1.6,1.8,2.7,3.2,3.1l-6.3,31.4c-0.7-0.1-1.5,0-2.2,0.2c-2.8,0.9-4.3,3.8-3.4,6.6c0.9,2.8,3.8,4.3,6.6,3.4
	c0.8-0.2,1.4-0.7,2-1.2l24.9,22c-0.7,1-0.9,2.2-0.5,3.4c0.7,2.1,2.9,3.3,5,2.6c1.9-0.6,3-2.5,2.7-4.4l32.4-10.9
	c1,2.1,3.4,3.2,5.6,2.5c0.6-0.2,1.1-0.5,1.6-0.9l24.8,21.8c-0.7,1.1-1,2.6-0.6,4c0.8,2.5,3.4,3.8,5.9,3c2.3-0.7,3.6-3,3.2-5.3
	l32.2-10.8c0.9,1.7,2.9,2.6,4.8,2c0.5-0.2,0.9-0.4,1.3-0.7l25.1,22.1c-1,1.3-1.3,3-0.8,4.7c0.5,1.7,1.8,2.9,3.4,3.4l-6.4,31.5
	c-0.5,0-1.1,0-1.6,0.2c-2.4,0.8-3.7,3.2-3.1,5.6l-32.5,10.9c-0.8-1.6-2.7-2.5-4.5-1.9c-0.5,0.2-0.9,0.4-1.3,0.7L562.9,628
	c0.8-1.1,1.1-2.6,0.6-4.1c-0.8-2.5-3.4-3.8-5.9-3c-2.3,0.7-3.7,3.1-3.1,5.5l-32.1,10.8c-0.8-1.6-2.7-2.4-4.4-1.8
	c-2,0.6-3.1,2.7-2.4,4.7c0.4,1.1,1.2,1.9,2.2,2.3l-7,34.5c-0.4,0-0.7,0-1.1,0.2c-1.8,0.6-2.8,2.3-2.6,4l-32,10.8
	c-1.2-2.2-3.8-3.3-6.2-2.5c-2.8,0.9-4.3,3.8-3.4,6.6c0.5,1.6,1.7,2.8,3.2,3.3l-6.2,30.8c-0.7-0.1-1.4,0-2.1,0.2
	c-2.7,0.9-4.2,3.7-3.5,6.4l-31.6,10.7c-0.9-1.6-2.8-2.4-4.7-1.8c-0.5,0.1-0.9,0.4-1.2,0.7L395,724.9c1-1.5,1.4-3.4,0.8-5.3
	c-1-3.2-4.4-4.9-7.5-3.9c-2.9,0.9-4.6,3.9-4.1,6.8l-29.5,9.9c-1.2-2.2-3.8-3.4-6.2-2.6c-2.8,0.9-4.3,3.8-3.4,6.6
	c0.5,1.6,1.7,2.8,3.2,3.3l-6.6,32.7c-0.5,0-1,0-1.4,0.2c-1.8,0.6-2.9,2.5-2.5,4.3l-32,10.8c-1.1-2.4-3.8-3.6-6.3-2.8
	c-0.8,0.3-1.5,0.7-2,1.2l-23.9-20.9c1-1.3,1.4-3.1,0.8-4.8c-0.9-2.8-3.8-4.3-6.6-3.4c-2.6,0.8-4.1,3.5-3.5,6.2L232.3,774
	c-0.8-1.6-2.7-2.5-4.5-1.9c-0.6,0.2-1,0.5-1.4,0.9l-24.6-21.5c1.1-1.5,1.5-3.5,0.9-5.4c-0.6-2-2.2-3.4-4.1-4l6.4-32.1
	c0.4,0,0.8,0,1.2-0.2c2-0.6,3.1-2.7,2.4-4.7c-0.6-2-2.7-3.1-4.7-2.4c-0.5,0.2-0.9,0.4-1.3,0.7l-26-22.8c0.7-1,0.9-2.3,0.5-3.5
	c-0.7-2.1-2.9-3.3-5-2.6c-2,0.6-3.1,2.7-2.7,4.6L138,689.8c-1.2-2.2-3.8-3.4-6.3-2.6c-2.8,0.9-4.3,3.8-3.4,6.6
	c0.5,1.7,1.8,2.9,3.3,3.4l-6.5,32.7c-0.4,0-0.9,0-1.3,0.2c-2,0.6-3.1,2.7-2.4,4.7c0.6,2,2.7,3.1,4.7,2.4c0.5-0.2,0.9-0.4,1.3-0.7
	l25,21.9c-0.9,1.3-1.2,3-0.7,4.6c0.6,1.8,2,3,3.6,3.5l-6.2,31.4c-0.6,0-1.3,0-1.9,0.2c-2.6,0.8-4.1,3.5-3.5,6.2l-30.6,10.4
	c-1.1-2.4-3.8-3.7-6.4-2.9c-0.8,0.2-1.4,0.6-2,1.2l-24.6-21.6c0.7-1.1,0.9-2.4,0.5-3.7c-0.7-2.3-3.2-3.6-5.6-2.9
	c-2.2,0.7-3.4,2.9-3,5.1l-32.3,11c-0.9-1.5-2.7-2.3-4.4-1.7c-2,0.6-3.1,2.7-2.4,4.7c0.4,1.1,1.2,2,2.2,2.3l-6.5,32.8
	c-0.6,0-1.2,0-1.8,0.2c-2.8,0.9-4.3,3.8-3.4,6.6C24.2,848.7,27.2,850.2,30,849.3z M172.7,867.5c-0.7-0.1-1.5-0.1-2.3,0.2
	c-2.7,0.8-4.1,3.6-3.5,6.2l-31,10.5c-0.9-1.8-3.1-2.8-5.1-2.1c-0.6,0.2-1.2,0.6-1.6,1l-24.9-21.8c0.9-1.3,1.3-3,0.8-4.7
	c-0.5-1.7-1.8-2.9-3.4-3.4l6.2-31.3c0.6,0,1.3,0,2-0.2c2.7-0.8,4.2-3.6,3.5-6.2l30.6-10.4c1.1,2.4,3.8,3.7,6.4,2.9
	c0.7-0.2,1.4-0.6,1.9-1.1l23.6,20.6l1.1,0.9c-0.8,1.1-1,2.5-0.6,3.9c0.4,1.4,1.5,2.4,2.8,2.9L172.7,867.5z M296.4,834.1
	c0.7-1.1,1-2.5,0.6-3.8c-0.5-1.5-1.6-2.5-3-2.9l6.4-32.2c0.7,0.1,1.3,0,2-0.2c2.7-0.8,4.2-3.6,3.5-6.3l32-10.8
	c0.8,1.6,2.7,2.4,4.5,1.9c0.5-0.2,0.9-0.4,1.3-0.7l25,22.1c-0.8,1.3-1.1,2.9-0.6,4.5c0.5,1.7,1.9,3,3.5,3.5l-6.5,32.3
	c-0.5,0-1.1,0-1.7,0.2c-2.2,0.7-3.5,2.9-3,5.2l-32.7,11c-0.9-1.4-2.6-2.1-4.3-1.6c-0.5,0.2-0.9,0.4-1.3,0.7L296.4,834.1z
	 M408.9,792.8c1.1,2.4,3.8,3.7,6.4,2.9c0.7-0.2,1.3-0.6,1.8-1l24.4,21.5c-0.7,1.1-1,2.5-0.6,3.8c0.5,1.4,1.6,2.5,2.9,2.9l-6.5,32.3
	c-0.6,0-1.2,0-1.8,0.2c-2.6,0.8-4.1,3.4-3.6,6l-31.8,10.7c-0.8-1.6-2.7-2.4-4.5-1.9c-0.5,0.2-1,0.4-1.4,0.8l-25.9-22.8
	c0.7-1.1,1-2.5,0.6-3.8c-0.5-1.4-1.6-2.5-2.9-2.9l6.5-32.3c0.7,0.1,1.4,0,2.1-0.2c2.6-0.8,4-3.4,3.6-5.9L408.9,792.8z M319.9,903.4
	c0.8-1.1,1.1-2.6,0.7-4c-0.5-1.4-1.6-2.5-2.9-2.9l6.7-33.1c0.5,0,1,0,1.4-0.2c1.9-0.6,3-2.6,2.5-4.6l32.6-11c0.9,1.9,3.2,3,5.3,2.3
	c0.7-0.2,1.2-0.6,1.7-1l25.9,22.9c-0.6,0.9-0.8,2.1-0.4,3.2c0.3,1.1,1.2,1.9,2.2,2.3l-6.8,33.9c-0.5,0-1.1,0-1.6,0.2
	c-2.1,0.7-3.4,2.8-3,4.9L353,926.8c-1.1-2.4-3.8-3.8-6.4-2.9c-0.8,0.3-1.5,0.7-2.1,1.3L319.9,903.4z M460.6,926.3
	c-0.4,0-0.8,0-1.2,0.2c-1.8,0.6-2.9,2.4-2.5,4.2l-31.7,10.7c-1-2.5-3.8-3.9-6.4-3.1c-0.9,0.3-1.6,0.8-2.2,1.4L392,918.2
	c0.7-1.1,1-2.5,0.6-3.8c-0.5-1.4-1.6-2.5-2.9-2.9l6.8-33.8c0.5,0.1,1,0,1.5-0.1c1.8-0.6,2.9-2.5,2.5-4.3l31.7-10.7
	c1,2.5,3.8,3.9,6.4,3c0.7-0.2,1.4-0.6,1.9-1.1l24.1,21.2c-0.9,1.3-1.2,3-0.7,4.6c0.5,1.6,1.8,2.8,3.2,3.3L460.6,926.3z M657.4,859.8
	c-1,1.2-1.4,2.8-0.9,4.4c0.5,1.6,1.7,2.7,3.2,3.1l-6.6,33c-0.5,0-0.9,0-1.4,0.2c-1.9,0.6-3,2.5-2.7,4.4l-32.3,10.9
	c-0.9-2.1-3.2-3.2-5.4-2.5c-0.7,0.2-1.3,0.6-1.7,1.1l-25.8-22.7c0.7-0.9,0.9-2.2,0.6-3.4c-0.4-1.1-1.2-1.9-2.2-2.3l6.6-32.8
	c0.7,0.1,1.4,0,2.1-0.2c2.6-0.8,4.1-3.4,3.6-6l31.7-10.7c0.8,1.5,2.7,2.3,4.4,1.8c0.5-0.2,0.9-0.4,1.3-0.7L657.4,859.8z
	 M584.8,844.8c-0.9,1.3-1.2,2.9-0.7,4.6c0.5,1.7,1.9,3,3.5,3.5l-6.6,32.8c-0.5,0-1,0-1.5,0.2c-1.9,0.6-3,2.6-2.5,4.6l-32.4,10.9
	c-0.8-2.2-3.2-3.4-5.5-2.7c-0.7,0.2-1.3,0.6-1.8,1.1l-24.8-21.9c0.8-1.1,1.1-2.5,0.6-3.9c-0.5-1.5-1.7-2.5-3.1-2.9l6.7-33.5
	c0.4,0,0.8,0,1.2-0.2c1.9-0.6,3-2.6,2.5-4.5l33.3-11.2c0.7,1.8,2.7,2.8,4.6,2.2c0.6-0.2,1.1-0.5,1.5-0.9L584.8,844.8z M514.1,831.3
	c-0.8,0.9-1.1,2.3-0.7,3.5c0.4,1.2,1.3,2.1,2.5,2.4l-6.7,33.5c-0.5,0-1,0-1.5,0.2c-2.1,0.7-3.4,2.8-3,4.9l-31,10.4
	c-1.1-2.3-3.8-3.4-6.3-2.6c-0.8,0.2-1.5,0.7-2,1.2l-24-21.2c1-1.3,1.3-3,0.8-4.7c-0.6-1.8-2.1-3.1-3.8-3.5l6.5-32.2
	c0.6,0,1.1,0,1.7-0.2c2.2-0.7,3.4-2.9,3-5.1l32.6-11c0.8,1.6,2.7,2.5,4.5,1.9c0.5-0.2,0.9-0.4,1.3-0.7L514.1,831.3z M485.7,801.6
	c-0.4,0-0.9,0-1.4,0.2c-1.8,0.6-2.9,2.4-2.5,4.3l-30.9,10.4l-1.7,0.6c-0.9-2-3.2-3.1-5.4-2.5c-0.6,0.2-1.2,0.5-1.7,1L417.7,794
	c1.1-1.3,1.5-3.1,0.9-4.9c-0.6-1.8-2-3.1-3.7-3.5l6.5-32.2c0.5,0,1,0,1.5-0.2c2.1-0.6,3.2-2.8,2.6-4.9l31.6-10.7
	c1.1,2.3,3.8,3.5,6.3,2.7c0.7-0.2,1.3-0.6,1.8-1l25.1,22.2c-0.8,1-1.1,2.4-0.7,3.7c0.4,1.3,1.4,2.2,2.6,2.6L485.7,801.6z M682.6,735
	c-0.8,1.2-1.1,2.7-0.7,4.1c0.5,1.5,1.7,2.6,3.1,3l-6.7,33.4c-0.5,0-1,0-1.5,0.2c-1.8,0.6-2.9,2.4-2.5,4.3l-31.6,10.6
	c-1-2.6-3.8-4-6.5-3.2c-0.8,0.3-1.6,0.7-2.1,1.3l-24.9-21.9c0.7-0.9,1-2.2,0.6-3.4c-0.4-1.3-1.4-2.1-2.6-2.5l6.9-34.2
	c0.4,0,0.8,0,1.2-0.2c1.8-0.6,2.8-2.3,2.6-4.1l32.1-10.8c1.1,2.3,3.8,3.6,6.3,2.8c0.7-0.2,1.3-0.6,1.9-1L682.6,735z M655.2,704.2
	c-0.7-0.1-1.4,0-2.1,0.2c-2.7,0.9-4.2,3.7-3.5,6.4l-32,10.8c-0.8-1.7-2.7-2.7-4.6-2.1c-0.5,0.2-0.9,0.4-1.3,0.7l-25.2-22.2
	c0.8-1.2,1.1-2.6,0.7-4.1c-0.5-1.6-1.7-2.7-3.2-3.1l6.8-33.6c0.4,0,0.9,0,1.3-0.2c1.8-0.6,2.9-2.4,2.5-4.3l32.5-10.9
	c1,2,3.3,3.1,5.6,2.4c0.6-0.2,1-0.5,1.5-0.8l25.8,22.7c-0.5,0.9-0.7,2-0.4,3.1c0.4,1.1,1.2,2,2.2,2.4L655.2,704.2z M943,762.9
	c-0.7-0.1-1.4-0.1-2.1,0.2c-2.4,0.8-3.8,3.3-3.1,5.8l-32,10.8c-0.8-1.6-2.6-2.4-4.4-1.9c-0.6,0.2-1.1,0.5-1.5,0.9l-25.7-22.7
	c0.9-1.2,1.2-2.7,0.7-4.2c-0.5-1.5-1.6-2.6-3-3l6.7-33.1c0.4,0,0.9,0,1.3-0.2c1.9-0.6,3-2.6,2.5-4.5l32.3-10.9
	c1,2.1,3.4,3.3,5.6,2.6c0.7-0.2,1.2-0.6,1.7-1l25.6,22.6c-0.4,0.8-0.5,1.9-0.2,2.8c0.4,1.1,1.2,1.9,2.2,2.3L943,762.9z
	 M1067.4,682.7c-0.9,1.3-1.2,3-0.7,4.6c0.5,1.6,1.8,2.8,3.3,3.4l-6.4,31.7c-0.7-0.1-1.4-0.1-2,0.2c-2.4,0.8-3.7,3.3-3.1,5.7
	l-32.3,10.9c-0.8-1.7-2.7-2.6-4.5-2c-0.5,0.2-0.9,0.4-1.3,0.7l-25.1-22.1c1-1.3,1.4-3.1,0.8-4.7c-0.5-1.7-1.8-2.9-3.4-3.4l6.6-32.8
	c0.4,0,0.8,0,1.2-0.2c1.8-0.6,2.8-2.3,2.6-4.1l33.3-11.2c0.8,1.6,2.7,2.5,4.5,1.9c0.5-0.2,1-0.4,1.4-0.8L1067.4,682.7z M926.7,662.5
	c0.8,0.1,1.7,0,2.5-0.2c3-1,4.8-4.1,4-7.1l30-10.1c0.9,2.2,3.4,3.3,5.7,2.6c0.7-0.2,1.3-0.6,1.8-1.1l25.4,22.4
	c-0.6,0.9-0.9,2.1-0.5,3.3c0.4,1.2,1.4,2.1,2.5,2.5l-6.6,32.7c-0.7-0.1-1.5,0-2.2,0.2c-2.7,0.8-4.2,3.7-3.5,6.3l-31.4,10.6
	c-0.8-1.7-2.7-2.6-4.5-2.1c-0.6,0.2-1.1,0.5-1.5,1l-25.6-22.6c0.8-1.1,1-2.6,0.6-4c-0.5-1.5-1.7-2.6-3.1-3.1L926.7,662.5z
	 M875.9,709.6c-0.7,0.9-1,2.2-0.6,3.4c0.4,1.2,1.3,2,2.4,2.4l-6.7,33.1c-0.6,0-1.2,0-1.8,0.2c-2.3,0.7-3.7,3.1-3.1,5.5l-31.2,10.5
	c-0.9-2.2-3.4-3.4-5.7-2.7c-0.8,0.2-1.4,0.7-1.9,1.2l-24.2-21.4c1-1.3,1.4-3.1,0.8-4.8c-0.6-1.8-2-3.1-3.7-3.5l6.6-32.9
	c0.5,0,1,0,1.5-0.2c1.8-0.6,2.9-2.4,2.5-4.2l31-10.4c1.2,2.7,4.3,4.2,7.3,3.2c0.9-0.3,1.6-0.7,2.3-1.3L875.9,709.6z M847.8,677.5
	c-0.8-0.1-1.7,0-2.5,0.2c-3.1,1-4.8,4.2-4,7.2l-30.9,10.4c-0.8-1.7-2.7-2.5-4.5-2c-0.6,0.2-1,0.5-1.4,0.9l-25.1-22.2
	c1-1.3,1.4-3.1,0.8-4.8c-0.5-1.7-1.9-3-3.5-3.5l6.5-32.3c0.7,0.1,1.4,0.1,2.2-0.1c2.3-0.7,3.6-3,3.2-5.2l30.3-10.2
	c1.1,2.4,3.8,3.7,6.4,2.8c0.7-0.2,1.4-0.6,1.9-1.1l25.1,22.2c-0.6,0.9-0.8,2.1-0.5,3.2c0.4,1.2,1.3,2.1,2.5,2.4L847.8,677.5z
	 M1016.7,583.1c-0.6-0.1-1.3,0-1.9,0.2c-2.4,0.8-3.7,3.2-3.1,5.6l-30.6,10.3c-1.3-2.6-4.3-3.9-7.1-3c-0.7,0.2-1.4,0.6-1.9,1
	l-24.3-21.5c0.8-1,1.2-2.4,0.7-3.7c-0.4-1.4-1.5-2.3-2.8-2.7l6.6-32.8c0.6,0.1,1.2,0,1.8-0.2c2.4-0.7,3.7-3.2,3.1-5.6l30.1-10.1
	c1.2,2.8,4.4,4.3,7.3,3.4c0.9-0.3,1.7-0.8,2.3-1.4l22.9,20.2c-1.1,1.5-1.5,3.5-0.9,5.4c0.6,2,2.2,3.4,4,4L1016.7,583.1z
	 M1214.1,518.2c-0.7,0.9-1,2.2-0.6,3.4c0.4,1.2,1.3,2.1,2.4,2.4l-6.4,31.7c-0.9-0.1-1.8-0.1-2.7,0.2c-3.1,1-4.9,4.3-3.9,7.4
	l-30.9,10.4c-0.7-1.9-2.7-2.9-4.6-2.3c-0.6,0.2-1,0.5-1.5,0.9l-24.1-21.3c1.2-1.5,1.7-3.6,1.1-5.6c-0.7-2.1-2.4-3.6-4.4-4l6.4-31.8
	c0.5,0,0.9,0,1.4-0.2c1.9-0.6,3-2.6,2.5-4.4l31.1-10.5c1.2,2.8,4.4,4.4,7.3,3.4c0.9-0.3,1.7-0.8,2.3-1.4L1214.1,518.2z
	 M1142.1,503.7c-0.7,0.9-0.9,2.1-0.5,3.3c0.4,1.2,1.3,2,2.3,2.4l-6.4,31.9c-0.7,0-1.4,0-2.2,0.3c-3,1-4.7,4.1-4,7.1l-31.3,10.6
	c-0.8-1.7-2.7-2.7-4.5-2.1c-0.5,0.2-1,0.5-1.4,0.8l-24.4-21.5c1.2-1.5,1.6-3.5,1-5.5c-0.6-2-2.2-3.4-4.1-4l6.5-32.1
	c0.5,0,0.9,0,1.4-0.2c1.8-0.6,2.9-2.4,2.5-4.2l32.6-11c0.9,2,3.1,3.1,5.3,2.4c0.6-0.2,1.1-0.5,1.6-0.9L1142.1,503.7z M1074.2,301.5
	c0.6,0.1,1.2,0,1.8-0.2c2.4-0.7,3.7-3.2,3.1-5.5l32.5-10.9c0.8,1.6,2.7,2.5,4.5,1.9c0.5-0.1,0.9-0.4,1.2-0.7l26.2,23.1
	c-0.7,0.9-1,2.2-0.6,3.4c0.4,1.2,1.3,2.1,2.5,2.5l-6.7,33.1c-0.7-0.1-1.3,0-2,0.2c-2.4,0.8-3.7,3.2-3.1,5.6l-32.4,10.9
	c-0.8-1.7-2.7-2.5-4.5-2c-0.4,0.1-0.8,0.4-1.2,0.6l-26.2-23.1c0.6-0.9,0.8-2,0.4-3.1c-0.4-1.2-1.3-2-2.3-2.4L1074.2,301.5z
	 M1025.9,355.7c0.5,0,0.9,0,1.4-0.2c1.9-0.6,2.9-2.5,2.5-4.4l33.2-11.2c0.8,1.6,2.7,2.5,4.5,1.9c0.5-0.2,1-0.4,1.3-0.8l26.2,23.1
	c-0.7,0.9-0.9,2.1-0.5,3.3c0.4,1.3,1.4,2.2,2.6,2.5l-6.8,33.6c-0.6-0.1-1.1,0-1.7,0.2c-2.2,0.7-3.4,2.9-2.9,5.1l-32.8,11
	c-0.9-1.5-2.7-2.2-4.4-1.7c-0.4,0.1-0.8,0.3-1.1,0.6l-25.8-22.8c0.7-1.1,1-2.6,0.6-4c-0.5-1.5-1.6-2.6-3-3L1025.9,355.7z
	 M900.5,436.1c0.7-0.9,1-2.2,0.6-3.4c-0.4-1.2-1.4-2.1-2.5-2.5l6.7-33.2c0.6,0.1,1.3,0,1.9-0.2c2.3-0.7,3.6-3.1,3.1-5.5l32.2-10.8
	c0.8,1.7,2.7,2.7,4.6,2.1c0.6-0.2,1-0.5,1.4-0.8l24.5,21.6c-1.2,1.5-1.6,3.5-1,5.5c0.6,2,2.1,3.4,4,3.9l-6.2,30.9
	c-0.6-0.1-1.2,0-1.9,0.2c-2.4,0.7-3.7,3.2-3.1,5.6l-32.2,10.8c-0.8-1.6-2.7-2.5-4.5-1.9c-0.5,0.2-1,0.5-1.4,0.8L900.5,436.1z
	 M973,451.2c0.9-1.2,1.2-2.7,0.7-4.2c-0.5-1.5-1.6-2.5-3-3l6.2-30.9c0.8,0.1,1.7,0,2.5-0.2c3.1-1,4.8-4.2,4-7.3l30-10.1
	c1,2.1,3.4,3.2,5.6,2.5c0.7-0.2,1.3-0.6,1.8-1l25.7,22.7c-0.7,0.9-1,2.2-0.6,3.4c0.4,1.2,1.3,2,2.4,2.4l-6.4,31.7
	c-0.8-0.1-1.6,0-2.5,0.2c-3.1,1-4.8,4.2-4,7.2l-31.1,10.5c-0.8-1.7-2.7-2.6-4.5-2.1c-0.5,0.2-1,0.4-1.4,0.8L973,451.2z
	 M1000.9,480.2c0.4,0,0.9,0,1.3-0.2c1.8-0.6,2.8-2.3,2.6-4.1l31.2-10.5c1.2,2.8,4.3,4.2,7.3,3.3c0.9-0.3,1.6-0.7,2.2-1.3l24.6,21.7
	c-0.6,0.9-0.8,2-0.4,3.1c0.4,1.1,1.2,2,2.3,2.4l-6.5,32.2c-0.8-0.1-1.6,0-2.4,0.2c-3,1-4.8,4.1-4,7.2l-28.9,9.7
	c-1.2-2.7-4.3-4.1-7.2-3.2c-0.9,0.3-1.6,0.7-2.2,1.3l-23-20.2c1.1-1.5,1.4-3.4,0.9-5.3c-0.6-2-2.2-3.4-4.1-4L1000.9,480.2z M880,523
	c0.8,0.1,1.6,0,2.5-0.2c3-1,4.7-4,4-7.1l30.4-10.2c0.9,2.2,3.4,3.4,5.7,2.6c0.6-0.2,1.2-0.5,1.7-0.9l24.8,21.8
	c-0.9,1.2-1.2,2.7-0.7,4.2c0.5,1.5,1.6,2.5,3,3l-6.6,33c-0.4,0-0.7,0-1.1,0.2c-2,0.6-3.1,2.6-2.7,4.6l-31.2,10.5
	c-1.1-2.9-4.4-4.5-7.4-3.5c-0.9,0.3-1.7,0.8-2.4,1.4L875,560.6c0.6-0.9,0.9-2,0.5-3.1c-0.3-1.1-1.1-1.8-2.1-2.2L880,523z
	 M831.6,576.4c0.5,0,1,0,1.5-0.2c2-0.6,3.1-2.7,2.7-4.7l33.4-11.3c0.8,1.3,2.5,2,4,1.5c0.4-0.1,0.7-0.3,1-0.5l24.8,21.9
	c-1.1,1.5-1.4,3.4-0.8,5.3c0.6,2,2.2,3.5,4.2,4l-6.3,31.3c-0.6-0.1-1.2,0-1.8,0.2c-2.3,0.7-3.6,3.1-3.1,5.5l-32.4,10.9
	c-0.8-1.6-2.7-2.5-4.5-1.9c-0.5,0.1-0.9,0.4-1.2,0.7L827.9,617c0.9-1.3,1.3-3,0.8-4.7c-0.6-1.7-1.9-3-3.6-3.5L831.6,576.4z
	 M779.8,624.8c-0.6,1.1-0.7,2.4-0.3,3.6c0.4,1.4,1.4,2.4,2.7,2.9l-6.5,32.4c-0.7-0.1-1.4,0-2.1,0.2c-2.7,0.8-4.2,3.6-3.5,6.3
	l-30.7,10.3c-0.9-2.2-3.4-3.5-5.7-2.7c-0.8,0.2-1.4,0.7-2,1.3l-24.8-21.8c0.9-1.2,1.2-2.7,0.8-4.3c-0.5-1.6-1.7-2.7-3.2-3.1
	l6.3-31.1c0.9,0.1,1.8,0.1,2.8-0.2c3.1-1,4.8-4.2,4-7.2l30.7-10.3c0.8,1.7,2.7,2.7,4.6,2.1c0.6-0.2,1.1-0.5,1.5-0.9L779.8,624.8z
	 M852.3,443.9c-1.2,1.5-1.6,3.5-1,5.5c0.6,2,2.3,3.5,4.2,4l-6.3,31.1c-0.6,0-1.2,0-1.8,0.2c-2.3,0.7-3.7,3.1-3.1,5.5l-32.3,10.9
	c-0.8-1.8-2.9-2.8-4.8-2.2c-0.5,0.2-1,0.4-1.4,0.8l-24.9-21.9c0.9-1.3,1.2-3,0.7-4.6c-0.5-1.7-1.8-2.9-3.3-3.4l6.6-32.9
	c0.4,0,0.8,0,1.2-0.2c1.8-0.6,2.9-2.4,2.5-4.2l33.5-11.3c0.7,1.6,2.5,2.4,4.2,1.8c0.5-0.2,0.9-0.4,1.3-0.7L852.3,443.9z
	 M712.7,422.9c0.6,0.1,1.1,0,1.7-0.2c2.2-0.7,3.4-3,2.9-5.1l31-10.4c1.1,2.5,3.8,3.8,6.5,3c0.8-0.3,1.5-0.7,2.1-1.3l25,22
	c-0.6,0.9-0.9,2.1-0.5,3.3c0.4,1.2,1.3,2.1,2.5,2.5l-6.6,32.8c-0.7-0.1-1.5-0.1-2.3,0.2c-2.7,0.8-4.2,3.6-3.5,6.3l-31.7,10.7
	c-0.8-1.7-2.7-2.5-4.5-2c-0.5,0.2-0.9,0.4-1.3,0.7l-25.1-22.2c1-1.3,1.3-3,0.8-4.7c-0.5-1.7-1.9-2.9-3.4-3.4L712.7,422.9z
	 M663.9,478.4c0.6,0.1,1.3,0,2-0.2c2.4-0.8,3.7-3.2,3.1-5.6l30.9-10.4c1.1,2.3,3.8,3.6,6.3,2.8c0.7-0.2,1.4-0.6,1.9-1.1l25.1,22.2
	c-0.6,0.9-0.8,2.1-0.5,3.2c0.4,1.2,1.3,2.1,2.4,2.4l-6.7,33.3c-0.7-0.1-1.4-0.1-2.1,0.1c-2.4,0.8-3.7,3.3-3.1,5.7l-32.1,10.8
	c-0.8-1.7-2.7-2.6-4.5-2c-0.5,0.2-1,0.4-1.3,0.8l-24.4-21.5c1-1.5,1.4-3.4,0.8-5.2c-0.6-2-2.3-3.5-4.2-4L663.9,478.4z M445,475.3
	c1.1-1.5,1.5-3.4,0.9-5.3c-0.6-2-2.3-3.5-4.2-4l6.2-30.9c0.8,0.1,1.7,0.1,2.5-0.1c2.7-0.8,4.2-3.6,3.5-6.3l31.2-10.5
	c0.8,1.8,2.9,2.7,4.8,2.1c0.5-0.2,1-0.4,1.4-0.8l24.1,21.3c-1.1,1.5-1.5,3.5-0.9,5.4c0.7,2.1,2.3,3.5,4.3,4l-6.5,32.2
	c-0.4,0-0.7,0-1.1,0.2c-1.8,0.6-3,2.4-2.8,4.2l-32.7,11c-1-2-3.3-3-5.5-2.3c-0.5,0.2-1,0.4-1.4,0.8L445,475.3z M467.7,544.2
	c1-1.3,1.3-3,0.8-4.7c-0.5-1.7-1.8-2.9-3.4-3.4l6.3-31.5c0.5,0,1.1,0,1.6-0.2c2.4-0.8,3.7-3.3,3.1-5.7l32.6-11
	c0.7,2,2.9,3.1,4.9,2.4c0.6-0.2,1-0.5,1.4-0.8l24.9,22c-0.9,1.2-1.2,2.7-0.7,4.2c0.5,1.6,1.7,2.7,3.2,3.1L536,551
	c-0.6,0-1.1,0-1.7,0.2c-2.3,0.7-3.7,3.1-3.1,5.5l-32.3,10.9c-0.8-1.9-2.9-2.9-4.9-2.2c-0.5,0.2-1,0.5-1.4,0.8L467.7,544.2z
	 M539.4,558.5c0.9-1.2,1.2-2.7,0.8-4.2c-0.5-1.5-1.7-2.7-3.2-3.1l6.5-32.4c0.5,0,1.1,0,1.6-0.2c2.3-0.7,3.6-3.1,3.1-5.4l31.2-10.5
	c1,2.5,3.8,3.8,6.4,3c0.7-0.2,1.4-0.6,1.9-1.1l23.9,21c-1.1,1.3-1.5,3.2-1,4.9c0.5,1.7,1.9,3,3.5,3.5l-6.5,32.2
	c-0.5,0-0.9,0-1.4,0.2c-2,0.6-3.1,2.7-2.7,4.7l-32.1,10.8c-0.9-2.2-3.4-3.4-5.7-2.7c-0.7,0.2-1.3,0.6-1.8,1.1L539.4,558.5z
	 M610.9,572.6c0.7-1,1-2.3,0.6-3.6c-0.4-1.3-1.4-2.2-2.6-2.6l6.5-32.2c0.7,0.1,1.4,0,2-0.2c2.7-0.9,4.2-3.7,3.5-6.4l29.6-10
	c1.1,3,4.4,4.6,7.4,3.6c0.9-0.3,1.8-0.8,2.4-1.5l24.4,21.5c-0.5,0.9-0.7,2-0.4,3.1c0.4,1.2,1.3,2.1,2.4,2.4l-7,34.5
	c-0.5-0.1-1,0-1.5,0.2c-1.8,0.6-2.9,2.4-2.5,4.3l-31.5,10.6c-1.1-2.3-3.8-3.5-6.3-2.7c-0.8,0.2-1.4,0.7-2,1.2L610.9,572.6z
	 M638.8,603.8c0.7,0.1,1.5,0.1,2.3-0.2c2.7-0.9,4.2-3.7,3.5-6.4l31.5-10.6c0.8,1.6,2.7,2.5,4.5,1.9c0.6-0.2,1.1-0.5,1.5-0.9
	l24.8,21.9c-1,1.5-1.4,3.4-0.8,5.2c0.6,1.9,2,3.3,3.8,3.9l-6.3,31.2c-0.6,0-1.1,0-1.7,0.2c-2.3,0.7-3.7,3.1-3.1,5.5l-32.3,10.9
	c-0.8-1.6-2.7-2.4-4.4-1.8c-0.5,0.2-1,0.4-1.3,0.8l-25.7-22.6c0.9-1.2,1.3-2.8,0.8-4.3c-0.5-1.6-1.8-2.7-3.2-3.1L638.8,603.8z
	 M518.7,642.7c0.5,0.1,1,0,1.6-0.1c1.9-0.6,2.9-2.5,2.5-4.4l32.1-10.8c1,2.1,3.4,3.2,5.6,2.5c0.7-0.2,1.3-0.6,1.8-1l25.6,22.6
	c-0.6,0.9-0.8,2.1-0.5,3.2c0.4,1.2,1.3,2,2.3,2.4l-6.8,33.6c-0.5,0-1.1,0-1.6,0.2c-2.2,0.7-3.6,3-3.2,5.2l-31.3,10.6
	c-1.1-2.4-3.8-3.7-6.4-2.9c-0.7,0.2-1.2,0.5-1.8,1l-24.8-21.9c0.6-0.9,0.9-2.1,0.5-3.2c-0.4-1.3-1.4-2.2-2.6-2.5L518.7,642.7z
	 M469.6,699.6c0.8,0.1,1.6,0.1,2.5-0.2c2.8-0.9,4.3-3.8,3.4-6.6c0,0,0,0,0,0l31.8-10.7c0.7,1.8,2.7,2.7,4.6,2.2
	c0.5-0.1,0.9-0.4,1.2-0.7l24.8,21.8c-1.1,1.3-1.5,3.1-0.9,4.9c0.6,1.8,2,3.1,3.7,3.5l-6.6,32.5c-0.5,0-0.9,0-1.4,0.2
	c-1.9,0.6-2.9,2.5-2.5,4.4l-33.2,11.2c-0.9-1.6-2.8-2.4-4.7-1.8c-0.4,0.1-0.8,0.3-1.1,0.6l-25.2-22.2c1-1.3,1.4-3.1,0.9-4.8
	c-0.6-1.7-1.9-3-3.6-3.5L469.6,699.6z M349.2,740c0.8,0.1,1.6,0.1,2.5-0.1c2.8-0.9,4.3-3.8,3.5-6.5l29.4-9.9c1.1,3,4.4,4.7,7.4,3.7
	c1-0.3,1.8-0.8,2.4-1.5l24.2,21.3c-0.8,1-1.1,2.3-0.6,3.6c0.4,1.2,1.3,2.1,2.5,2.5l-6.5,32.2c-0.6,0-1.2,0-1.9,0.2
	c-2.6,0.8-4.1,3.6-3.5,6.2L378,802.1c-1-2.6-3.8-4-6.5-3.1c-0.8,0.3-1.5,0.7-2.1,1.3l-25-22c0.6-0.9,0.8-2.1,0.5-3.2
	c-0.4-1.2-1.2-2-2.3-2.4L349.2,740z M296.6,786.9c-0.9,1.3-1.3,3-0.7,4.6c0.5,1.7,1.9,3,3.5,3.5l-4.3,21.7l-2.1,10.6
	c-0.5,0-1,0-1.6,0.2c-2.2,0.7-3.4,2.9-3,5.1l-32.7,11.1c-0.8-1.7-2.7-2.7-4.6-2.1c-0.5,0.2-1,0.4-1.4,0.8L224.4,820
	c0.7-1.1,1-2.5,0.6-3.8c-0.5-1.5-1.6-2.5-3-2.9l6.7-34c0.5,0,0.9,0,1.4-0.2c1.8-0.6,2.9-2.4,2.5-4.3l31.7-10.8
	c1.1,2.4,3.8,3.7,6.4,2.9c0.7-0.2,1.4-0.6,1.9-1.1L296.6,786.9z M128.1,735.7c0.6-0.9,0.8-2.1,0.5-3.2c-0.4-1.2-1.3-2.1-2.4-2.4
	l6.5-32.6c0.8,0.1,1.5,0.1,2.3-0.2c2.7-0.9,4.3-3.8,3.5-6.5l31.5-10.7c0.9,1.7,2.9,2.6,4.8,2c0.5-0.2,1-0.4,1.4-0.8l26.1,22.8
	c-0.6,0.9-0.8,2.1-0.5,3.2c0.4,1.2,1.4,2.1,2.5,2.5l-6.3,32.1c-0.8-0.1-1.7,0-2.5,0.2c-3,1-4.8,4.1-4,7.2l-29.6,10.1
	c-1-2.5-3.8-3.9-6.4-3c-0.8,0.3-1.5,0.7-2.1,1.3L128.1,735.7z M156.3,766.6c0.7,0.1,1.3,0,2-0.2c2.6-0.8,4-3.4,3.6-6l29.7-10.1
	c1.2,2.8,4.3,4.2,7.3,3.3c0.9-0.3,1.7-0.8,2.3-1.4l24.6,21.5c-0.5,0.9-0.7,2-0.4,3.1c0.4,1.1,1.2,2,2.2,2.4l-6.7,34
	c-0.5,0-1,0-1.5,0.2c-2.2,0.7-3.4,2.8-3,5l-31.9,10.9c-0.9-2-3.2-3-5.3-2.3c-0.6,0.2-1.2,0.5-1.6,1l-24.6-21.5
	c1-1.3,1.4-3.1,0.9-4.8c-0.6-1.8-2-3.1-3.7-3.5L156.3,766.6z M36.1,806.5c0.5,0.1,1,0,1.5-0.2c1.9-0.6,3-2.6,2.5-4.5l32.2-11
	c0.9,2,3.2,3.1,5.4,2.4c0.7-0.2,1.3-0.6,1.8-1.1l24.6,21.5c-1,1.3-1.3,3-0.8,4.7c0.6,1.7,1.9,3,3.6,3.5l-6.2,31.3
	c-0.7-0.1-1.4,0-2.1,0.2c-2.7,0.9-4.2,3.7-3.5,6.4l-31.6,10.8c-0.7-1.8-2.7-2.8-4.6-2.2c-0.6,0.2-1,0.5-1.4,0.9l-24.8-21.7
	c1-1.3,1.4-3.1,0.8-4.8c-0.6-1.8-2.1-3.1-3.8-3.5L36.1,806.5z"/>
<path id="molecule" style="opacity:0.2;fill:#A7A9AC;" d="M59.4,898.1c0.7-0.4,1.2-0.9,1.7-1.5L89.8,913c-0.3,1-0.3,2.1,0.2,3.1
	c1,1.8,3.3,2.5,5.1,1.4c1.6-0.9,2.3-2.8,1.7-4.5l28.9-17c1.6,2.1,4.4,2.7,6.7,1.4c0.7-0.4,1.3-0.9,1.7-1.6l28.8,16.4
	c-0.4,1.1-0.4,2.5,0.2,3.6c1.1,2.1,3.7,2.8,5.8,1.6c2-1.1,2.7-3.5,1.8-5.5l28.2-16.6c1.6,2.1,4.4,2.8,6.8,1.5c2.5-1.4,3.5-4.6,2-7.2
	c-0.9-1.5-2.4-2.5-4-2.7l-0.2-32.8c0.6-0.1,1.1-0.2,1.7-0.5c2-1.1,2.8-3.6,1.9-5.7l29-17c1.3,1.8,3.8,2.5,5.8,1.4
	c0.6-0.3,1.1-0.8,1.5-1.3l29.5,16.7c-0.4,1-0.4,2.2,0.2,3.2c1,1.8,3.3,2.5,5.1,1.4c1.6-0.9,2.3-2.8,1.7-4.5l29.8-17.5
	c1.3,1.8,3.7,2.4,5.7,1.3c0.6-0.3,1.1-0.8,1.5-1.3l29.8,17.1c-0.4,1-0.4,2.3,0.2,3.3c0.6,1.1,1.6,1.7,2.7,1.9l0.1,33.8
	c-0.6,0.1-1.1,0.2-1.6,0.5c-2.1,1.2-2.9,3.9-1.7,6c1.2,2.1,3.9,2.9,6,1.7c0.5-0.3,1-0.7,1.3-1.2l28.6,16.3c-0.6,1.4-0.6,3.1,0.2,4.6
	c1.4,2.5,4.6,3.5,7.2,2c2.4-1.3,3.3-4.3,2.2-6.8l28.2-16.4c1.3,1.9,3.8,2.6,5.8,1.4c0.6-0.3,1.1-0.8,1.4-1.3l28.3,16.2
	c-0.6,1.4-0.5,3.1,0.3,4.5c1.4,2.5,4.6,3.5,7.2,2c2.4-1.3,3.3-4.2,2.3-6.6l29-16.9c1.1,1.5,3.1,1.9,4.8,1c1.8-1,2.5-3.3,1.4-5.1
	c-0.6-1.1-1.7-1.8-2.9-1.9l-0.1-33.3c0.8,0,1.6-0.2,2.3-0.6c2.5-1.4,3.4-4.5,2.1-7l28.2-16.4c1.3,1.9,3.8,2.5,5.8,1.4
	c0.6-0.3,1-0.7,1.4-1.2l28.7,16.5c-0.4,1.2-0.4,2.5,0.3,3.7c1.2,2.1,3.9,2.9,6,1.7c1.9-1.1,2.7-3.3,2-5.3l29.7-17.3
	c1.1,1.3,3,1.6,4.6,0.8c0.4-0.2,0.7-0.5,1-0.9l29.9,17.1c-0.5,1.2-0.4,2.6,0.2,3.8c1.2,2.1,3.9,2.9,6,1.7c2-1.1,2.7-3.4,2-5.5
	l29.5-17.2c1.2,1.6,3.3,2.1,5.1,1.1c1.9-1.1,2.6-3.5,1.5-5.4c-0.6-1.2-1.8-1.8-3-2l-0.1-33.7c0.5-0.1,1.1-0.2,1.6-0.5
	c2.3-1.3,3.1-4.1,1.8-6.3c-1.3-2.3-4.1-3.1-6.3-1.8c-0.5,0.3-0.9,0.6-1.2,1l-29.8-17.1c0.4-1,0.4-2.2-0.2-3.3
	c-1-1.8-3.3-2.5-5.1-1.4c-1.7,1-2.4,3.1-1.5,4.9l-28.8,16.8c-1.5-2.3-4.5-3.1-6.9-1.7c-0.8,0.4-1.3,1-1.8,1.7l-28.8-16.5
	c0.3-1,0.3-2.1-0.3-3c-1-1.8-3.3-2.5-5.1-1.5c-1.6,0.9-2.3,2.8-1.7,4.5l-30.4,17.7c-1.1-1.3-3.1-1.7-4.6-0.8
	c-0.3,0.2-0.6,0.4-0.9,0.7l-30.5-17.4c0.4-1,0.4-2.2-0.2-3.3c-0.6-1.1-1.7-1.7-2.8-1.9l-0.1-34.4c0.5-0.1,0.9-0.2,1.4-0.5
	c1.9-1.1,2.6-3.4,1.6-5.3l30.2-17.6c1.1,1.4,3.1,1.8,4.7,0.9c1.8-1,2.5-3.3,1.4-5.1c-0.6-1.1-1.6-1.7-2.8-1.9l-0.1-33.2
	c0.6-0.1,1.2-0.3,1.8-0.6c2.4-1.4,3.3-4.3,2.2-6.8l28.5-16.6c1.3,2,4,2.7,6.1,1.5c0.6-0.3,1.1-0.8,1.5-1.3l29.2,16.7
	c-0.4,1-0.4,2.2,0.2,3.2c0.6,1.1,1.8,1.8,3,1.9l0.1,34.9c-0.4,0.1-0.7,0.2-1.1,0.4c-1.8,1-2.5,3.3-1.4,5.1c1,1.8,3.3,2.5,5.1,1.4
	c0.4-0.2,0.7-0.5,1-0.8l28.9,16.5c-0.6,1.4-0.6,3.1,0.3,4.6c1.4,2.5,4.6,3.5,7.2,2c2.3-1.3,3.3-4.1,2.3-6.5l28.9-16.8
	c1.1,1.4,3.1,1.9,4.8,1c1.8-1,2.5-3.3,1.4-5.1c-0.6-1-1.6-1.7-2.7-1.9l-0.1-34.1c0.6-0.1,1.2-0.2,1.7-0.6c2.3-1.3,3.1-4.1,1.8-6.3
	c-1.3-2.3-4.1-3.1-6.3-1.8c-0.6,0.3-1.1,0.8-1.5,1.3l-28.3-16.2c0.8-1.5,0.8-3.3-0.1-4.9c-0.9-1.6-2.5-2.6-4.2-2.7l-0.1-33.2
	c0.5,0,1-0.2,1.4-0.5c1.7-1,2.4-3,1.6-4.8l29.5-17.2c1.4,1.8,3.9,2.4,6,1.3c0.6-0.3,1-0.7,1.4-1.2l28.7,16.5
	c-0.4,1.2-0.4,2.6,0.3,3.8c1.3,2.3,4.1,3.1,6.3,1.8c2.1-1.1,2.9-3.6,2.1-5.7l28-16.3c1.5,2.1,4.4,2.8,6.8,1.5
	c0.7-0.4,1.2-0.9,1.7-1.5l29.1,16.7c-0.4,1-0.3,2.1,0.2,3.1c0.6,1,1.6,1.7,2.7,1.9l0.1,33.7c-0.6,0.1-1.2,0.3-1.8,0.6
	c-2.5,1.4-3.5,4.6-2,7.2c1.4,2.5,4.6,3.5,7.2,2c0.7-0.4,1.2-0.9,1.7-1.5l28.1,16.1c-0.5,1.2-0.4,2.6,0.3,3.9
	c1.3,2.2,4.1,3.1,6.3,1.8c2.1-1.2,2.9-3.7,2-5.8l28.5-16.6c1.4,1.8,3.9,2.4,6,1.3c0.6-0.3,1.1-0.8,1.4-1.3l29.9,17.1
	c-0.3,0.9-0.2,1.9,0.3,2.8c1,1.8,3.2,2.4,5,1.4c1.6-0.9,2.3-2.9,1.6-4.6l29.2-17c1.4,1.7,3.8,2.1,5.8,1c2.2-1.3,3.1-4.1,1.8-6.3
	c-0.7-1.3-2-2.1-3.4-2.3l-0.1-34.1c0.5,0,1-0.2,1.5-0.5c1.6-0.9,2.3-2.9,1.7-4.6l28.6-16.7c1.6,2.1,4.4,2.7,6.8,1.4
	c0.7-0.4,1.2-0.9,1.7-1.5l29.1,16.6c-0.4,1-0.4,2.2,0.2,3.3c1,1.8,3.3,2.5,5.1,1.4c1.6-0.9,2.3-2.9,1.7-4.6l29.5-17.2
	c1.4,1.7,3.9,2.2,5.9,1.1c2.2-1.3,3.1-4.1,1.8-6.3c-0.7-1.3-2-2.1-3.4-2.3l-0.1-32.4c0.8,0,1.5-0.2,2.3-0.6c2.5-1.4,3.5-4.6,2-7.2
	c-1.4-2.5-4.6-3.5-7.2-2c-0.7,0.4-1.3,1-1.8,1.6l-29.3-16.8c0.4-1,0.4-2.2-0.2-3.2c-1-1.8-3.3-2.5-5.1-1.4c-1.7,0.9-2.3,3-1.6,4.7
	L976,526.3c-1.1-1.5-3.2-2-4.9-1.1c-0.4,0.2-0.8,0.6-1.1,0.9l-29.5-16.9c0.5-1.3,0.5-2.7-0.2-4c-1.3-2.2-4.1-3.1-6.3-1.8
	c-2.1,1.2-2.9,3.7-2,5.9l-27.4,16c-1.7-2.5-5.1-3.3-7.9-1.8c-2.9,1.6-3.9,5.3-2.3,8.2c1,1.8,2.8,2.9,4.7,3.1l0.1,31.9
	c-0.6,0.1-1.1,0.2-1.7,0.5c-2.1,1.2-2.9,3.7-2,5.9l-29.5,17.2c-1.1-1.3-3.1-1.7-4.7-0.8c-0.4,0.2-0.7,0.5-1,0.8l-28.6-16.4
	c0.8-1.7,0.8-3.8-0.2-5.5c-1-1.8-2.8-2.9-4.7-3.1l-0.1-32.6c0.4-0.1,0.8-0.2,1.2-0.4c1.7-0.9,2.3-3,1.6-4.7l29.5-17.2
	c1.4,1.9,3.9,2.5,6,1.3c2.3-1.3,3.1-4.1,1.8-6.3c-0.8-1.4-2.1-2.2-3.6-2.4l-0.1-32c0.8-0.1,1.6-0.3,2.3-0.7c2.7-1.5,3.8-4.8,2.6-7.6
	l28.5-16.6c1.2,1.6,3.4,2.1,5.1,1.1c0.4-0.2,0.7-0.5,1-0.8l28.2,16.1c-1,1.8-1.1,4-0.1,6c1.6,2.9,5.3,3.9,8.2,2.3
	c2.9-1.6,3.9-5.3,2.3-8.2l27.9-16.2c1.4,1.8,3.9,2.3,5.9,1.2c2.3-1.3,3.1-4.1,1.8-6.3c-0.8-1.3-2.1-2.2-3.5-2.3l-0.1-31.6
	c0.8-0.1,1.6-0.3,2.4-0.7c2.8-1.6,3.9-5.1,2.4-7.9l26.3-15.3c1.7,2.5,5.1,3.3,7.8,1.8c0.8-0.4,1.5-1.1,2-1.8l28.3,16.2
	c-0.4,1-0.3,2.1,0.2,3.1c1,1.8,3.3,2.5,5.1,1.4c1.6-0.9,2.3-2.9,1.7-4.6l28.6-16.7c1.7,2.5,5.1,3.4,7.9,1.8c0.7-0.4,1.4-1,1.8-1.6
	l28,16c-0.3,1-0.3,2.1,0.2,3.1c1,1.8,3.3,2.5,5.1,1.4c1.6-0.9,2.2-2.7,1.8-4.3l28.3-16.5c1.8,2.3,5,3,7.7,1.6
	c2.9-1.6,3.9-5.3,2.3-8.2c-1-1.7-2.7-2.8-4.5-3l-0.1-32.3c0.4-0.1,0.9-0.2,1.3-0.4c1.8-1,2.5-3.3,1.4-5.1c-1-1.8-3.3-2.5-5.1-1.4
	c-0.4,0.2-0.7,0.5-1,0.8l-28.4-16.3c0.8-1.7,0.8-3.7-0.2-5.5c-1.6-2.9-5.3-3.9-8.2-2.3c-2.8,1.5-3.8,4.9-2.5,7.7l-28.4,16.6
	c-1.1-1.3-3.1-1.7-4.7-0.8c-0.4,0.2-0.8,0.5-1.1,0.9l-29.9-17.1c0.5-1.2,0.5-2.6-0.2-3.8c-1.2-2.1-3.8-2.8-5.9-1.7
	c-1.9,1.1-2.7,3.4-1.9,5.4l-29.8,17.3c-1.1-1.5-3.2-1.9-4.8-1c-0.5,0.3-0.9,0.6-1.2,1.1l-28.4-16.3c0.8-1.7,0.9-3.8-0.1-5.6
	c-1-1.8-2.9-2.9-4.8-3.1l-0.1-32.3c0.4-0.1,0.9-0.2,1.3-0.4c1.8-1,2.4-3.2,1.5-5l29.8-17.4c1.3,1.7,3.6,2.2,5.5,1.1
	c2.1-1.2,2.8-3.8,1.7-5.9c-0.7-1.3-1.9-2-3.3-2.2l-0.1-34.4c0.4-0.1,0.7-0.2,1.1-0.4c1.7-0.9,2.3-2.9,1.6-4.7l29.6-17.2
	c1.4,1.7,3.9,2.3,5.9,1.2c2.3-1.3,3.1-4.1,1.8-6.3c-0.7-1.3-2-2.1-3.4-2.3l-0.1-33.8c0.4-0.1,0.8-0.2,1.2-0.4c1.8-1,2.5-3.3,1.4-5.1
	c-1-1.8-3.3-2.5-5.1-1.4c-0.4,0.2-0.7,0.5-1,0.8l-30.4-17.4c0.5-1,0.5-2.3-0.1-3.3c-1-1.8-3.3-2.5-5.1-1.4c-1.7,0.9-2.3,3-1.6,4.7
	l-29.6,17.3c-1.4-1.8-3.9-2.4-6-1.2c-2.3,1.3-3.1,4.1-1.8,6.3c0.8,1.4,2.1,2.2,3.6,2.4l0.1,34c-0.5,0.1-0.9,0.2-1.3,0.4
	c-1.7,0.9-2.3,3-1.6,4.7L938,208.1c-1.1-1.4-3.1-1.8-4.7-0.9c-1.8,1-2.5,3.3-1.4,5.1c0.6,1.1,1.7,1.7,2.8,1.9l0.1,33.9
	c-0.6,0.1-1.2,0.2-1.8,0.6c-2.1,1.2-2.9,3.8-2,6l-27.4,15.9c-1.8-2.4-5.1-3.1-7.7-1.7c-0.8,0.4-1.4,1-1.9,1.7l-28.4-16.3
	c0.4-1,0.3-2.1-0.2-3.1c-1-1.8-3.3-2.5-5.1-1.4c-1.6,0.9-2.3,2.8-1.7,4.5l-29.4,17.1c-1.4-1.9-3.9-2.5-6-1.3
	c-2.3,1.3-3.1,4.1-1.8,6.3c0.8,1.4,2.1,2.2,3.5,2.3l0.1,34c-0.4,0.1-0.8,0.2-1.1,0.4c-1.8,1-2.5,3.3-1.5,5.1c1,1.8,3.3,2.5,5.1,1.4
	c0.4-0.2,0.7-0.5,1-0.8l30.4,17.4c-0.4,1-0.3,2.1,0.2,3.1c1,1.8,3.3,2.5,5.1,1.4c1.7-0.9,2.3-3,1.6-4.7l29.4-17.1
	c1.4,1.8,3.9,2.4,5.9,1.2c0.6-0.3,1.1-0.8,1.4-1.3l29.6,16.9c-0.4,1-0.4,2.2,0.2,3.2c0.6,1.1,1.7,1.8,2.9,1.9l0.1,32.9
	c-0.8,0.1-1.6,0.3-2.3,0.7c-2.8,1.5-3.8,4.9-2.5,7.8l-27.5,16c-1.4-1.8-3.9-2.3-5.9-1.2c-0.6,0.3-1.1,0.7-1.4,1.2L867,382.2
	c0.6-1.3,0.6-2.9-0.1-4.2c-1.3-2.2-4.1-3.1-6.3-1.8c-2.1,1.2-2.9,3.7-2,5.8l-27.7,16.1c-1.7-2.6-5.1-3.4-7.9-1.9
	c-2.9,1.6-3.9,5.3-2.3,8.2c1,1.8,2.9,2.9,4.8,3.1l0.1,32.8c-0.4,0.1-0.9,0.2-1.3,0.4c-1.6,0.9-2.2,2.9-1.4,4.6L792.3,463
	c-1.2-1.5-3.3-2-5.1-1c-1.9,1.1-2.6,3.5-1.5,5.4c0.6,1.2,1.8,1.9,3,2l0.1,33.1c-0.7,0.1-1.3,0.3-2,0.6c-2.4,1.4-3.3,4.4-2.2,6.8
	l-27.6,16.1c-1.3-2-4-2.7-6.1-1.5c-0.8,0.4-1.4,1.1-1.8,1.8l-29.6-16.9c0.3-1,0.3-2.1-0.3-3c-1-1.8-3.3-2.5-5.1-1.4
	c-1.6,0.9-2.3,2.8-1.7,4.5l-28,16.3c-1.8-2.4-5.1-3.2-7.8-1.7c-0.9,0.5-1.6,1.2-2.1,2l-28.7-16.4c0.3-1,0.3-2.1-0.3-3
	c-0.6-1-1.6-1.7-2.6-1.9l-0.1-35.3c0.4-0.1,0.8-0.2,1.2-0.4c1.6-0.9,2.3-2.9,1.7-4.6l29.3-17.1c1.4,1.7,3.9,2.2,5.9,1.1
	c2.3-1.3,3.1-4.1,1.8-6.3c-0.7-1.3-2-2.1-3.3-2.3l-0.1-34c0.4-0.1,0.9-0.2,1.3-0.4c1.7-0.9,2.3-2.9,1.6-4.7l29-16.9
	c1.6,2.1,4.4,2.8,6.8,1.5c0.7-0.4,1.3-1,1.8-1.6l28.8,16.5c-0.5,1.1-0.5,2.4,0.2,3.5c1.1,1.9,3.5,2.6,5.4,1.5c1.8-1,2.5-3.1,1.8-4.9
	l29.5-17.1c1.4,1.9,3.9,2.5,6,1.3c2.3-1.3,3.1-4.1,1.8-6.3c-0.8-1.4-2.2-2.2-3.6-2.4l-0.1-31.7c0.8-0.1,1.6-0.3,2.3-0.7
	c2.9-1.6,3.9-5.3,2.3-8.2c-1.6-2.9-5.3-3.9-8.2-2.3c-0.8,0.4-1.4,1-1.9,1.7l-28.6-16.4c0.3-0.9,0.3-2-0.2-2.9
	c-0.9-1.7-3.1-2.3-4.8-1.4c-1.5,0.9-2.2,2.7-1.6,4.3l-30.6,17.8c-1.1-1.5-3.2-2-4.8-1c-0.4,0.2-0.8,0.6-1.1,0.9l-29-16.6
	c0.6-1.5,0.6-3.2-0.2-4.7c-1.4-2.6-4.7-3.5-7.3-2.1c-2.4,1.4-3.4,4.4-2.2,6.9L645.3,336c-1.3-1.6-3.6-2.1-5.5-1.1
	c-2.1,1.2-2.8,3.8-1.7,5.9c0.7,1.3,1.9,2,3.3,2.2l0.1,32.7c-0.7,0.1-1.4,0.3-2.1,0.6c-2.5,1.4-3.4,4.4-2.1,6.9L609,399.7
	c-1.4-1.7-3.9-2.3-5.9-1.2c-2.3,1.3-3.1,4.1-1.8,6.3c0.7,1.3,2.1,2.1,3.5,2.3l0.1,31.9c-0.8,0.1-1.5,0.3-2.2,0.7
	c-2.7,1.5-3.8,4.8-2.6,7.6l-27.1,15.8c-1.6-2-4.4-2.7-6.7-1.4c-0.6,0.3-1.1,0.8-1.5,1.3L537,447.3c0.7-1.5,0.7-3.3-0.1-4.8
	c-1.4-2.5-4.6-3.5-7.2-2c-2.4,1.3-3.3,4.2-2.2,6.7L499,463.7c-1.4-1.9-4-2.6-6.1-1.4c-0.6,0.3-1.1,0.7-1.4,1.2L462.6,447
	c0.4-1.1,0.4-2.4-0.2-3.5c-0.7-1.3-2-2-3.4-2l-0.1-32.8c0.7-0.1,1.5-0.3,2.2-0.7c2.9-1.6,3.9-5.3,2.3-8.2c-1.6-2.9-5.3-3.9-8.2-2.3
	c-0.8,0.5-1.5,1.1-2,1.8l-27.9-16c0.5-1.1,0.5-2.4-0.2-3.5c-1.1-1.9-3.5-2.6-5.4-1.5c-1.8,1-2.5,3.1-1.7,5l-28.5,16.6
	c-1.6-2.1-4.4-2.8-6.8-1.5c-2.5,1.4-3.5,4.6-2,7.2c0.8,1.5,2.2,2.3,3.7,2.6l0.1,31.6c-0.8,0.1-1.5,0.3-2.2,0.7
	c-2.9,1.6-3.9,5.3-2.3,8.2c1.6,2.9,5.3,3.9,8.2,2.3c0.9-0.5,1.5-1.1,2-1.9l27.4,15.7c-0.7,1.4-0.8,3.1,0,4.5
	c0.8,1.4,2.3,2.3,3.8,2.4l0.1,32.1c-0.7,0.1-1.5,0.3-2.1,0.6c-2.5,1.4-3.5,4.6-2,7.2c1.4,2.5,4.6,3.5,7.2,2c0.7-0.4,1.3-0.9,1.7-1.5
	l28.8,16.5c-0.5,1.1-0.4,2.4,0.2,3.5c1.1,1.9,3.5,2.6,5.4,1.5c1.8-1,2.5-3.1,1.8-4.9l29.5-17.2c1.4,1.8,3.9,2.4,6,1.3
	c0.6-0.3,1-0.7,1.4-1.2L528,528c-0.5,1.3-0.5,2.7,0.2,4c1.3,2.2,4.1,3.1,6.3,1.8c2.1-1.2,2.9-3.6,2-5.8l29.3-17.1
	c1.2,1.5,3.3,2,5.1,1c0.4-0.2,0.8-0.6,1.1-0.9l29.1,16.6c-0.7,1.5-0.7,3.2,0.2,4.8c0.9,1.5,2.4,2.5,4,2.6l0.1,32.2
	c-0.5,0.1-1.1,0.2-1.6,0.5c-2.2,1.2-3,3.9-1.9,6.1l-29.6,17.2c-1.1-1.4-3.1-1.9-4.8-1c-0.5,0.3-0.8,0.6-1.1,1l-29.6-17
	c0.5-1.3,0.5-2.8-0.2-4.1c-1.3-2.2-4.1-3.1-6.3-1.8c-2.1,1.2-3,3.8-2,6l-29.3,17.1c-1.1-1.4-3.1-1.8-4.7-0.9c-1.8,1-2.5,3.3-1.4,5.1
	c0.6,1,1.5,1.7,2.6,1.8l0.1,35.2c-0.3,0.1-0.7,0.2-1,0.4c-1.6,0.9-2.3,2.8-1.7,4.5l-29.2,17c-1.6-1.9-4.3-2.4-6.6-1.2
	c-2.5,1.4-3.5,4.6-2,7.2c0.8,1.5,2.2,2.4,3.8,2.6l0.1,31.4c-0.7,0.1-1.3,0.3-2,0.6c-2.5,1.4-3.4,4.5-2.1,7l-28.9,16.8
	c-1.2-1.4-3.3-1.8-5-0.9c-0.4,0.2-0.8,0.6-1.1,0.9L392,702.8c0.7-1.7,0.7-3.6-0.3-5.3c-1.6-2.9-5.3-3.9-8.2-2.3
	c-2.7,1.5-3.8,4.7-2.6,7.5L354,718.3c-1.6-1.9-4.4-2.5-6.6-1.3c-2.5,1.4-3.5,4.6-2,7.2c0.8,1.5,2.2,2.4,3.8,2.6l0.1,33.3
	c-0.5,0.1-0.9,0.2-1.4,0.4c-1.7,0.9-2.4,3-1.6,4.7l-29.2,17c-1.6-2.1-4.4-2.8-6.8-1.5c-0.7,0.4-1.3,1-1.7,1.6l-27.6-15.7
	c0.7-1.5,0.7-3.3-0.1-4.8c-1.4-2.5-4.6-3.5-7.2-2c-2.4,1.3-3.3,4.3-2.2,6.8l-28.9,17c-1.1-1.4-3.1-1.9-4.8-1
	c-0.5,0.3-0.9,0.7-1.2,1.1L208,767.7c0.8-1.7,0.8-3.7-0.2-5.5c-1-1.8-2.8-2.9-4.8-3.1l-0.2-32.8c0.4-0.1,0.8-0.2,1.2-0.4
	c1.8-1,2.5-3.3,1.5-5.1c-1-1.8-3.3-2.5-5.1-1.4c-0.5,0.3-0.8,0.6-1.1,1l-30.1-17.1c0.5-1.1,0.5-2.4-0.2-3.5
	c-1.1-1.9-3.5-2.6-5.4-1.5c-1.8,1-2.5,3.2-1.7,5.1l-28.7,16.9c-1.6-2-4.4-2.5-6.6-1.3c-2.5,1.4-3.5,4.6-2,7.2
	c0.8,1.5,2.3,2.4,3.9,2.6l0.2,33.3c-0.4,0.1-0.8,0.2-1.2,0.4c-1.8,1-2.5,3.3-1.4,5.1c1,1.8,3.3,2.5,5.1,1.5c0.5-0.3,0.8-0.6,1.1-1
	l28.9,16.4c-0.6,1.5-0.6,3.2,0.2,4.6c0.9,1.6,2.5,2.6,4.3,2.7l0.2,32c-0.6,0.1-1.2,0.3-1.8,0.6c-2.4,1.3-3.3,4.3-2.2,6.8l-27.9,16.4
	c-1.5-2.1-4.5-2.8-6.8-1.5c-0.7,0.4-1.3,0.9-1.7,1.5l-28.5-16.2c0.4-1.2,0.4-2.5-0.3-3.7c-1.2-2.1-3.9-2.9-6-1.7
	c-2,1.1-2.8,3.5-1.9,5.6l-29.4,17.3c-1.1-1.3-3.1-1.7-4.7-0.8c-1.8,1-2.5,3.3-1.4,5.1c0.6,1,1.6,1.7,2.6,1.9l0.2,33.4
	c-0.6,0.1-1.2,0.3-1.7,0.6c-2.5,1.4-3.5,4.6-2,7.2C53.6,898.7,56.8,899.6,59.4,898.1z M202.9,887.2c-0.7,0.1-1.5,0.2-2.2,0.6
	c-2.4,1.4-3.3,4.3-2.2,6.8l-28.2,16.6c-1.3-1.6-3.6-2.1-5.4-1.1c-0.6,0.3-1.1,0.8-1.4,1.3l-28.8-16.3c0.7-1.5,0.7-3.2-0.2-4.7
	c-0.9-1.5-2.4-2.5-4-2.7l-0.2-31.9c0.6-0.1,1.3-0.3,1.9-0.6c2.4-1.4,3.3-4.3,2.2-6.8l27.9-16.4c1.5,2.2,4.5,2.9,6.8,1.6
	c0.7-0.4,1.2-0.9,1.6-1.4l27.2,15.5l1.2,0.7c-0.5,1.2-0.5,2.7,0.2,3.9c0.7,1.3,2,2.1,3.3,2.2L202.9,887.2z M317.4,829.6
	c0.5-1.2,0.5-2.6-0.2-3.8c-0.7-1.3-2.1-2.1-3.5-2.3l-0.2-32.8c0.7-0.1,1.3-0.3,1.9-0.6c2.4-1.4,3.4-4.4,2.2-6.9l29.2-17
	c1.1,1.4,3.1,1.9,4.8,0.9c0.4-0.2,0.8-0.6,1.1-0.9l29,16.6c-0.6,1.4-0.5,3.1,0.3,4.5c0.9,1.6,2.5,2.5,4.2,2.7l0.1,33
	c-0.5,0.1-1.1,0.2-1.6,0.5c-2,1.1-2.8,3.6-1.9,5.7l-29.8,17.3c-1.2-1.2-3-1.6-4.5-0.7c-0.4,0.2-0.8,0.6-1.1,0.9L317.4,829.6z
	 M419.2,766.5c1.5,2.1,4.5,2.9,6.8,1.5c0.6-0.4,1.2-0.8,1.6-1.4l28.3,16.2c-0.5,1.2-0.5,2.6,0.2,3.9c0.7,1.3,2,2.1,3.4,2.2l0.1,33
	c-0.6,0.1-1.2,0.3-1.7,0.6c-2.4,1.3-3.3,4.2-2.3,6.6l-29,16.9c-1.1-1.4-3.1-1.9-4.8-0.9c-0.5,0.3-0.9,0.6-1.2,1l-30-17.2
	c0.5-1.2,0.5-2.6-0.2-3.8c-0.7-1.3-2.1-2.1-3.5-2.3l-0.1-32.9c0.7-0.1,1.4-0.3,2-0.6c2.3-1.3,3.3-4.1,2.3-6.5L419.2,766.5z
	 M354.3,892.8c0.6-1.2,0.6-2.7-0.1-4c-0.7-1.3-2-2.1-3.4-2.2l-0.1-33.8c0.5-0.1,0.9-0.2,1.4-0.4c1.8-1,2.4-3.2,1.5-5l29.7-17.3
	c1.3,1.7,3.7,2.3,5.7,1.2c0.6-0.3,1.1-0.8,1.4-1.3l30,17.2c-0.4,1-0.4,2.2,0.2,3.2c0.6,1,1.5,1.6,2.6,1.8l0.1,34.6
	c-0.5,0.1-1.1,0.2-1.6,0.5c-1.9,1.1-2.7,3.4-2,5.4L391.4,909c-1.5-2.2-4.5-2.9-6.9-1.6c-0.8,0.4-1.4,1-1.8,1.7L354.3,892.8z
	 M496.7,886.9c-0.4,0.1-0.8,0.2-1.2,0.4c-1.7,0.9-2.3,2.9-1.6,4.7l-28.9,16.9c-1.5-2.3-4.5-3-6.9-1.7c-0.8,0.4-1.4,1.1-1.8,1.8
	l-28.3-16.2c0.5-1.2,0.5-2.6-0.2-3.8c-0.7-1.3-2.1-2.1-3.5-2.3l-0.1-34.5c0.5,0,1-0.2,1.5-0.5c1.7-0.9,2.3-3,1.6-4.7l28.9-16.8
	c1.5,2.3,4.5,3,6.9,1.7c0.7-0.4,1.2-0.9,1.6-1.4l27.8,15.9c-0.6,1.4-0.6,3.1,0.2,4.6c0.8,1.5,2.3,2.4,3.8,2.6L496.7,886.9z
	 M676.1,782.1c-0.7,1.4-0.8,3,0,4.5c0.8,1.4,2.2,2.3,3.8,2.4l0.1,33.6c-0.5,0.1-0.9,0.2-1.4,0.4c-1.7,1-2.4,3.1-1.7,4.9l-29.5,17.1
	c-1.3-1.9-3.8-2.5-5.8-1.4c-0.6,0.3-1.1,0.8-1.5,1.4L610.3,828c0.5-1.1,0.5-2.3-0.1-3.4c-0.6-1-1.6-1.7-2.6-1.8l-0.1-33.5
	c0.7-0.1,1.3-0.3,2-0.6c2.4-1.3,3.3-4.2,2.3-6.6l28.9-16.8c1.1,1.3,3.1,1.7,4.7,0.8c0.4-0.2,0.8-0.6,1.1-0.9L676.1,782.1z M602,782
	c-0.6,1.4-0.6,3.1,0.2,4.6c0.9,1.6,2.5,2.5,4.1,2.7l0.1,33.4c-0.5,0.1-1,0.2-1.4,0.5c-1.8,1-2.4,3.2-1.5,5L574,845.4
	c-1.2-2-3.8-2.7-5.9-1.5c-0.6,0.4-1.2,0.9-1.5,1.4l-28.7-16.4c0.5-1.2,0.5-2.7-0.2-3.9c-0.8-1.4-2.1-2.2-3.6-2.3l-0.1-34.1
	c0.4-0.1,0.8-0.2,1.1-0.4c1.7-1,2.4-3.1,1.5-4.9l30.4-17.7c1.1,1.6,3.2,2.1,4.9,1.2c0.5-0.3,1-0.7,1.3-1.2L602,782z M530,783.1
	c-0.6,1.1-0.6,2.4,0,3.6c0.6,1.1,1.7,1.8,2.9,1.9l0.1,34.1c-0.5,0.1-0.9,0.2-1.4,0.5c-2,1.1-2.7,3.4-2,5.5l-28.2,16.4
	c-1.6-2-4.4-2.6-6.7-1.3c-0.7,0.4-1.3,1-1.7,1.6l-27.8-15.9c0.7-1.5,0.7-3.3-0.2-4.8c-0.9-1.7-2.7-2.6-4.5-2.7l-0.1-32.9
	c0.5-0.1,1.1-0.2,1.6-0.5c2-1.1,2.8-3.5,1.9-5.6l29.7-17.3c1.1,1.4,3.1,1.9,4.8,1c0.4-0.2,0.8-0.6,1.1-0.9L530,783.1z M496.2,759.6
	c-0.4,0.1-0.9,0.2-1.3,0.4c-1.7,0.9-2.3,3-1.6,4.7l-28.2,16.4l-1.6,0.9c-1.3-1.8-3.8-2.4-5.8-1.3c-0.6,0.3-1.1,0.8-1.4,1.3
	l-28.2-16.2c0.8-1.5,0.8-3.4-0.1-5c-0.9-1.6-2.6-2.6-4.3-2.7l-0.1-32.8c0.5-0.1,1-0.2,1.5-0.5c1.9-1,2.6-3.4,1.6-5.3l28.8-16.8
	c1.6,2,4.4,2.6,6.7,1.4c0.6-0.3,1.1-0.8,1.6-1.3l29.1,16.7c-0.6,1.1-0.6,2.5,0.1,3.7c0.7,1.2,1.8,1.9,3.1,2L496.2,759.6z
	 M675.7,654.8c-0.6,1.3-0.6,2.8,0.2,4.2c0.8,1.4,2.1,2.2,3.6,2.4l0.1,34.1c-0.5,0.1-1,0.2-1.4,0.4c-1.7,0.9-2.3,3-1.6,4.7
	l-28.8,16.8c-1.5-2.3-4.5-3.1-7-1.8c-0.8,0.4-1.4,1-1.8,1.7l-28.8-16.5c0.5-1.1,0.5-2.4-0.1-3.5c-0.6-1.1-1.8-1.8-3-1.9l-0.1-34.9
	c0.4-0.1,0.8-0.2,1.1-0.4c1.6-0.9,2.3-2.8,1.7-4.5l29.2-17c1.6,2.1,4.4,2.7,6.7,1.4c0.6-0.4,1.2-0.8,1.6-1.4L675.7,654.8z
	 M642.6,630.1c-0.7,0.1-1.3,0.3-2,0.6c-2.5,1.4-3.4,4.4-2.1,6.9l-29.2,17c-1.1-1.5-3.2-2.1-4.9-1.1c-0.5,0.3-0.8,0.6-1.1,1
	l-29.2-16.7c0.6-1.3,0.6-2.8-0.2-4.1c-0.8-1.4-2.2-2.3-3.8-2.4l-0.1-34.2c0.4-0.1,0.9-0.2,1.3-0.4c1.7-0.9,2.3-3,1.6-4.7l29.6-17.3
	c1.4,1.8,3.9,2.3,5.9,1.2c0.5-0.3,0.9-0.7,1.3-1.1l29.8,17.1c-0.4,1-0.3,2.1,0.2,3.1c0.6,1,1.6,1.7,2.7,1.9L642.6,630.1z
	 M936.4,629.7c-0.7,0-1.4,0.2-2,0.6c-2.2,1.2-3,4-1.8,6.3l-29.2,17c-1.1-1.4-3.1-1.9-4.7-1c-0.5,0.3-1,0.7-1.3,1.2l-29.8-17
	c0.6-1.3,0.6-2.9-0.1-4.2c-0.8-1.4-2.1-2.2-3.6-2.4l-0.1-33.8c0.4-0.1,0.8-0.2,1.2-0.4c1.7-1,2.4-3.1,1.5-4.9l29.5-17.2
	c1.4,1.9,4,2.5,6,1.4c0.6-0.3,1.1-0.8,1.5-1.3l29.7,17c-0.3,0.9-0.2,1.9,0.3,2.8c0.6,1,1.5,1.7,2.6,1.8L936.4,629.7z M1042.1,526.2
	c-0.6,1.5-0.6,3.2,0.2,4.7c0.8,1.5,2.3,2.4,3.9,2.6l0.1,32.4c-0.7,0-1.3,0.2-2,0.6c-2.2,1.2-3,4-1.9,6.2l-29.5,17.2
	c-1.1-1.5-3.2-2-4.8-1.1c-0.4,0.2-0.8,0.6-1.1,1L978,573c0.7-1.5,0.7-3.3-0.2-4.8c-0.9-1.5-2.4-2.5-4-2.7l-0.1-33.4
	c0.4-0.1,0.8-0.2,1.1-0.4c1.6-0.9,2.3-2.9,1.7-4.6l30.4-17.7c1.1,1.4,3.1,1.9,4.8,1c0.5-0.3,0.9-0.6,1.2-1L1042.1,526.2z
	 M900.2,534.6c0.8-0.1,1.7-0.3,2.4-0.7c2.8-1.5,3.8-5,2.5-7.8l27.4-16c1.4,1.9,4,2.6,6.1,1.4c0.7-0.4,1.2-0.9,1.6-1.5l29.4,16.9
	c-0.4,1-0.4,2.3,0.2,3.3c0.6,1.1,1.8,1.8,3,1.9l0.1,33.3c-0.7,0.1-1.4,0.3-2.1,0.6c-2.5,1.4-3.4,4.4-2.1,6.9l-28.6,16.6
	c-1.1-1.5-3.2-2-4.9-1.1c-0.6,0.3-1,0.8-1.3,1.3L904.2,573c0.5-1.3,0.5-2.8-0.2-4c-0.8-1.4-2.2-2.2-3.7-2.4L900.2,534.6z M859.9,591
	c-0.5,1.1-0.5,2.4,0.1,3.5c0.6,1.1,1.7,1.7,2.8,1.9l0.1,33.8c-0.6,0.1-1.2,0.2-1.7,0.6c-2.1,1.2-3,3.8-1.9,6l-28.5,16.6
	c-1.3-2-4-2.6-6.1-1.5c-0.7,0.4-1.2,0.9-1.6,1.6l-28-16c0.7-1.5,0.7-3.3-0.1-4.8c-0.9-1.7-2.6-2.6-4.4-2.7l-0.1-33.6
	c0.5-0.1,1-0.2,1.4-0.5c1.7-0.9,2.3-2.9,1.6-4.7l28.2-16.4c1.8,2.4,5.1,3.2,7.8,1.7c0.8-0.5,1.5-1.1,2-1.8L859.9,591z M825.9,565.3
	c-0.8,0.1-1.6,0.3-2.4,0.7c-2.8,1.6-3.9,5.1-2.4,7.9l-28.2,16.4c-1.1-1.5-3.1-1.9-4.8-1c-0.5,0.3-0.9,0.7-1.2,1.1l-29.1-16.6
	c0.7-1.5,0.7-3.3-0.1-4.8c-0.9-1.6-2.5-2.5-4.1-2.7l-0.1-32.9c0.7,0,1.4-0.2,2.1-0.6c2.1-1.2,2.9-3.6,2.1-5.8l27.7-16.1
	c1.5,2.1,4.4,2.8,6.8,1.5c0.7-0.4,1.2-0.9,1.7-1.5l29.1,16.6c-0.4,1-0.4,2.2,0.2,3.2c0.6,1.1,1.7,1.8,2.9,1.9L825.9,565.3z
	 M972.4,438.8c-0.6,0.1-1.3,0.2-1.9,0.6c-2.2,1.2-3,3.9-1.9,6.1l-27.9,16.2c-1.8-2.2-5-2.9-7.6-1.5c-0.7,0.4-1.2,0.8-1.7,1.4
	l-28.2-16.1c0.6-1.2,0.6-2.6,0-3.8c-0.7-1.3-2-2-3.3-2l-0.1-33.5c0.6-0.1,1.2-0.2,1.8-0.6c2.2-1.2,3-3.9,1.9-6.1l27.4-16
	c1.7,2.5,5.1,3.4,7.9,1.8c0.8-0.5,1.5-1.1,2-1.8l26.5,15.2c-0.8,1.7-0.8,3.7,0.2,5.5c1,1.8,2.8,2.9,4.7,3.1L972.4,438.8z
	 M1152.7,335.5c-0.5,1.1-0.5,2.3,0.1,3.5c0.6,1.1,1.7,1.8,2.8,1.9l0.1,32.3c-0.9,0-1.8,0.3-2.6,0.7c-2.9,1.6-3.9,5.2-2.4,8.1
	l-28.2,16.4c-1-1.7-3.2-2.3-5-1.3c-0.5,0.3-0.9,0.7-1.2,1.1l-27.9-16c0.9-1.7,1-3.9-0.1-5.7c-1.1-1.9-3-3-5.1-3.1l-0.1-32.4
	c0.5-0.1,0.9-0.2,1.4-0.4c1.7-1,2.4-3.1,1.6-4.9l28.4-16.5c1.7,2.5,5.1,3.4,7.9,1.9c0.8-0.5,1.5-1.1,2-1.8L1152.7,335.5z
	 M1079.3,335.8c-0.5,1-0.5,2.3,0.1,3.4c0.6,1.1,1.6,1.7,2.7,1.9l0.1,32.5c-0.7,0.1-1.4,0.3-2.1,0.7c-2.8,1.5-3.8,5-2.5,7.8
	l-28.6,16.6c-1.1-1.5-3.2-2.1-4.9-1.1c-0.5,0.3-0.9,0.7-1.2,1.1l-28.3-16.2c0.8-1.7,0.8-3.8-0.1-5.6c-1-1.8-2.8-2.9-4.8-3.1
	l-0.1-32.8c0.5-0.1,0.9-0.2,1.3-0.4c1.7-0.9,2.3-2.9,1.6-4.7l29.8-17.3c1.3,1.8,3.7,2.4,5.6,1.3c0.6-0.3,1-0.7,1.4-1.2L1079.3,335.8
	z M972.1,151.4c0.6-0.1,1.2-0.3,1.8-0.6c2.2-1.2,3-3.9,1.9-6.1l29.6-17.3c1.1,1.4,3.1,1.9,4.8,1c0.4-0.2,0.8-0.5,1.1-0.9l30.3,17.4
	c-0.5,1.1-0.5,2.4,0.1,3.5c0.6,1.1,1.7,1.8,2.9,1.9l0.1,33.7c-0.7,0-1.3,0.2-1.9,0.6c-2.2,1.2-3,3.9-1.9,6.1l-29.5,17.2
	c-1.1-1.5-3.2-2-4.8-1c-0.4,0.2-0.7,0.5-1,0.9l-30.3-17.4c0.4-1,0.3-2.1-0.2-3.1c-0.6-1.1-1.6-1.7-2.8-1.9L972.1,151.4z
	 M935.6,214.2c0.4-0.1,0.9-0.2,1.3-0.4c1.7-1,2.4-3.1,1.6-4.8l30.3-17.6c1.1,1.4,3.1,1.9,4.8,1c0.5-0.3,0.9-0.6,1.2-1l30.3,17.3
	c-0.5,1-0.5,2.3,0.1,3.3c0.6,1.2,1.8,1.8,3,1.9l0.1,34.3c-0.6,0.1-1.1,0.2-1.6,0.5c-2,1.1-2.7,3.5-1.8,5.6l-29.9,17.4
	c-1.1-1.3-3-1.6-4.6-0.8c-0.4,0.2-0.7,0.5-0.9,0.8l-29.9-17.1c0.5-1.3,0.5-2.7-0.2-4c-0.8-1.4-2.1-2.2-3.5-2.4L935.6,214.2z
	 M829,318.2c0.5-1.1,0.5-2.4-0.1-3.5c-0.6-1.1-1.8-1.8-3-1.9l-0.1-33.9c0.6-0.1,1.3-0.2,1.8-0.6c2.1-1.2,2.9-3.8,2-6l29.3-17.1
	c1.1,1.6,3.2,2.1,4.9,1.1c0.5-0.3,0.9-0.7,1.2-1.1l28.4,16.2c-0.9,1.7-0.9,3.8,0.1,5.6c1,1.8,2.8,2.9,4.7,3l0.1,31.5
	c-0.6,0.1-1.2,0.2-1.8,0.6c-2.2,1.2-3,3.9-1.9,6.1l-29.4,17.1c-1.1-1.4-3.1-1.9-4.8-1c-0.5,0.3-0.9,0.6-1.2,1.1L829,318.2z
	 M903.1,318.4c0.6-1.3,0.6-2.9-0.1-4.2c-0.8-1.3-2.1-2.2-3.5-2.3l-0.1-31.6c0.8-0.1,1.7-0.3,2.4-0.7c2.8-1.6,3.9-5.1,2.4-8
	l27.4-15.9c1.4,1.9,3.9,2.5,6,1.3c0.6-0.3,1.1-0.8,1.5-1.4l29.8,17c-0.5,1.1-0.5,2.3,0.1,3.4c0.6,1.1,1.7,1.7,2.8,1.9l0.1,32.3
	c-0.8,0.1-1.6,0.3-2.4,0.7c-2.8,1.6-3.9,5-2.5,7.9l-28.4,16.5c-1.1-1.5-3.2-2-4.9-1.1c-0.5,0.3-0.9,0.6-1.2,1L903.1,318.4z
	 M936.2,341.2c0.4-0.1,0.8-0.2,1.2-0.4c1.6-0.9,2.3-2.9,1.7-4.6l28.4-16.6c1.8,2.4,5.1,3.2,7.8,1.7c0.8-0.4,1.4-1,1.9-1.7l28.4,16.3
	c-0.4,1-0.4,2.2,0.2,3.2c0.6,1.1,1.6,1.7,2.7,1.9l0.1,32.8c-0.8,0.1-1.6,0.3-2.3,0.7c-2.8,1.6-3.8,5-2.5,7.8l-26.4,15.3
	c-1.8-2.4-5.1-3.2-7.7-1.7c-0.8,0.4-1.4,1-1.9,1.7l-26.6-15.2c0.7-1.7,0.7-3.7-0.2-5.4c-1-1.8-2.9-2.9-4.8-3.1L936.2,341.2z
	 M826.3,407.5c0.8-0.1,1.6-0.3,2.4-0.7c2.8-1.5,3.8-4.9,2.5-7.7l27.7-16.1c1.3,2,4,2.6,6.1,1.5c0.6-0.3,1.1-0.8,1.4-1.3l28.7,16.4
	c-0.6,1.3-0.6,2.9,0.1,4.3c0.8,1.4,2.1,2.2,3.5,2.3l0.1,33.6c-0.4,0.1-0.7,0.2-1.1,0.4c-1.8,1-2.5,3.2-1.7,5l-28.5,16.6
	c-1.7-2.6-5.2-3.5-7.9-2c-0.8,0.5-1.5,1.1-2,1.9l-28.6-16.4c0.4-1,0.4-2.1-0.1-3.2c-0.5-1-1.5-1.6-2.5-1.7L826.3,407.5z
	 M789.7,469.5c0.5-0.1,1-0.2,1.4-0.5c1.8-1,2.5-3.2,1.7-5.1l30.5-17.8c1.1,1.2,2.8,1.5,4.3,0.7c0.3-0.2,0.6-0.4,0.9-0.7l28.7,16.4
	c-0.7,1.7-0.7,3.6,0.2,5.4c1,1.9,2.9,2.9,4.9,3.1l0.1,32c-0.6,0.1-1.2,0.2-1.7,0.6c-2.1,1.2-2.9,3.8-2,6l-29.5,17.2
	c-1.1-1.4-3.1-1.9-4.8-1c-0.4,0.2-0.8,0.6-1.1,0.9L794.2,510c0.7-1.5,0.7-3.2-0.2-4.7c-0.9-1.6-2.5-2.5-4.2-2.7L789.7,469.5z
	 M748.8,527.3c-0.3,1.2-0.2,2.5,0.4,3.6c0.7,1.2,1.9,2,3.2,2.3l0.1,33c-0.7,0.1-1.3,0.3-2,0.6c-2.4,1.4-3.4,4.4-2.2,6.8l-28,16.3
	c-1.3-2-4-2.7-6.1-1.5c-0.7,0.4-1.3,1-1.7,1.6l-28.6-16.4c0.6-1.3,0.7-2.9-0.1-4.3c-0.8-1.4-2.2-2.3-3.7-2.4l-0.1-31.7
	c0.9,0,1.8-0.3,2.7-0.7c2.8-1.6,3.9-5,2.4-7.9l28-16.3c1.1,1.5,3.2,2.1,4.9,1.1c0.5-0.3,0.9-0.7,1.3-1.2L748.8,527.3z M783.4,335.5
	c-0.8,1.7-0.9,3.8,0.1,5.6c1,1.9,2.9,2.9,4.9,3.1l0.1,31.7c-0.6,0.1-1.2,0.2-1.7,0.6c-2.1,1.2-2.9,3.8-2,6l-29.4,17.1
	c-1.2-1.6-3.4-2.2-5.2-1.2c-0.5,0.3-0.9,0.6-1.2,1.1l-28.8-16.5c0.6-1.5,0.6-3.2-0.2-4.7c-0.9-1.5-2.4-2.5-4-2.6l-0.1-33.6
	c0.4-0.1,0.8-0.2,1.2-0.4c1.7-0.9,2.3-2.9,1.6-4.6l30.6-17.8c1,1.4,2.9,1.8,4.5,1c0.4-0.2,0.8-0.6,1.1-1L783.4,335.5z M642.4,343
	c0.6-0.1,1.1-0.2,1.6-0.5c2-1.1,2.8-3.6,1.8-5.6l28.3-16.5c1.6,2.2,4.5,2.9,6.9,1.6c0.8-0.4,1.4-1,1.8-1.7l28.9,16.6
	c-0.4,1-0.4,2.2,0.2,3.3c0.6,1.1,1.7,1.8,2.9,1.9l0.1,33.5c-0.7,0.1-1.5,0.2-2.2,0.6c-2.4,1.4-3.4,4.4-2.2,6.9l-28.9,16.9
	c-1.1-1.5-3.1-1.9-4.8-1c-0.4,0.2-0.8,0.6-1.1,0.9l-29.1-16.6c0.7-1.5,0.7-3.3-0.2-4.8c-0.9-1.6-2.4-2.5-4.1-2.7L642.4,343z
	 M605.8,407.2c0.6-0.1,1.3-0.2,1.9-0.6c2.2-1.2,3-3.9,1.9-6.1l28.2-16.4c1.6,2.1,4.4,2.7,6.8,1.4c0.7-0.4,1.2-0.9,1.6-1.5l29.1,16.7
	c-0.4,1-0.4,2.2,0.2,3.2c0.6,1.1,1.7,1.8,2.8,1.9l0.1,34c-0.7,0-1.4,0.2-2,0.6c-2.2,1.2-3,4-1.9,6.2l-29.2,17
	c-1.1-1.5-3.2-2-4.8-1.1c-0.5,0.3-0.9,0.6-1.2,1l-28.2-16.1c0.7-1.6,0.7-3.6-0.3-5.3c-1-1.9-2.9-3-4.9-3.1L605.8,407.2z
	 M390.7,448.2c0.8-1.7,0.7-3.7-0.2-5.4c-1-1.9-2.9-3-4.9-3.1l-0.1-31.5c0.8,0,1.7-0.2,2.4-0.6c2.4-1.4,3.4-4.4,2.2-6.9l28.4-16.6
	c1.2,1.6,3.4,2.1,5.1,1.1c0.5-0.3,0.9-0.6,1.2-1.1l27.9,16c-0.8,1.7-0.8,3.7,0.2,5.5c1.1,1.9,3,3,5,3.1l0.1,32.9
	c-0.4,0.1-0.7,0.2-1.1,0.4c-1.7,0.9-2.4,2.9-1.9,4.7l-29.8,17.4c-1.4-1.7-3.9-2.2-5.9-1.1c-0.5,0.3-0.9,0.6-1.2,1L390.7,448.2z
	 M426.8,511.2c0.7-1.5,0.7-3.2-0.2-4.8c-0.9-1.5-2.4-2.5-4-2.7l-0.1-32.1c0.5-0.1,1.1-0.2,1.6-0.5c2.2-1.2,3-4,1.9-6.2l29.7-17.3
	c1.1,1.8,3.5,2.4,5.3,1.4c0.5-0.3,0.9-0.7,1.2-1.1l28.9,16.5c-0.6,1.3-0.6,2.9,0.1,4.3c0.8,1.4,2.2,2.3,3.8,2.4l0.1,33
	c-0.6,0.1-1.1,0.2-1.6,0.5c-2.1,1.2-3,3.8-1.9,6L462,527.8c-1.2-1.7-3.4-2.2-5.2-1.2c-0.5,0.3-0.9,0.7-1.2,1.1L426.8,511.2z
	 M499.9,510.7c0.6-1.3,0.7-2.9-0.1-4.3c-0.8-1.4-2.2-2.3-3.7-2.4l-0.1-33c0.5-0.1,1.1-0.2,1.6-0.5c2.1-1.2,2.9-3.7,2-5.9L528,448
	c1.5,2.2,4.5,3,6.9,1.6c0.7-0.4,1.2-0.9,1.7-1.5l27.6,15.8c-0.8,1.5-0.8,3.4,0.1,5c0.9,1.6,2.5,2.5,4.2,2.7l0.1,32.8
	c-0.5,0.1-0.9,0.2-1.3,0.4c-1.8,1-2.5,3.2-1.7,5.1l-29.3,17c-1.3-2-4-2.7-6.1-1.5c-0.7,0.4-1.2,0.9-1.6,1.5L499.9,510.7z
	 M572.7,510.2c0.5-1.1,0.5-2.5-0.1-3.7c-0.7-1.2-1.8-1.9-3.1-2l-0.1-32.8c0.7-0.1,1.3-0.3,1.9-0.6c2.5-1.4,3.4-4.5,2.1-7l27-15.7
	c1.7,2.7,5.2,3.6,8,2c0.9-0.5,1.6-1.1,2.1-1.9l28.2,16.1c-0.4,1-0.3,2.1,0.2,3.1c0.6,1.1,1.7,1.8,2.9,1.9l0.1,35.2
	c-0.5,0-1,0.2-1.5,0.5c-1.7,0.9-2.3,3-1.6,4.7l-28.7,16.7c-1.6-2-4.4-2.6-6.7-1.4c-0.7,0.4-1.3,0.9-1.7,1.6L572.7,510.2z
	 M606.4,535.1c0.8-0.1,1.5-0.2,2.2-0.6c2.5-1.4,3.4-4.5,2.1-7l28.7-16.7c1.1,1.5,3.1,1.9,4.8,1c0.5-0.3,0.9-0.7,1.3-1.2l28.7,16.4
	c-0.7,1.7-0.7,3.6,0.3,5.3c1,1.7,2.7,2.8,4.5,3l0.1,31.8c-0.5,0.1-1.1,0.2-1.6,0.5c-2.1,1.2-3,3.8-2,6L646,590.8
	c-1.1-1.4-3.1-1.8-4.7-0.9c-0.5,0.3-0.9,0.6-1.2,1l-29.7-17c0.7-1.3,0.7-3-0.1-4.4c-0.8-1.4-2.3-2.3-3.8-2.4L606.4,535.1z
	 M496.5,597.4c0.5,0,1-0.2,1.5-0.5c1.7-1,2.4-3,1.6-4.8l29.3-17.1c1.4,1.8,3.9,2.4,6,1.3c0.6-0.3,1.1-0.8,1.5-1.4l29.6,17
	c-0.4,1-0.4,2.2,0.2,3.3c0.6,1.1,1.6,1.7,2.8,1.9l0.1,34.3c-0.5,0.1-1,0.2-1.5,0.5c-2.1,1.1-2.9,3.6-2.1,5.8l-28.6,16.6
	c-1.5-2.1-4.5-2.8-6.8-1.5c-0.6,0.3-1.1,0.8-1.5,1.3l-28.7-16.4c0.4-1,0.4-2.2-0.2-3.3c-0.7-1.2-1.8-1.8-3.1-1.9L496.5,597.4z
	 M459.9,663c0.8,0,1.6-0.2,2.4-0.6c2.5-1.4,3.5-4.6,2-7.2c0,0,0,0,0,0l29-16.9c1.1,1.6,3.2,2.1,4.9,1.2c0.4-0.2,0.8-0.5,1.1-0.9
	L528,655c-0.8,1.5-0.8,3.4,0.1,5c0.9,1.6,2.6,2.6,4.4,2.7l0.1,33.2c-0.5,0.1-0.9,0.2-1.3,0.4c-1.7,1-2.4,3.1-1.6,4.8l-30.2,17.6
	c-1.2-1.4-3.3-1.8-4.9-0.8c-0.4,0.2-0.7,0.5-1,0.8l-29.1-16.7c0.7-1.5,0.8-3.3-0.1-4.9c-0.9-1.6-2.5-2.5-4.2-2.7L459.9,663z
	 M350.1,726.8c0.8,0,1.6-0.2,2.4-0.6c2.5-1.4,3.4-4.6,2.1-7.1l26.8-15.6c1.7,2.7,5.2,3.7,8,2.1c0.9-0.5,1.6-1.2,2.1-2l28,16
	c-0.6,1.1-0.6,2.5,0.1,3.7c0.6,1.1,1.7,1.8,2.9,2l0.1,32.9c-0.6,0.1-1.2,0.3-1.8,0.6c-2.4,1.3-3.3,4.3-2.2,6.8l-27.8,16.2
	c-1.5-2.3-4.5-3.1-7-1.8c-0.8,0.4-1.4,1-1.8,1.7l-28.9-16.6c0.4-1,0.4-2.2-0.2-3.2c-0.6-1.1-1.6-1.7-2.7-1.9L350.1,726.8z
	 M308,783.3c-0.6,1.5-0.6,3.2,0.2,4.7c0.9,1.6,2.5,2.5,4.2,2.7l0.2,22.1l0,10.8c-0.5,0.1-1,0.2-1.5,0.5c-2,1.1-2.8,3.6-1.9,5.6
	l-29.7,17.5c-1.1-1.6-3.2-2.1-4.9-1.1c-0.5,0.3-0.9,0.6-1.2,1l-29.5-16.7c0.5-1.2,0.5-2.6-0.2-3.8c-0.7-1.3-2.1-2.1-3.5-2.3
	l-0.3-34.6c0.5-0.1,0.9-0.2,1.3-0.4c1.7-0.9,2.3-3,1.6-4.7l28.9-17c1.5,2.2,4.5,2.9,6.9,1.6c0.7-0.4,1.2-0.9,1.7-1.5L308,783.3z
	 M132.6,767.1c0.4-1,0.4-2.2-0.2-3.2c-0.6-1.1-1.7-1.8-2.9-1.9l-0.2-33.3c0.8,0,1.5-0.2,2.2-0.6c2.5-1.4,3.4-4.6,2.1-7.1l28.7-16.8
	c1.2,1.5,3.3,2,5.1,1c0.5-0.3,0.9-0.6,1.2-1l30.1,17.1c-0.4,1-0.4,2.2,0.2,3.3c0.6,1.1,1.8,1.8,3,1.9l0.2,32.7
	c-0.8,0.1-1.6,0.3-2.4,0.7c-2.8,1.5-3.8,5-2.5,7.8l-27,15.9c-1.5-2.3-4.5-3-6.9-1.7c-0.7,0.4-1.3,1-1.8,1.7L132.6,767.1z
	 M166.5,791.7c0.7-0.1,1.3-0.3,1.9-0.6c2.3-1.3,3.3-4.1,2.3-6.6l27-15.9c1.8,2.4,5.1,3.2,7.8,1.7c0.8-0.5,1.5-1.1,2-1.8l28.4,16.1
	c-0.3,1-0.3,2.1,0.2,3.1c0.6,1,1.6,1.7,2.7,1.9l0.3,34.7c-0.5,0.1-1,0.2-1.4,0.5c-2,1.1-2.8,3.5-1.9,5.5l-29,17.1
	c-1.3-1.7-3.7-2.3-5.7-1.2c-0.6,0.3-1,0.8-1.4,1.3l-28.4-16.1c0.7-1.5,0.8-3.3-0.1-4.9c-0.9-1.6-2.6-2.6-4.3-2.7L166.5,791.7z
	 M56.8,855c0.5,0,1-0.2,1.5-0.5c1.7-1,2.4-3.1,1.5-4.9l29.4-17.2c1.3,1.8,3.8,2.4,5.7,1.3c0.6-0.4,1.1-0.9,1.5-1.4l28.4,16.1
	c-0.7,1.5-0.7,3.2,0.2,4.8c0.9,1.6,2.5,2.6,4.2,2.7l0.2,31.9c-0.7,0.1-1.4,0.3-2,0.6c-2.5,1.4-3.4,4.4-2.1,6.9l-28.8,16.9
	c-1.1-1.6-3.2-2.2-4.9-1.2c-0.5,0.3-0.9,0.7-1.2,1.1l-28.7-16.3c0.7-1.5,0.7-3.3-0.1-4.8c-0.9-1.7-2.6-2.6-4.4-2.7L56.8,855z"/>
<rect x="145.5" y="88.5" style="fill:none;" width="850.4" height="850.4"/>
</svg>
