<svg xmlns="http://www.w3.org/2000/svg" viewBox="0 0 1240.6 984"><path d="M30 849.3c.7-.2 1.4-.6 1.9-1.1L56.8 870c-.5.9-.7 2-.4 3 .6 2 2.7 3.1 4.7 2.4 1.7-.6 2.8-2.3 2.6-4l31.7-10.8c1.1 2.3 3.8 3.5 6.3 2.7.8-.2 1.4-.7 2-1.2l24.9 21.8c-.7 1-.9 2.3-.5 3.6.7 2.2 3.1 3.5 5.4 2.8 2.1-.7 3.3-2.9 2.9-5l31-10.5c1.1 2.4 3.8 3.6 6.3 2.8 2.8-.9 4.3-3.8 3.4-6.6-.5-1.7-1.8-2.9-3.4-3.4l6.4-32.1c.6.1 1.2 0 1.8-.2 2.2-.7 3.5-3 3-5.2l31.8-10.8c.9 2.1 3.2 3.2 5.4 2.5.7-.2 1.2-.6 1.7-1l25.5 22.3c-.6.9-.8 2-.4 3.2.6 2 2.7 3.1 4.7 2.4 1.8-.6 2.8-2.3 2.6-4.1l32.7-11.1c.9 2 3.2 3.1 5.4 2.4.7-.2 1.2-.6 1.7-1l25.8 22.7c-.6.9-.9 2.1-.5 3.3.4 1.2 1.2 2 2.3 2.4l-6.7 33.2c-.6 0-1.1 0-1.7.2-2.3.7-3.6 3.2-2.9 5.6.7 2.3 3.2 3.6 5.6 2.9.6-.2 1.1-.5 1.5-.9l24.7 21.8c-.9 1.3-1.2 2.9-.7 4.5.9 2.8 3.8 4.3 6.6 3.4 2.6-.8 4.1-3.5 3.5-6.2l30.9-10.4c.9 2.1 3.2 3.3 5.4 2.6.7-.2 1.2-.6 1.7-1l24.5 21.6c-.8 1.3-1.1 2.9-.6 4.5.9 2.8 3.8 4.3 6.6 3.4 2.6-.8 4.1-3.4 3.6-6l31.8-10.7c.8 1.7 2.7 2.5 4.5 2 2-.6 3.1-2.7 2.4-4.7-.4-1.2-1.3-2.1-2.5-2.5l6.6-32.6c.8.1 1.6.1 2.4-.2 2.7-.9 4.2-3.7 3.5-6.5l30.9-10.4c.9 2.1 3.2 3.2 5.4 2.5.6-.2 1.2-.5 1.6-.9l24.8 21.9c-.7 1.1-.9 2.4-.5 3.7.7 2.3 3.2 3.6 5.6 2.9 2.1-.7 3.3-2.7 3.1-4.8l32.6-11c.9 1.5 2.7 2.2 4.4 1.7.4-.1.8-.4 1.2-.6l25.9 22.8c-.7 1.1-.9 2.4-.5 3.7.7 2.3 3.2 3.6 5.6 2.9 2.1-.7 3.4-2.8 3-5l32.3-10.9c.8 1.8 2.8 2.7 4.8 2.1 2.1-.7 3.2-2.9 2.6-4.9-.4-1.3-1.4-2.2-2.5-2.5l6.7-33c.5 0 1.1 0 1.7-.2 2.5-.8 3.8-3.4 3-5.9-.8-2.5-3.4-3.8-5.9-3-.5.2-1 .4-1.4.8l-25.8-22.7c.6-.9.9-2.1.5-3.3-.6-2-2.7-3.1-4.7-2.4-1.9.6-3 2.6-2.5 4.5L594 845.8c-1-2.5-3.8-3.9-6.5-3.1-.8.3-1.5.7-2.1 1.3l-24.9-22c.5-.9.7-2 .3-3-.6-2-2.7-3.1-4.7-2.4-1.7.6-2.8 2.3-2.6 4l-33.4 11.2c-.9-1.5-2.7-2.3-4.4-1.7-.4.1-.7.3-1 .5l-26.3-23.2c.6-.9.9-2.1.5-3.3-.4-1.2-1.3-2-2.4-2.4l6.8-33.7c.5 0 1 0 1.4-.2 2.1-.7 3.2-2.8 2.6-4.9l33.1-11.1c.8 1.6 2.7 2.4 4.4 1.8 2-.6 3.1-2.7 2.4-4.7-.4-1.2-1.3-2-2.3-2.4l6.6-32.6c.6 0 1.3 0 1.9-.2 2.7-.8 4.2-3.6 3.5-6.2l31.3-10.5c.9 2.2 3.4 3.4 5.7 2.7.7-.2 1.2-.6 1.7-1l25.2 22.2c-.6.9-.8 2.1-.5 3.2.4 1.2 1.4 2.1 2.5 2.5l-6.9 34.3c-.4 0-.8 0-1.2.2-2 .6-3.1 2.7-2.4 4.7.6 2 2.7 3.1 4.7 2.4.4-.1.8-.3 1.1-.6l25 22c-.9 1.3-1.2 2.9-.7 4.5.9 2.8 3.8 4.3 6.6 3.4 2.5-.8 4-3.4 3.6-5.9l31.7-10.7c.8 1.6 2.7 2.5 4.5 1.9 2-.6 3.1-2.7 2.4-4.7-.4-1.1-1.2-2-2.3-2.4l6.7-33.5c.6.1 1.2 0 1.8-.2 2.5-.8 3.8-3.4 3-5.9-.8-2.5-3.4-3.8-5.9-3-.7.2-1.2.6-1.7 1l-24.4-21.5c1-1.3 1.4-3.1.9-4.8-.6-1.7-1.9-3-3.6-3.5l6.6-32.6c.5.1 1 0 1.5-.2 1.9-.6 2.9-2.5 2.5-4.4l32.3-10.9c1 2.1 3.4 3.2 5.6 2.5.6-.2 1.1-.5 1.6-.9l24.8 21.9c-.7 1.1-.9 2.5-.5 3.8.8 2.5 3.4 3.8 5.9 3 2.2-.7 3.6-3 3.2-5.2l30.7-10.3c1.1 2.4 3.8 3.6 6.4 2.8.7-.2 1.4-.6 1.9-1.1l25.2 22.2c-.5.9-.7 2-.4 3.1.4 1.1 1.2 2 2.2 2.4l-6.7 33c-.6 0-1.3 0-1.9.2-2.8.9-4.3 3.8-3.4 6.6.9 2.8 3.8 4.3 6.6 3.4.7-.2 1.4-.6 1.9-1.1l24.3 21.4c-.7 1.1-.9 2.5-.5 3.9.8 2.5 3.4 3.8 5.9 3 2.3-.7 3.6-3 3.2-5.3l31.3-10.5c1 2.1 3.4 3.2 5.6 2.5.6-.2 1.2-.5 1.7-.9l25.8 22.8c-.5.8-.6 1.9-.3 2.9.6 1.9 2.7 3 4.6 2.4 1.8-.6 2.8-2.4 2.5-4.2l32-10.8c1.1 1.9 3.3 2.9 5.5 2.2 2.5-.8 3.8-3.4 3-5.9-.5-1.4-1.5-2.5-2.8-3l6.7-33.5c.5.1 1 0 1.5-.1 1.8-.6 2.8-2.3 2.6-4.1l31.4-10.6c1.1 2.3 3.8 3.6 6.3 2.8.8-.2 1.4-.6 1.9-1.1l25.1 22.1c-.6.9-.9 2.1-.5 3.2.6 2 2.7 3.1 4.7 2.4 1.8-.6 2.8-2.4 2.6-4.2l32.4-10.9c1 2 3.3 3 5.5 2.3 2.5-.8 3.8-3.4 3-5.9-.5-1.4-1.5-2.5-2.8-3l6.4-31.8c.8.1 1.6.1 2.3-.2 2.8-.9 4.3-3.8 3.4-6.6-.9-2.8-3.8-4.3-6.6-3.4-.8.3-1.5.7-2.1 1.2l-25.3-22.3c.6-.9.8-2 .4-3.2-.6-2-2.7-3.1-4.7-2.4-1.8.6-2.9 2.4-2.5 4.3l-33.3 11.2c-.8-1.7-2.7-2.6-4.5-2-.5.2-.9.4-1.3.7l-25.5-22.5c.8-1.1 1-2.6.6-4-.8-2.5-3.4-3.8-5.9-3-2.3.7-3.6 3.1-3.1 5.4l-30.1 10.1c-1.2-2.8-4.4-4.3-7.3-3.4-3.2 1-4.9 4.4-3.9 7.5.6 2 2.2 3.4 4 3.9l-6.3 31.3c-.6 0-1.2 0-1.8.2-2.3.7-3.6 3.1-3.1 5.4L882.1 710c-.8-1.5-2.7-2.3-4.4-1.7-.4.1-.8.3-1.1.6l-24.7-21.8c1.1-1.5 1.6-3.5 1-5.5-.6-2-2.2-3.4-4-3.9l6.4-32c.4 0 .8 0 1.3-.2 1.8-.6 2.9-2.4 2.5-4.3l32.4-10.9c1 2.1 3.4 3.2 5.6 2.5 2.5-.8 3.8-3.4 3-5.9-.5-1.5-1.7-2.6-3.1-3l6.3-31.4c.8.1 1.6 0 2.4-.2 3-.9 4.7-4 4.1-7l31.2-10.5c.8 1.8 2.9 2.7 4.8 2.1.4-.1.8-.3 1.1-.6l24.3 21.5c-1.4 1.5-1.9 3.7-1.3 5.8 1 3.2 4.4 4.9 7.5 3.9 3.2-1 4.9-4.4 3.9-7.5l30.6-10.3c1 2 3.3 3.1 5.6 2.4 2.5-.8 3.8-3.4 3-5.9-.5-1.5-1.6-2.5-2.9-3l6.2-30.9c.8.1 1.7 0 2.5-.2 3.1-1 4.8-4.2 4-7.3l28.9-9.7c1.2 2.8 4.4 4.2 7.3 3.3.9-.3 1.6-.7 2.3-1.3l24.5 21.6c-.6.9-.8 2-.4 3.1.6 2 2.7 3.1 4.7 2.4 1.8-.6 2.8-2.3 2.6-4.1l31.4-10.6c1.2 2.8 4.4 4.3 7.3 3.4.8-.3 1.5-.7 2.1-1.2l24.2 21.3c-.5.9-.7 2-.4 3 .6 2 2.7 3.1 4.7 2.4 1.7-.5 2.7-2.2 2.6-3.9l31.1-10.5c1.3 2.6 4.3 4 7.2 3.1 3.2-1 4.9-4.4 3.9-7.5-.6-1.9-2.1-3.3-3.8-3.9l6.4-31.7c.4 0 .9 0 1.3-.2 2-.6 3.1-2.7 2.4-4.7-.6-2-2.7-3.1-4.7-2.4-.4.1-.8.3-1.1.6l-24.6-21.7c1.1-1.5 1.5-3.5.9-5.4-1-3.2-4.4-4.9-7.5-3.9-3 1-4.7 4.1-4 7.1l-31.2 10.5c-.8-1.5-2.7-2.3-4.4-1.8-.5.1-.9.4-1.2.7l-25.8-22.7c.7-1.1 1-2.4.6-3.8-.7-2.3-3.2-3.5-5.4-2.8-2.1.7-3.3 2.8-2.9 4.9l-32.6 11c-.8-1.7-2.7-2.5-4.5-2-.5.2-1 .4-1.4.8l-24.5-21.6c1.2-1.5 1.6-3.5 1-5.5-.6-2-2.2-3.4-4.1-4l6.4-31.7c.4 0 .9 0 1.3-.2 1.9-.6 3-2.6 2.5-4.5l32.7-11c.9 1.9 3.1 2.9 5.2 2.2 2.3-.7 3.5-3.2 2.8-5.4-.4-1.4-1.5-2.4-2.8-2.8l6.8-33.7c.4 0 .7 0 1.1-.2 1.8-.6 2.9-2.4 2.5-4.2l32.4-10.9c1 2 3.3 3 5.5 2.3 2.5-.8 3.8-3.4 3-5.9-.5-1.4-1.6-2.5-2.9-3l6.7-33.2c.4 0 .8 0 1.2-.2 2-.6 3.1-2.7 2.4-4.7-.6-2-2.7-3.1-4.7-2.4-.4.1-.8.3-1.1.6l-26.3-23.1c.7-.9.9-2.1.5-3.3-.6-2-2.7-3.1-4.7-2.4-1.8.6-2.9 2.5-2.5 4.3l-32.5 10.9c-1-2-3.3-3.1-5.6-2.4-2.5.8-3.8 3.4-3 5.9.5 1.5 1.6 2.6 3 3l-6.7 33.3c-.5 0-.9 0-1.4.2-1.8.6-2.9 2.4-2.5 4.3l-33.2 11.2c-.8-1.6-2.7-2.3-4.4-1.8-2 .6-3.1 2.7-2.4 4.7.4 1.2 1.3 2 2.4 2.4l-6.7 33.3c-.6-.1-1.3 0-1.9.2-2.3.7-3.6 3.1-3.1 5.5l-30 10.1c-1.3-2.7-4.3-4.1-7.2-3.2-.9.3-1.6.7-2.2 1.3L949.1 381c.5-.9.7-2 .4-3.1-.6-2-2.7-3.1-4.7-2.4-1.8.6-2.8 2.3-2.6 4.1L910 390.4c-1-2.1-3.4-3.2-5.6-2.5-2.5.8-3.8 3.4-3 5.9.5 1.5 1.6 2.5 3 3l-6.7 33.3c-.4 0-.8 0-1.2.2-2 .6-3.1 2.7-2.4 4.7.6 2 2.7 3.1 4.7 2.4.4-.1.8-.3 1.1-.6l26.3 23.2c-.6.9-.8 2-.4 3.1.6 2 2.7 3.1 4.7 2.4 1.8-.6 2.9-2.4 2.5-4.3l32.2-10.8c1 2 3.3 3.1 5.6 2.4.6-.2 1.2-.5 1.7-.9l25.6 22.5c-.6.9-.8 2-.4 3.2.4 1.2 1.3 2.1 2.4 2.4l-6.5 32.3c-.8-.1-1.6 0-2.4.2-3 1-4.7 4.1-4 7.1l-30.1 10.1c-1-2-3.3-3.1-5.6-2.4-.6.2-1.2.5-1.6.9l-24.8-21.8c.9-1.2 1.2-2.7.7-4.2-.8-2.5-3.4-3.8-5.9-3-2.3.7-3.6 3-3.2 5.3l-30.4 10.2c-1.2-2.8-4.4-4.4-7.3-3.4-3.2 1-4.9 4.4-3.9 7.5.6 2 2.2 3.4 4.1 4l-6.5 32.2c-.4 0-.9 0-1.3.1-1.8.6-2.8 2.4-2.3 4.2l-33.4 11.2c-.9-1.7-2.9-2.6-4.8-2-2.1.7-3.3 2.9-2.6 5 .4 1.3 1.4 2.2 2.6 2.6l-6.5 32.4c-.7-.1-1.4 0-2.1.2-2.7.8-4.2 3.6-3.5 6.3l-30.3 10.2c-.9-2.2-3.4-3.4-5.7-2.7-.9.3-1.6.8-2.1 1.4l-25.6-22.6c.5-.9.7-2 .4-3-.6-2-2.7-3.1-4.7-2.4-1.8.6-2.8 2.3-2.6 4.1l-30.7 10.3c-1.2-2.7-4.3-4.2-7.3-3.3-1 .3-1.8.8-2.5 1.5l-24.8-21.9c.5-.9.7-2 .4-3-.4-1.1-1.2-1.9-2.2-2.3l7-34.6c.4 0 .9 0 1.3-.2 1.8-.6 2.8-2.4 2.6-4.2l32.1-10.8c1 2 3.3 3 5.5 2.3 2.5-.8 3.8-3.4 3-5.9-.4-1.4-1.5-2.4-2.8-2.9l6.7-33.4c.4 0 .9 0 1.3-.2 1.8-.6 2.9-2.4 2.5-4.2l31.8-10.7c1.1 2.4 3.8 3.6 6.3 2.8.8-.3 1.5-.7 2.1-1.2l24.9 21.9c-.7 1-.9 2.3-.5 3.5.7 2.1 2.9 3.3 5 2.6 1.9-.6 3-2.5 2.7-4.5l32.3-10.9c1 2.1 3.4 3.2 5.6 2.5 2.5-.8 3.8-3.4 3-5.9-.5-1.5-1.7-2.6-3.1-3.1l6.3-31.1c.8.1 1.6 0 2.4-.3 3.2-1 4.9-4.4 3.9-7.5-1-3.2-4.4-4.9-7.5-3.9-.9.3-1.6.7-2.2 1.3l-24.7-21.8c.5-.8.7-1.9.4-2.9-.6-1.8-2.5-2.9-4.4-2.3-1.7.5-2.7 2.2-2.4 3.9l-33.5 11.3c-.8-1.7-2.7-2.6-4.5-2-.5.2-.9.4-1.3.7l-25-22.1c.9-1.3 1.2-3 .7-4.6-.9-2.8-3.9-4.4-6.7-3.5-2.7.8-4.2 3.6-3.6 6.3L717 416.6c-.9-1.9-3.1-2.8-5.2-2.2-2.3.7-3.6 3.2-2.8 5.4.4 1.4 1.5 2.4 2.8 2.8l-6.5 32c-.7-.1-1.5 0-2.2.2-2.7.8-4.2 3.6-3.5 6.3l-31 10.4c-1-2-3.3-3-5.5-2.3-2.5.8-3.8 3.4-3 5.9.5 1.5 1.6 2.5 2.9 3l-6.3 31.3c-.8-.1-1.6 0-2.3.3-2.9.9-4.7 3.9-4.1 6.9l-29.7 10c-1.1-2.3-3.8-3.5-6.3-2.7-.7.2-1.3.5-1.8 1l-23.9-21.1c1-1.3 1.4-3.1.8-4.8-.9-2.8-3.8-4.3-6.6-3.4-2.6.8-4.1 3.5-3.5 6.1L548 512.3c-.9-2.1-3.4-3.3-5.7-2.6-.6.2-1.2.5-1.6.9l-25-22c.7-1 .9-2.2.5-3.4-.4-1.4-1.6-2.4-2.9-2.7l6.5-32.2c.7.1 1.5 0 2.3-.3 3.2-1 4.9-4.4 3.9-7.5-1-3.2-4.4-4.9-7.5-3.9-.9.3-1.7.8-2.3 1.4L492 418.7c.7-1 .9-2.2.5-3.5-.7-2.1-2.9-3.3-5-2.6-1.9.6-3.1 2.6-2.7 4.5l-31.2 10.5a5.19 5.19 0 00-6.3-2.8c-2.8.9-4.3 3.8-3.4 6.6.5 1.6 1.7 2.7 3.1 3.3l-6.2 31c-.8-.1-1.6 0-2.3.3-3.2 1-4.9 4.4-3.9 7.5 1 3.2 4.4 4.9 7.5 3.9.9-.3 1.7-.8 2.4-1.4l23.7 20.9c-1 1.2-1.4 2.8-.9 4.4.5 1.6 1.8 2.7 3.2 3.1l-6.3 31.4c-.7-.1-1.5 0-2.2.2-2.8.9-4.3 3.8-3.4 6.6.9 2.8 3.8 4.3 6.6 3.4.8-.2 1.4-.7 2-1.2l24.9 22c-.7 1-.9 2.2-.5 3.4.7 2.1 2.9 3.3 5 2.6 1.9-.6 3-2.5 2.7-4.4l32.4-10.9c1 2.1 3.4 3.2 5.6 2.5.6-.2 1.1-.5 1.6-.9l24.8 21.8c-.7 1.1-1 2.6-.6 4 .8 2.5 3.4 3.8 5.9 3 2.3-.7 3.6-3 3.2-5.3l32.2-10.8c.9 1.7 2.9 2.6 4.8 2 .5-.2.9-.4 1.3-.7l25.1 22.1c-1 1.3-1.3 3-.8 4.7.5 1.7 1.8 2.9 3.4 3.4l-6.4 31.5c-.5 0-1.1 0-1.6.2-2.4.8-3.7 3.2-3.1 5.6l-32.5 10.9c-.8-1.6-2.7-2.5-4.5-1.9-.5.2-.9.4-1.3.7L562.9 628c.8-1.1 1.1-2.6.6-4.1-.8-2.5-3.4-3.8-5.9-3-2.3.7-3.7 3.1-3.1 5.5l-32.1 10.8c-.8-1.6-2.7-2.4-4.4-1.8-2 .6-3.1 2.7-2.4 4.7.4 1.1 1.2 1.9 2.2 2.3l-7 34.5c-.4 0-.7 0-1.1.2-1.8.6-2.8 2.3-2.6 4l-32 10.8c-1.2-2.2-3.8-3.3-6.2-2.5-2.8.9-4.3 3.8-3.4 6.6.5 1.6 1.7 2.8 3.2 3.3l-6.2 30.8c-.7-.1-1.4 0-2.1.2-2.7.9-4.2 3.7-3.5 6.4l-31.6 10.7c-.9-1.6-2.8-2.4-4.7-1.8-.5.1-.9.4-1.2.7L395 724.9c1-1.5 1.4-3.4.8-5.3-1-3.2-4.4-4.9-7.5-3.9-2.9.9-4.6 3.9-4.1 6.8l-29.5 9.9c-1.2-2.2-3.8-3.4-6.2-2.6-2.8.9-4.3 3.8-3.4 6.6.5 1.6 1.7 2.8 3.2 3.3l-6.6 32.7c-.5 0-1 0-1.4.2-1.8.6-2.9 2.5-2.5 4.3l-32 10.8a5.19 5.19 0 00-6.3-2.8c-.8.3-1.5.7-2 1.2l-23.9-20.9c1-1.3 1.4-3.1.8-4.8-.9-2.8-3.8-4.3-6.6-3.4-2.6.8-4.1 3.5-3.5 6.2l-32 10.8c-.8-1.6-2.7-2.5-4.5-1.9-.6.2-1 .5-1.4.9l-24.6-21.5c1.1-1.5 1.5-3.5.9-5.4-.6-2-2.2-3.4-4.1-4L205 710c.4 0 .8 0 1.2-.2 2-.6 3.1-2.7 2.4-4.7-.6-2-2.7-3.1-4.7-2.4-.5.2-.9.4-1.3.7l-26-22.8c.7-1 .9-2.3.5-3.5-.7-2.1-2.9-3.3-5-2.6-2 .6-3.1 2.7-2.7 4.6L138 689.8c-1.2-2.2-3.8-3.4-6.3-2.6-2.8.9-4.3 3.8-3.4 6.6.5 1.7 1.8 2.9 3.3 3.4l-6.5 32.7c-.4 0-.9 0-1.3.2-2 .6-3.1 2.7-2.4 4.7.6 2 2.7 3.1 4.7 2.4.5-.2.9-.4 1.3-.7l25 21.9c-.9 1.3-1.2 3-.7 4.6.6 1.8 2 3 3.6 3.5l-6.2 31.4c-.6 0-1.3 0-1.9.2-2.6.8-4.1 3.5-3.5 6.2l-30.6 10.4c-1.1-2.4-3.8-3.7-6.4-2.9-.8.2-1.4.6-2 1.2l-24.6-21.6c.7-1.1.9-2.4.5-3.7-.7-2.3-3.2-3.6-5.6-2.9-2.2.7-3.4 2.9-3 5.1l-32.3 11c-.9-1.5-2.7-2.3-4.4-1.7-2 .6-3.1 2.7-2.4 4.7.4 1.1 1.2 2 2.2 2.3L28.6 839c-.6 0-1.2 0-1.8.2-2.8.9-4.3 3.8-3.4 6.6.8 2.9 3.8 4.4 6.6 3.5zm142.7 18.2c-.7-.1-1.5-.1-2.3.2-2.7.8-4.1 3.6-3.5 6.2l-31 10.5c-.9-1.8-3.1-2.8-5.1-2.1-.6.2-1.2.6-1.6 1l-24.9-21.8c.9-1.3 1.3-3 .8-4.7-.5-1.7-1.8-2.9-3.4-3.4l6.2-31.3c.6 0 1.3 0 2-.2 2.7-.8 4.2-3.6 3.5-6.2l30.6-10.4c1.1 2.4 3.8 3.7 6.4 2.9.7-.2 1.4-.6 1.9-1.1l23.6 20.6 1.1.9c-.8 1.1-1 2.5-.6 3.9s1.5 2.4 2.8 2.9l-6.5 32.1zm123.7-33.4c.7-1.1 1-2.5.6-3.8-.5-1.5-1.6-2.5-3-2.9l6.4-32.2c.7.1 1.3 0 2-.2 2.7-.8 4.2-3.6 3.5-6.3l32-10.8c.8 1.6 2.7 2.4 4.5 1.9.5-.2.9-.4 1.3-.7l25 22.1c-.8 1.3-1.1 2.9-.6 4.5.5 1.7 1.9 3 3.5 3.5l-6.5 32.3c-.5 0-1.1 0-1.7.2-2.2.7-3.5 2.9-3 5.2l-32.7 11c-.9-1.4-2.6-2.1-4.3-1.6-.5.2-.9.4-1.3.7l-25.7-22.9zm112.5-41.3c1.1 2.4 3.8 3.7 6.4 2.9.7-.2 1.3-.6 1.8-1l24.4 21.5c-.7 1.1-1 2.5-.6 3.8.5 1.4 1.6 2.5 2.9 2.9l-6.5 32.3c-.6 0-1.2 0-1.8.2-2.6.8-4.1 3.4-3.6 6l-31.8 10.7c-.8-1.6-2.7-2.4-4.5-1.9-.5.2-1 .4-1.4.8l-25.9-22.8c.7-1.1 1-2.5.6-3.8-.5-1.4-1.6-2.5-2.9-2.9l6.5-32.3c.7.1 1.4 0 2.1-.2 2.6-.8 4-3.4 3.6-5.9l30.7-10.3zm-89 110.6c.8-1.1 1.1-2.6.7-4-.5-1.4-1.6-2.5-2.9-2.9l6.7-33.1c.5 0 1 0 1.4-.2 1.9-.6 3-2.6 2.5-4.6l32.6-11c.9 1.9 3.2 3 5.3 2.3.7-.2 1.2-.6 1.7-1l25.9 22.9c-.6.9-.8 2.1-.4 3.2.3 1.1 1.2 1.9 2.2 2.3l-6.8 33.9c-.5 0-1.1 0-1.6.2-2.1.7-3.4 2.8-3 4.9L353 926.8c-1.1-2.4-3.8-3.8-6.4-2.9-.8.3-1.5.7-2.1 1.3l-24.6-21.8zm140.7 22.9c-.4 0-.8 0-1.2.2-1.8.6-2.9 2.4-2.5 4.2l-31.7 10.7c-1-2.5-3.8-3.9-6.4-3.1-.9.3-1.6.8-2.2 1.4L392 918.2c.7-1.1 1-2.5.6-3.8-.5-1.4-1.6-2.5-2.9-2.9l6.8-33.8c.5.1 1 0 1.5-.1 1.8-.6 2.9-2.5 2.5-4.3l31.7-10.7c1 2.5 3.8 3.9 6.4 3 .7-.2 1.4-.6 1.9-1.1l24.1 21.2c-.9 1.3-1.2 3-.7 4.6.5 1.6 1.8 2.8 3.2 3.3l-6.5 32.7zm196.8-66.5c-1 1.2-1.4 2.8-.9 4.4.5 1.6 1.7 2.7 3.2 3.1l-6.6 33c-.5 0-.9 0-1.4.2-1.9.6-3 2.5-2.7 4.4l-32.3 10.9c-.9-2.1-3.2-3.2-5.4-2.5-.7.2-1.3.6-1.7 1.1l-25.8-22.7c.7-.9.9-2.2.6-3.4-.4-1.1-1.2-1.9-2.2-2.3l6.6-32.8c.7.1 1.4 0 2.1-.2 2.6-.8 4.1-3.4 3.6-6l31.7-10.7c.8 1.5 2.7 2.3 4.4 1.8.5-.2.9-.4 1.3-.7l25.5 22.4zm-72.6-15c-.9 1.3-1.2 2.9-.7 4.6.5 1.7 1.9 3 3.5 3.5l-6.6 32.8c-.5 0-1 0-1.5.2-1.9.6-3 2.6-2.5 4.6l-32.4 10.9c-.8-2.2-3.2-3.4-5.5-2.7-.7.2-1.3.6-1.8 1.1l-24.8-21.9c.8-1.1 1.1-2.5.6-3.9-.5-1.5-1.7-2.5-3.1-2.9l6.7-33.5c.4 0 .8 0 1.2-.2 1.9-.6 3-2.6 2.5-4.5l33.3-11.2c.7 1.8 2.7 2.8 4.6 2.2.6-.2 1.1-.5 1.5-.9l25 21.8zm-70.7-13.5c-.8.9-1.1 2.3-.7 3.5.4 1.2 1.3 2.1 2.5 2.4l-6.7 33.5c-.5 0-1 0-1.5.2-2.1.7-3.4 2.8-3 4.9l-31 10.4c-1.1-2.3-3.8-3.4-6.3-2.6-.8.2-1.5.7-2 1.2l-24-21.2c1-1.3 1.3-3 .8-4.7-.6-1.8-2.1-3.1-3.8-3.5l6.5-32.2c.6 0 1.1 0 1.7-.2 2.2-.7 3.4-2.9 3-5.1l32.6-11c.8 1.6 2.7 2.5 4.5 1.9.5-.2.9-.4 1.3-.7l26.1 23.2zm-28.4-29.7c-.4 0-.9 0-1.4.2-1.8.6-2.9 2.4-2.5 4.3l-30.9 10.4-1.7.6c-.9-2-3.2-3.1-5.4-2.5-.6.2-1.2.5-1.7 1L417.7 794c1.1-1.3 1.5-3.1.9-4.9-.6-1.8-2-3.1-3.7-3.5l6.5-32.2c.5 0 1 0 1.5-.2 2.1-.6 3.2-2.8 2.6-4.9l31.6-10.7c1.1 2.3 3.8 3.5 6.3 2.7.7-.2 1.3-.6 1.8-1l25.1 22.2c-.8 1-1.1 2.4-.7 3.7.4 1.3 1.4 2.2 2.6 2.6l-6.5 33.8zM682.6 735c-.8 1.2-1.1 2.7-.7 4.1.5 1.5 1.7 2.6 3.1 3l-6.7 33.4c-.5 0-1 0-1.5.2-1.8.6-2.9 2.4-2.5 4.3l-31.6 10.6c-1-2.6-3.8-4-6.5-3.2-.8.3-1.6.7-2.1 1.3l-24.9-21.9c.7-.9 1-2.2.6-3.4-.4-1.3-1.4-2.1-2.6-2.5l6.9-34.2c.4 0 .8 0 1.2-.2 1.8-.6 2.8-2.3 2.6-4.1l32.1-10.8c1.1 2.3 3.8 3.6 6.3 2.8.7-.2 1.3-.6 1.9-1l24.4 21.6zm-27.4-30.8c-.7-.1-1.4 0-2.1.2-2.7.9-4.2 3.7-3.5 6.4l-32 10.8c-.8-1.7-2.7-2.7-4.6-2.1-.5.2-.9.4-1.3.7L586.5 698c.8-1.2 1.1-2.6.7-4.1-.5-1.6-1.7-2.7-3.2-3.1l6.8-33.6c.4 0 .9 0 1.3-.2 1.8-.6 2.9-2.4 2.5-4.3l32.5-10.9c1 2 3.3 3.1 5.6 2.4.6-.2 1-.5 1.5-.8l25.8 22.7c-.5.9-.7 2-.4 3.1.4 1.1 1.2 2 2.2 2.4l-6.6 32.6zM943 762.9c-.7-.1-1.4-.1-2.1.2-2.4.8-3.8 3.3-3.1 5.8l-32 10.8c-.8-1.6-2.6-2.4-4.4-1.9-.6.2-1.1.5-1.5.9L874.2 756c.9-1.2 1.2-2.7.7-4.2s-1.6-2.6-3-3l6.7-33.1c.4 0 .9 0 1.3-.2 1.9-.6 3-2.6 2.5-4.5l32.3-10.9c1 2.1 3.4 3.3 5.6 2.6.7-.2 1.2-.6 1.7-1l25.6 22.6c-.4.8-.5 1.9-.2 2.8.4 1.1 1.2 1.9 2.2 2.3l-6.6 33.5zm124.4-80.2c-.9 1.3-1.2 3-.7 4.6.5 1.6 1.8 2.8 3.3 3.4l-6.4 31.7c-.7-.1-1.4-.1-2 .2-2.4.8-3.7 3.3-3.1 5.7l-32.3 10.9c-.8-1.7-2.7-2.6-4.5-2-.5.2-.9.4-1.3.7l-25.1-22.1c1-1.3 1.4-3.1.8-4.7-.5-1.7-1.8-2.9-3.4-3.4l6.6-32.8c.4 0 .8 0 1.2-.2 1.8-.6 2.8-2.3 2.6-4.1l33.3-11.2c.8 1.6 2.7 2.5 4.5 1.9.5-.2 1-.4 1.4-.8l25.1 22.2zm-140.7-20.2c.8.1 1.7 0 2.5-.2 3-1 4.8-4.1 4-7.1l30-10.1c.9 2.2 3.4 3.3 5.7 2.6.7-.2 1.3-.6 1.8-1.1l25.4 22.4c-.6.9-.9 2.1-.5 3.3.4 1.2 1.4 2.1 2.5 2.5l-6.6 32.7c-.7-.1-1.5 0-2.2.2-2.7.8-4.2 3.7-3.5 6.3l-31.4 10.6c-.8-1.7-2.7-2.6-4.5-2.1-.6.2-1.1.5-1.5 1l-25.6-22.6c.8-1.1 1-2.6.6-4-.5-1.5-1.7-2.6-3.1-3.1l6.4-31.3zm-50.8 47.1c-.7.9-1 2.2-.6 3.4.4 1.2 1.3 2 2.4 2.4l-6.7 33.1c-.6 0-1.2 0-1.8.2-2.3.7-3.7 3.1-3.1 5.5l-31.2 10.5c-.9-2.2-3.4-3.4-5.7-2.7-.8.2-1.4.7-1.9 1.2l-24.2-21.4c1-1.3 1.4-3.1.8-4.8-.6-1.8-2-3.1-3.7-3.5l6.6-32.9c.5 0 1 0 1.5-.2 1.8-.6 2.9-2.4 2.5-4.2l31-10.4c1.2 2.7 4.3 4.2 7.3 3.2.9-.3 1.6-.7 2.3-1.3l24.5 21.9zm-28.1-32.1c-.8-.1-1.7 0-2.5.2-3.1 1-4.8 4.2-4 7.2l-30.9 10.4c-.8-1.7-2.7-2.5-4.5-2-.6.2-1 .5-1.4.9L779.4 672c1-1.3 1.4-3.1.8-4.8-.5-1.7-1.9-3-3.5-3.5l6.5-32.3c.7.1 1.4.1 2.2-.1 2.3-.7 3.6-3 3.2-5.2l30.3-10.2c1.1 2.4 3.8 3.7 6.4 2.8.7-.2 1.4-.6 1.9-1.1l25.1 22.2c-.6.9-.8 2.1-.5 3.2.4 1.2 1.3 2.1 2.5 2.4l-6.5 32.1zm168.9-94.4c-.6-.1-1.3 0-1.9.2-2.4.8-3.7 3.2-3.1 5.6l-30.6 10.3c-1.3-2.6-4.3-3.9-7.1-3-.7.2-1.4.6-1.9 1l-24.3-21.5c.8-1 1.2-2.4.7-3.7-.4-1.4-1.5-2.3-2.8-2.7l6.6-32.8c.6.1 1.2 0 1.8-.2 2.4-.7 3.7-3.2 3.1-5.6l30.1-10.1c1.2 2.8 4.4 4.3 7.3 3.4.9-.3 1.7-.8 2.3-1.4l22.9 20.2c-1.1 1.5-1.5 3.5-.9 5.4.6 2 2.2 3.4 4 4l-6.2 30.9zm197.4-64.9c-.7.9-1 2.2-.6 3.4.4 1.2 1.3 2.1 2.4 2.4l-6.4 31.7c-.9-.1-1.8-.1-2.7.2-3.1 1-4.9 4.3-3.9 7.4l-30.9 10.4c-.7-1.9-2.7-2.9-4.6-2.3-.6.2-1 .5-1.5.9l-24.1-21.3c1.2-1.5 1.7-3.6 1.1-5.6-.7-2.1-2.4-3.6-4.4-4l6.4-31.8c.5 0 .9 0 1.4-.2 1.9-.6 3-2.6 2.5-4.4l31.1-10.5c1.2 2.8 4.4 4.4 7.3 3.4.9-.3 1.7-.8 2.3-1.4l24.6 21.7zm-72-14.5c-.7.9-.9 2.1-.5 3.3.4 1.2 1.3 2 2.3 2.4l-6.4 31.9c-.7 0-1.4 0-2.2.3-3 1-4.7 4.1-4 7.1l-31.3 10.6c-.8-1.7-2.7-2.7-4.5-2.1-.5.2-1 .5-1.4.8l-24.4-21.5c1.2-1.5 1.6-3.5 1-5.5-.6-2-2.2-3.4-4.1-4l6.5-32.1c.5 0 .9 0 1.4-.2 1.8-.6 2.9-2.4 2.5-4.2l32.6-11c.9 2 3.1 3.1 5.3 2.4.6-.2 1.1-.5 1.6-.9l25.6 22.7zm-67.9-202.2c.6.1 1.2 0 1.8-.2 2.4-.7 3.7-3.2 3.1-5.5l32.5-10.9c.8 1.6 2.7 2.5 4.5 1.9.5-.1.9-.4 1.2-.7l26.2 23.1c-.7.9-1 2.2-.6 3.4.4 1.2 1.3 2.1 2.5 2.5l-6.7 33.1c-.7-.1-1.3 0-2 .2-2.4.8-3.7 3.2-3.1 5.6l-32.4 10.9c-.8-1.7-2.7-2.5-4.5-2-.4.1-.8.4-1.2.6l-26.2-23.1c.6-.9.8-2 .4-3.1-.4-1.2-1.3-2-2.3-2.4l6.8-33.4zm-48.3 54.2c.5 0 .9 0 1.4-.2 1.9-.6 2.9-2.5 2.5-4.4l33.2-11.2c.8 1.6 2.7 2.5 4.5 1.9.5-.2 1-.4 1.3-.8l26.2 23.1c-.7.9-.9 2.1-.5 3.3.4 1.3 1.4 2.2 2.6 2.5l-6.8 33.6c-.6-.1-1.1 0-1.7.2-2.2.7-3.4 2.9-2.9 5.1l-32.8 11c-.9-1.5-2.7-2.2-4.4-1.7-.4.1-.8.3-1.1.6l-25.8-22.8c.7-1.1 1-2.6.6-4-.5-1.5-1.6-2.6-3-3l6.7-33.2zm-125.4 80.4c.7-.9 1-2.2.6-3.4-.4-1.2-1.4-2.1-2.5-2.5l6.7-33.2c.6.1 1.3 0 1.9-.2 2.3-.7 3.6-3.1 3.1-5.5l32.2-10.8c.8 1.7 2.7 2.7 4.6 2.1.6-.2 1-.5 1.4-.8l24.5 21.6c-1.2 1.5-1.6 3.5-1 5.5.6 2 2.1 3.4 4 3.9l-6.2 30.9c-.6-.1-1.2 0-1.9.2-2.4.7-3.7 3.2-3.1 5.6l-32.2 10.8c-.8-1.6-2.7-2.5-4.5-1.9-.5.2-1 .5-1.4.8l-26.2-23.1zm72.5 15.1c.9-1.2 1.2-2.7.7-4.2s-1.6-2.5-3-3l6.2-30.9c.8.1 1.7 0 2.5-.2 3.1-1 4.8-4.2 4-7.3l30-10.1c1 2.1 3.4 3.2 5.6 2.5.7-.2 1.3-.6 1.8-1l25.7 22.7c-.7.9-1 2.2-.6 3.4.4 1.2 1.3 2 2.4 2.4l-6.4 31.7c-.8-.1-1.6 0-2.5.2-3.1 1-4.8 4.2-4 7.2l-31.1 10.5c-.8-1.7-2.7-2.6-4.5-2.1-.5.2-1 .4-1.4.8L973 451.2zm27.9 29c.4 0 .9 0 1.3-.2 1.8-.6 2.8-2.3 2.6-4.1l31.2-10.5c1.2 2.8 4.3 4.2 7.3 3.3.9-.3 1.6-.7 2.2-1.3l24.6 21.7c-.6.9-.8 2-.4 3.1s1.2 2 2.3 2.4l-6.5 32.2c-.8-.1-1.6 0-2.4.2-3 1-4.8 4.1-4 7.2l-28.9 9.7c-1.2-2.7-4.3-4.1-7.2-3.2-.9.3-1.6.7-2.2 1.3l-23-20.2c1.1-1.5 1.4-3.4.9-5.3-.6-2-2.2-3.4-4.1-4l6.3-32.3zM880 523c.8.1 1.6 0 2.5-.2 3-1 4.7-4 4-7.1l30.4-10.2c.9 2.2 3.4 3.4 5.7 2.6.6-.2 1.2-.5 1.7-.9l24.8 21.8c-.9 1.2-1.2 2.7-.7 4.2s1.6 2.5 3 3l-6.6 33c-.4 0-.7 0-1.1.2-2 .6-3.1 2.6-2.7 4.6l-31.2 10.5c-1.1-2.9-4.4-4.5-7.4-3.5-.9.3-1.7.8-2.4 1.4l-25-21.8c.6-.9.9-2 .5-3.1-.3-1.1-1.1-1.8-2.1-2.2L880 523zm-48.4 53.4c.5 0 1 0 1.5-.2 2-.6 3.1-2.7 2.7-4.7l33.4-11.3c.8 1.3 2.5 2 4 1.5.4-.1.7-.3 1-.5l24.8 21.9c-1.1 1.5-1.4 3.4-.8 5.3.6 2 2.2 3.5 4.2 4l-6.3 31.3c-.6-.1-1.2 0-1.8.2-2.3.7-3.6 3.1-3.1 5.5l-32.4 10.9c-.8-1.6-2.7-2.5-4.5-1.9-.5.1-.9.4-1.2.7L827.9 617c.9-1.3 1.3-3 .8-4.7-.6-1.7-1.9-3-3.6-3.5l6.5-32.4zm-51.8 48.4c-.6 1.1-.7 2.4-.3 3.6.4 1.4 1.4 2.4 2.7 2.9l-6.5 32.4c-.7-.1-1.4 0-2.1.2-2.7.8-4.2 3.6-3.5 6.3l-30.7 10.3c-.9-2.2-3.4-3.5-5.7-2.7-.8.2-1.4.7-2 1.3l-24.8-21.8c.9-1.2 1.2-2.7.8-4.3-.5-1.6-1.7-2.7-3.2-3.1l6.3-31.1c.9.1 1.8.1 2.8-.2 3.1-1 4.8-4.2 4-7.2l30.7-10.3c.8 1.7 2.7 2.7 4.6 2.1.6-.2 1.1-.5 1.5-.9l25.4 22.5zm72.5-180.9c-1.2 1.5-1.6 3.5-1 5.5.6 2 2.3 3.5 4.2 4l-6.3 31.1c-.6 0-1.2 0-1.8.2-2.3.7-3.7 3.1-3.1 5.5L812 501.1c-.8-1.8-2.9-2.8-4.8-2.2-.5.2-1 .4-1.4.8l-24.9-21.9c.9-1.3 1.2-3 .7-4.6-.5-1.7-1.8-2.9-3.3-3.4l6.6-32.9c.4 0 .8 0 1.2-.2 1.8-.6 2.9-2.4 2.5-4.2l33.5-11.3c.7 1.6 2.5 2.4 4.2 1.8.5-.2.9-.4 1.3-.7l24.7 21.6zm-139.6-21c.6.1 1.1 0 1.7-.2 2.2-.7 3.4-3 2.9-5.1l31-10.4c1.1 2.5 3.8 3.8 6.5 3 .8-.3 1.5-.7 2.1-1.3l25 22c-.6.9-.9 2.1-.5 3.3.4 1.2 1.3 2.1 2.5 2.5l-6.6 32.8c-.7-.1-1.5-.1-2.3.2-2.7.8-4.2 3.6-3.5 6.3l-31.7 10.7c-.8-1.7-2.7-2.5-4.5-2-.5.2-.9.4-1.3.7l-25.1-22.2c1-1.3 1.3-3 .8-4.7-.5-1.7-1.9-2.9-3.4-3.4l6.4-32.2zm-48.8 55.5c.6.1 1.3 0 2-.2 2.4-.8 3.7-3.2 3.1-5.6l30.9-10.4c1.1 2.3 3.8 3.6 6.3 2.8.7-.2 1.4-.6 1.9-1.1l25.1 22.2c-.6.9-.8 2.1-.5 3.2.4 1.2 1.3 2.1 2.4 2.4l-6.7 33.3c-.7-.1-1.4-.1-2.1.1-2.4.8-3.7 3.3-3.1 5.7l-32.1 10.8c-.8-1.7-2.7-2.6-4.5-2-.5.2-1 .4-1.3.8l-24.4-21.5c1-1.5 1.4-3.4.8-5.2-.6-2-2.3-3.5-4.2-4l6.4-31.3zM445 475.3c1.1-1.5 1.5-3.4.9-5.3-.6-2-2.3-3.5-4.2-4l6.2-30.9c.8.1 1.7.1 2.5-.1 2.7-.8 4.2-3.6 3.5-6.3l31.2-10.5c.8 1.8 2.9 2.7 4.8 2.1.5-.2 1-.4 1.4-.8l24.1 21.3c-1.1 1.5-1.5 3.5-.9 5.4.7 2.1 2.3 3.5 4.3 4l-6.5 32.2c-.4 0-.7 0-1.1.2-1.8.6-3 2.4-2.8 4.2l-32.7 11c-1-2-3.3-3-5.5-2.3-.5.2-1 .4-1.4.8l-23.8-21zm22.7 68.9c1-1.3 1.3-3 .8-4.7-.5-1.7-1.8-2.9-3.4-3.4l6.3-31.5c.5 0 1.1 0 1.6-.2 2.4-.8 3.7-3.3 3.1-5.7l32.6-11c.7 2 2.9 3.1 4.9 2.4.6-.2 1-.5 1.4-.8l24.9 22c-.9 1.2-1.2 2.7-.7 4.2.5 1.6 1.7 2.7 3.2 3.1L536 551c-.6 0-1.1 0-1.7.2-2.3.7-3.7 3.1-3.1 5.5l-32.3 10.9c-.8-1.9-2.9-2.9-4.9-2.2-.5.2-1 .5-1.4.8l-24.9-22zm71.7 14.3c.9-1.2 1.2-2.7.8-4.2-.5-1.5-1.7-2.7-3.2-3.1l6.5-32.4c.5 0 1.1 0 1.6-.2 2.3-.7 3.6-3.1 3.1-5.4l31.2-10.5c1 2.5 3.8 3.8 6.4 3 .7-.2 1.4-.6 1.9-1.1l23.9 21c-1.1 1.3-1.5 3.2-1 4.9.5 1.7 1.9 3 3.5 3.5l-6.5 32.2c-.5 0-.9 0-1.4.2-2 .6-3.1 2.7-2.7 4.7l-32.1 10.8c-.9-2.2-3.4-3.4-5.7-2.7-.7.2-1.3.6-1.8 1.1l-24.5-21.8zm71.5 14.1c.7-1 1-2.3.6-3.6-.4-1.3-1.4-2.2-2.6-2.6l6.5-32.2c.7.1 1.4 0 2-.2 2.7-.9 4.2-3.7 3.5-6.4l29.6-10c1.1 3 4.4 4.6 7.4 3.6.9-.3 1.8-.8 2.4-1.5l24.4 21.5c-.5.9-.7 2-.4 3.1.4 1.2 1.3 2.1 2.4 2.4l-7 34.5c-.5-.1-1 0-1.5.2-1.8.6-2.9 2.4-2.5 4.3l-31.5 10.6c-1.1-2.3-3.8-3.5-6.3-2.7-.8.2-1.4.7-2 1.2l-25-22.2zm27.9 31.2c.7.1 1.5.1 2.3-.2 2.7-.9 4.2-3.7 3.5-6.4l31.5-10.6c.8 1.6 2.7 2.5 4.5 1.9.6-.2 1.1-.5 1.5-.9l24.8 21.9c-1 1.5-1.4 3.4-.8 5.2.6 1.9 2 3.3 3.8 3.9l-6.3 31.2c-.6 0-1.1 0-1.7.2-2.3.7-3.7 3.1-3.1 5.5l-32.3 10.9c-.8-1.6-2.7-2.4-4.4-1.8-.5.2-1 .4-1.3.8l-25.7-22.6c.9-1.2 1.3-2.8.8-4.3-.5-1.6-1.8-2.7-3.2-3.1l6.1-31.6zm-120.1 38.9c.5.1 1 0 1.6-.1 1.9-.6 2.9-2.5 2.5-4.4l32.1-10.8c1 2.1 3.4 3.2 5.6 2.5.7-.2 1.3-.6 1.8-1l25.6 22.6c-.6.9-.8 2.1-.5 3.2.4 1.2 1.3 2 2.3 2.4l-6.8 33.6c-.5 0-1.1 0-1.6.2-2.2.7-3.6 3-3.2 5.2l-31.3 10.6c-1.1-2.4-3.8-3.7-6.4-2.9-.7.2-1.2.5-1.8 1l-24.8-21.9c.6-.9.9-2.1.5-3.2-.4-1.3-1.4-2.2-2.6-2.5l7-34.5zm-49.1 56.9c.8.1 1.6.1 2.5-.2 2.8-.9 4.3-3.8 3.4-6.6l31.8-10.7c.7 1.8 2.7 2.7 4.6 2.2.5-.1.9-.4 1.2-.7l24.8 21.8c-1.1 1.3-1.5 3.1-.9 4.9.6 1.8 2 3.1 3.7 3.5l-6.6 32.5c-.5 0-.9 0-1.4.2-1.9.6-2.9 2.5-2.5 4.4L497 762.1c-.9-1.6-2.8-2.4-4.7-1.8-.4.1-.8.3-1.1.6L466 738.7c1-1.3 1.4-3.1.9-4.8-.6-1.7-1.9-3-3.6-3.5l6.3-30.8zM349.2 740c.8.1 1.6.1 2.5-.1 2.8-.9 4.3-3.8 3.5-6.5l29.4-9.9c1.1 3 4.4 4.7 7.4 3.7 1-.3 1.8-.8 2.4-1.5l24.2 21.3c-.8 1-1.1 2.3-.6 3.6.4 1.2 1.3 2.1 2.5 2.5l-6.5 32.2c-.6 0-1.2 0-1.9.2-2.6.8-4.1 3.6-3.5 6.2L378 802.1c-1-2.6-3.8-4-6.5-3.1-.8.3-1.5.7-2.1 1.3l-25-22c.6-.9.8-2.1.5-3.2-.4-1.2-1.2-2-2.3-2.4l6.6-32.7zm-52.6 46.9c-.9 1.3-1.3 3-.7 4.6.5 1.7 1.9 3 3.5 3.5l-4.3 21.7-2.1 10.6c-.5 0-1 0-1.6.2-2.2.7-3.4 2.9-3 5.1l-32.7 11.1c-.8-1.7-2.7-2.7-4.6-2.1-.5.2-1 .4-1.4.8L224.4 820c.7-1.1 1-2.5.6-3.8-.5-1.5-1.6-2.5-3-2.9l6.7-34c.5 0 .9 0 1.4-.2 1.8-.6 2.9-2.4 2.5-4.3l31.7-10.8c1.1 2.4 3.8 3.7 6.4 2.9.7-.2 1.4-.6 1.9-1.1l24 21.1zm-168.5-51.2c.6-.9.8-2.1.5-3.2-.4-1.2-1.3-2.1-2.4-2.4l6.5-32.6c.8.1 1.5.1 2.3-.2 2.7-.9 4.3-3.8 3.5-6.5l31.5-10.7c.9 1.7 2.9 2.6 4.8 2 .5-.2 1-.4 1.4-.8l26.1 22.8c-.6.9-.8 2.1-.5 3.2.4 1.2 1.4 2.1 2.5 2.5l-6.3 32.1c-.8-.1-1.7 0-2.5.2-3 1-4.8 4.1-4 7.2l-29.6 10.1c-1-2.5-3.8-3.9-6.4-3-.8.3-1.5.7-2.1 1.3l-25.3-22zm28.2 30.9c.7.1 1.3 0 2-.2 2.6-.8 4-3.4 3.6-6l29.7-10.1c1.2 2.8 4.3 4.2 7.3 3.3.9-.3 1.7-.8 2.3-1.4l24.6 21.5c-.5.9-.7 2-.4 3.1.4 1.1 1.2 2 2.2 2.4l-6.7 34c-.5 0-1 0-1.5.2-2.2.7-3.4 2.8-3 5l-31.9 10.9c-.9-2-3.2-3-5.3-2.3-.6.2-1.2.5-1.6 1L153 806.5c1-1.3 1.4-3.1.9-4.8-.6-1.8-2-3.1-3.7-3.5l6.1-31.6zM36.1 806.5c.5.1 1 0 1.5-.2 1.9-.6 3-2.6 2.5-4.5l32.2-11c.9 2 3.2 3.1 5.4 2.4.7-.2 1.3-.6 1.8-1.1l24.6 21.5c-1 1.3-1.3 3-.8 4.7.6 1.7 1.9 3 3.6 3.5l-6.2 31.3c-.7-.1-1.4 0-2.1.2-2.7.9-4.2 3.7-3.5 6.4l-31.6 10.8c-.7-1.8-2.7-2.8-4.6-2.2-.6.2-1 .5-1.4.9l-24.8-21.7c1-1.3 1.4-3.1.8-4.8-.6-1.8-2.1-3.1-3.8-3.5l6.4-32.7z" opacity=".05" fill="#a7a9ac"/><path d="M59.4 898.1c.7-.4 1.2-.9 1.7-1.5L89.8 913c-.3 1-.3 2.1.2 3.1 1 1.8 3.3 2.5 5.1 1.4 1.6-.9 2.3-2.8 1.7-4.5l28.9-17c1.6 2.1 4.4 2.7 6.7 1.4.7-.4 1.3-.9 1.7-1.6l28.8 16.4c-.4 1.1-.4 2.5.2 3.6 1.1 2.1 3.7 2.8 5.8 1.6 2-1.1 2.7-3.5 1.8-5.5l28.2-16.6c1.6 2.1 4.4 2.8 6.8 1.5 2.5-1.4 3.5-4.6 2-7.2-.9-1.5-2.4-2.5-4-2.7l-.2-32.8c.6-.1 1.1-.2 1.7-.5 2-1.1 2.8-3.6 1.9-5.7l29-17c1.3 1.8 3.8 2.5 5.8 1.4.6-.3 1.1-.8 1.5-1.3l29.5 16.7c-.4 1-.4 2.2.2 3.2 1 1.8 3.3 2.5 5.1 1.4 1.6-.9 2.3-2.8 1.7-4.5l29.8-17.5c1.3 1.8 3.7 2.4 5.7 1.3.6-.3 1.1-.8 1.5-1.3l29.8 17.1c-.4 1-.4 2.3.2 3.3.6 1.1 1.6 1.7 2.7 1.9l.1 33.8c-.6.1-1.1.2-1.6.5-2.1 1.2-2.9 3.9-1.7 6s3.9 2.9 6 1.7c.5-.3 1-.7 1.3-1.2l28.6 16.3c-.6 1.4-.6 3.1.2 4.6 1.4 2.5 4.6 3.5 7.2 2 2.4-1.3 3.3-4.3 2.2-6.8l28.2-16.4c1.3 1.9 3.8 2.6 5.8 1.4.6-.3 1.1-.8 1.4-1.3l28.3 16.2c-.6 1.4-.5 3.1.3 4.5 1.4 2.5 4.6 3.5 7.2 2 2.4-1.3 3.3-4.2 2.3-6.6l29-16.9c1.1 1.5 3.1 1.9 4.8 1 1.8-1 2.5-3.3 1.4-5.1-.6-1.1-1.7-1.8-2.9-1.9l-.1-33.3c.8 0 1.6-.2 2.3-.6 2.5-1.4 3.4-4.5 2.1-7l28.2-16.4c1.3 1.9 3.8 2.5 5.8 1.4.6-.3 1-.7 1.4-1.2l28.7 16.5c-.4 1.2-.4 2.5.3 3.7 1.2 2.1 3.9 2.9 6 1.7 1.9-1.1 2.7-3.3 2-5.3l29.7-17.3c1.1 1.3 3 1.6 4.6.8.4-.2.7-.5 1-.9l29.9 17.1c-.5 1.2-.4 2.6.2 3.8 1.2 2.1 3.9 2.9 6 1.7 2-1.1 2.7-3.4 2-5.5l29.5-17.2c1.2 1.6 3.3 2.1 5.1 1.1 1.9-1.1 2.6-3.5 1.5-5.4-.6-1.2-1.8-1.8-3-2l-.1-33.7c.5-.1 1.1-.2 1.6-.5 2.3-1.3 3.1-4.1 1.8-6.3-1.3-2.3-4.1-3.1-6.3-1.8-.5.3-.9.6-1.2 1l-29.8-17.1c.4-1 .4-2.2-.2-3.3-1-1.8-3.3-2.5-5.1-1.4-1.7 1-2.4 3.1-1.5 4.9l-28.8 16.8c-1.5-2.3-4.5-3.1-6.9-1.7-.8.4-1.3 1-1.8 1.7l-28.8-16.5c.3-1 .3-2.1-.3-3-1-1.8-3.3-2.5-5.1-1.5-1.6.9-2.3 2.8-1.7 4.5l-30.4 17.7c-1.1-1.3-3.1-1.7-4.6-.8-.3.2-.6.4-.9.7l-30.5-17.4c.4-1 .4-2.2-.2-3.3-.6-1.1-1.7-1.7-2.8-1.9l-.1-34.4c.5-.1.9-.2 1.4-.5 1.9-1.1 2.6-3.4 1.6-5.3l30.2-17.6c1.1 1.4 3.1 1.8 4.7.9 1.8-1 2.5-3.3 1.4-5.1-.6-1.1-1.6-1.7-2.8-1.9l-.1-33.2c.6-.1 1.2-.3 1.8-.6 2.4-1.4 3.3-4.3 2.2-6.8l28.5-16.6c1.3 2 4 2.7 6.1 1.5.6-.3 1.1-.8 1.5-1.3l29.2 16.7c-.4 1-.4 2.2.2 3.2.6 1.1 1.8 1.8 3 1.9l.1 34.9c-.4.1-.7.2-1.1.4-1.8 1-2.5 3.3-1.4 5.1 1 1.8 3.3 2.5 5.1 1.4.4-.2.7-.5 1-.8l28.9 16.5c-.6 1.4-.6 3.1.3 4.6 1.4 2.5 4.6 3.5 7.2 2 2.3-1.3 3.3-4.1 2.3-6.5l28.9-16.8c1.1 1.4 3.1 1.9 4.8 1 1.8-1 2.5-3.3 1.4-5.1-.6-1-1.6-1.7-2.7-1.9l-.1-34.1c.6-.1 1.2-.2 1.7-.6 2.3-1.3 3.1-4.1 1.8-6.3-1.3-2.3-4.1-3.1-6.3-1.8-.6.3-1.1.8-1.5 1.3l-28.3-16.2c.8-1.5.8-3.3-.1-4.9-.9-1.6-2.5-2.6-4.2-2.7l-.1-33.2c.5 0 1-.2 1.4-.5 1.7-1 2.4-3 1.6-4.8l29.5-17.2c1.4 1.8 3.9 2.4 6 1.3.6-.3 1-.7 1.4-1.2l28.7 16.5c-.4 1.2-.4 2.6.3 3.8 1.3 2.3 4.1 3.1 6.3 1.8 2.1-1.1 2.9-3.6 2.1-5.7l28-16.3c1.5 2.1 4.4 2.8 6.8 1.5.7-.4 1.2-.9 1.7-1.5l29.1 16.7c-.4 1-.3 2.1.2 3.1.6 1 1.6 1.7 2.7 1.9l.1 33.7c-.6.1-1.2.3-1.8.6-2.5 1.4-3.5 4.6-2 7.2 1.4 2.5 4.6 3.5 7.2 2 .7-.4 1.2-.9 1.7-1.5l28.1 16.1c-.5 1.2-.4 2.6.3 3.9 1.3 2.2 4.1 3.1 6.3 1.8 2.1-1.2 2.9-3.7 2-5.8l28.5-16.6c1.4 1.8 3.9 2.4 6 1.3.6-.3 1.1-.8 1.4-1.3l29.9 17.1c-.3.9-.2 1.9.3 2.8 1 1.8 3.2 2.4 5 1.4 1.6-.9 2.3-2.9 1.6-4.6l29.2-17c1.4 1.7 3.8 2.1 5.8 1 2.2-1.3 3.1-4.1 1.8-6.3-.7-1.3-2-2.1-3.4-2.3l-.1-34.1c.5 0 1-.2 1.5-.5 1.6-.9 2.3-2.9 1.7-4.6l28.6-16.7c1.6 2.1 4.4 2.7 6.8 1.4.7-.4 1.2-.9 1.7-1.5l29.1 16.6c-.4 1-.4 2.2.2 3.3 1 1.8 3.3 2.5 5.1 1.4 1.6-.9 2.3-2.9 1.7-4.6l29.5-17.2c1.4 1.7 3.9 2.2 5.9 1.1 2.2-1.3 3.1-4.1 1.8-6.3-.7-1.3-2-2.1-3.4-2.3l-.1-32.4c.8 0 1.5-.2 2.3-.6 2.5-1.4 3.5-4.6 2-7.2-1.4-2.5-4.6-3.5-7.2-2-.7.4-1.3 1-1.8 1.6l-29.3-16.8c.4-1 .4-2.2-.2-3.2-1-1.8-3.3-2.5-5.1-1.4-1.7.9-2.3 3-1.6 4.7L976 526.3c-1.1-1.5-3.2-2-4.9-1.1-.4.2-.8.6-1.1.9l-29.5-16.9c.5-1.3.5-2.7-.2-4-1.3-2.2-4.1-3.1-6.3-1.8-2.1 1.2-2.9 3.7-2 5.9l-27.4 16c-1.7-2.5-5.1-3.3-7.9-1.8-2.9 1.6-3.9 5.3-2.3 8.2 1 1.8 2.8 2.9 4.7 3.1l.1 31.9c-.6.1-1.1.2-1.7.5-2.1 1.2-2.9 3.7-2 5.9L866 590.3c-1.1-1.3-3.1-1.7-4.7-.8-.4.2-.7.5-1 .8l-28.6-16.4c.8-1.7.8-3.8-.2-5.5-1-1.8-2.8-2.9-4.7-3.1l-.1-32.6c.4-.1.8-.2 1.2-.4 1.7-.9 2.3-3 1.6-4.7l29.5-17.2c1.4 1.9 3.9 2.5 6 1.3 2.3-1.3 3.1-4.1 1.8-6.3-.8-1.4-2.1-2.2-3.6-2.4l-.1-32c.8-.1 1.6-.3 2.3-.7 2.7-1.5 3.8-4.8 2.6-7.6l28.5-16.6c1.2 1.6 3.4 2.1 5.1 1.1.4-.2.7-.5 1-.8l28.2 16.1c-1 1.8-1.1 4-.1 6 1.6 2.9 5.3 3.9 8.2 2.3 2.9-1.6 3.9-5.3 2.3-8.2l27.9-16.2c1.4 1.8 3.9 2.3 5.9 1.2 2.3-1.3 3.1-4.1 1.8-6.3-.8-1.3-2.1-2.2-3.5-2.3l-.1-31.6c.8-.1 1.6-.3 2.4-.7 2.8-1.6 3.9-5.1 2.4-7.9l26.3-15.3c1.7 2.5 5.1 3.3 7.8 1.8.8-.4 1.5-1.1 2-1.8l28.3 16.2c-.4 1-.3 2.1.2 3.1 1 1.8 3.3 2.5 5.1 1.4 1.6-.9 2.3-2.9 1.7-4.6l28.6-16.7c1.7 2.5 5.1 3.4 7.9 1.8.7-.4 1.4-1 1.8-1.6l28 16c-.3 1-.3 2.1.2 3.1 1 1.8 3.3 2.5 5.1 1.4 1.6-.9 2.2-2.7 1.8-4.3l28.3-16.5c1.8 2.3 5 3 7.7 1.6 2.9-1.6 3.9-5.3 2.3-8.2-1-1.7-2.7-2.8-4.5-3l-.1-32.3c.4-.1.9-.2 1.3-.4 1.8-1 2.5-3.3 1.4-5.1-1-1.8-3.3-2.5-5.1-1.4-.4.2-.7.5-1 .8l-28.4-16.3c.8-1.7.8-3.7-.2-5.5-1.6-2.9-5.3-3.9-8.2-2.3-2.8 1.5-3.8 4.9-2.5 7.7l-28.4 16.6c-1.1-1.3-3.1-1.7-4.7-.8-.4.2-.8.5-1.1.9l-29.9-17.1c.5-1.2.5-2.6-.2-3.8-1.2-2.1-3.8-2.8-5.9-1.7-1.9 1.1-2.7 3.4-1.9 5.4l-29.8 17.3c-1.1-1.5-3.2-1.9-4.8-1-.5.3-.9.6-1.2 1.1L977.5 319c.8-1.7.9-3.8-.1-5.6-1-1.8-2.9-2.9-4.8-3.1l-.1-32.3c.4-.1.9-.2 1.3-.4 1.8-1 2.4-3.2 1.5-5l29.8-17.4c1.3 1.7 3.6 2.2 5.5 1.1 2.1-1.2 2.8-3.8 1.7-5.9-.7-1.3-1.9-2-3.3-2.2l-.1-34.4c.4-.1.7-.2 1.1-.4 1.7-.9 2.3-2.9 1.6-4.7l29.6-17.2c1.4 1.7 3.9 2.3 5.9 1.2 2.3-1.3 3.1-4.1 1.8-6.3-.7-1.3-2-2.1-3.4-2.3l-.1-33.8c.4-.1.8-.2 1.2-.4 1.8-1 2.5-3.3 1.4-5.1-1-1.8-3.3-2.5-5.1-1.4-.4.2-.7.5-1 .8l-30.4-17.4c.5-1 .5-2.3-.1-3.3-1-1.8-3.3-2.5-5.1-1.4-1.7.9-2.3 3-1.6 4.7l-29.6 17.3c-1.4-1.8-3.9-2.4-6-1.2-2.3 1.3-3.1 4.1-1.8 6.3.8 1.4 2.1 2.2 3.6 2.4l.1 34c-.5.1-.9.2-1.3.4-1.7.9-2.3 3-1.6 4.7L938 208.1c-1.1-1.4-3.1-1.8-4.7-.9-1.8 1-2.5 3.3-1.4 5.1.6 1.1 1.7 1.7 2.8 1.9l.1 33.9c-.6.1-1.2.2-1.8.6-2.1 1.2-2.9 3.8-2 6l-27.4 15.9c-1.8-2.4-5.1-3.1-7.7-1.7-.8.4-1.4 1-1.9 1.7l-28.4-16.3c.4-1 .3-2.1-.2-3.1-1-1.8-3.3-2.5-5.1-1.4-1.6.9-2.3 2.8-1.7 4.5l-29.4 17.1c-1.4-1.9-3.9-2.5-6-1.3-2.3 1.3-3.1 4.1-1.8 6.3.8 1.4 2.1 2.2 3.5 2.3l.1 34c-.4.1-.8.2-1.1.4-1.8 1-2.5 3.3-1.5 5.1 1 1.8 3.3 2.5 5.1 1.4.4-.2.7-.5 1-.8l30.4 17.4c-.4 1-.3 2.1.2 3.1 1 1.8 3.3 2.5 5.1 1.4 1.7-.9 2.3-3 1.6-4.7l29.4-17.1c1.4 1.8 3.9 2.4 5.9 1.2.6-.3 1.1-.8 1.4-1.3l29.6 16.9c-.4 1-.4 2.2.2 3.2.6 1.1 1.7 1.8 2.9 1.9l.1 32.9c-.8.1-1.6.3-2.3.7-2.8 1.5-3.8 4.9-2.5 7.8l-27.5 16c-1.4-1.8-3.9-2.3-5.9-1.2-.6.3-1.1.7-1.4 1.2l-28.7-16c.6-1.3.6-2.9-.1-4.2-1.3-2.2-4.1-3.1-6.3-1.8-2.1 1.2-2.9 3.7-2 5.8l-27.7 16.1c-1.7-2.6-5.1-3.4-7.9-1.9-2.9 1.6-3.9 5.3-2.3 8.2 1 1.8 2.9 2.9 4.8 3.1l.1 32.8c-.4.1-.9.2-1.3.4-1.6.9-2.2 2.9-1.4 4.6L792.3 463c-1.2-1.5-3.3-2-5.1-1-1.9 1.1-2.6 3.5-1.5 5.4.6 1.2 1.8 1.9 3 2l.1 33.1c-.7.1-1.3.3-2 .6-2.4 1.4-3.3 4.4-2.2 6.8L757 526c-1.3-2-4-2.7-6.1-1.5-.8.4-1.4 1.1-1.8 1.8l-29.6-16.9c.3-1 .3-2.1-.3-3-1-1.8-3.3-2.5-5.1-1.4-1.6.9-2.3 2.8-1.7 4.5l-28 16.3c-1.8-2.4-5.1-3.2-7.8-1.7-.9.5-1.6 1.2-2.1 2l-28.7-16.4c.3-1 .3-2.1-.3-3-.6-1-1.6-1.7-2.6-1.9l-.1-35.3c.4-.1.8-.2 1.2-.4 1.6-.9 2.3-2.9 1.7-4.6l29.3-17.1c1.4 1.7 3.9 2.2 5.9 1.1 2.3-1.3 3.1-4.1 1.8-6.3-.7-1.3-2-2.1-3.3-2.3l-.1-34c.4-.1.9-.2 1.3-.4 1.7-.9 2.3-2.9 1.6-4.7l29-16.9c1.6 2.1 4.4 2.8 6.8 1.5.7-.4 1.3-1 1.8-1.6l28.8 16.5c-.5 1.1-.5 2.4.2 3.5 1.1 1.9 3.5 2.6 5.4 1.5 1.8-1 2.5-3.1 1.8-4.9l29.5-17.1c1.4 1.9 3.9 2.5 6 1.3 2.3-1.3 3.1-4.1 1.8-6.3-.8-1.4-2.2-2.2-3.6-2.4l-.1-31.7c.8-.1 1.6-.3 2.3-.7 2.9-1.6 3.9-5.3 2.3-8.2-1.6-2.9-5.3-3.9-8.2-2.3-.8.4-1.4 1-1.9 1.7l-28.6-16.4c.3-.9.3-2-.2-2.9-.9-1.7-3.1-2.3-4.8-1.4-1.5.9-2.2 2.7-1.6 4.3l-30.6 17.8c-1.1-1.5-3.2-2-4.8-1-.4.2-.8.6-1.1.9l-29-16.6c.6-1.5.6-3.2-.2-4.7-1.4-2.6-4.7-3.5-7.3-2.1-2.4 1.4-3.4 4.4-2.2 6.9L645.3 336c-1.3-1.6-3.6-2.1-5.5-1.1-2.1 1.2-2.8 3.8-1.7 5.9.7 1.3 1.9 2 3.3 2.2l.1 32.7c-.7.1-1.4.3-2.1.6-2.5 1.4-3.4 4.4-2.1 6.9L609 399.7c-1.4-1.7-3.9-2.3-5.9-1.2-2.3 1.3-3.1 4.1-1.8 6.3.7 1.3 2.1 2.1 3.5 2.3l.1 31.9c-.8.1-1.5.3-2.2.7-2.7 1.5-3.8 4.8-2.6 7.6L573 463.1c-1.6-2-4.4-2.7-6.7-1.4-.6.3-1.1.8-1.5 1.3L537 447.3c.7-1.5.7-3.3-.1-4.8-1.4-2.5-4.6-3.5-7.2-2-2.4 1.3-3.3 4.2-2.2 6.7L499 463.7c-1.4-1.9-4-2.6-6.1-1.4-.6.3-1.1.7-1.4 1.2L462.6 447c.4-1.1.4-2.4-.2-3.5-.7-1.3-2-2-3.4-2l-.1-32.8c.7-.1 1.5-.3 2.2-.7 2.9-1.6 3.9-5.3 2.3-8.2-1.6-2.9-5.3-3.9-8.2-2.3-.8.5-1.5 1.1-2 1.8l-27.9-16c.5-1.1.5-2.4-.2-3.5-1.1-1.9-3.5-2.6-5.4-1.5-1.8 1-2.5 3.1-1.7 5l-28.5 16.6c-1.6-2.1-4.4-2.8-6.8-1.5-2.5 1.4-3.5 4.6-2 7.2.8 1.5 2.2 2.3 3.7 2.6l.1 31.6c-.8.1-1.5.3-2.2.7-2.9 1.6-3.9 5.3-2.3 8.2 1.6 2.9 5.3 3.9 8.2 2.3.9-.5 1.5-1.1 2-1.9l27.4 15.7c-.7 1.4-.8 3.1 0 4.5s2.3 2.3 3.8 2.4l.1 32.1c-.7.1-1.5.3-2.1.6-2.5 1.4-3.5 4.6-2 7.2 1.4 2.5 4.6 3.5 7.2 2 .7-.4 1.3-.9 1.7-1.5l28.8 16.5c-.5 1.1-.4 2.4.2 3.5 1.1 1.9 3.5 2.6 5.4 1.5 1.8-1 2.5-3.1 1.8-4.9l29.5-17.2c1.4 1.8 3.9 2.4 6 1.3.6-.3 1-.7 1.4-1.2L528 528c-.5 1.3-.5 2.7.2 4 1.3 2.2 4.1 3.1 6.3 1.8 2.1-1.2 2.9-3.6 2-5.8l29.3-17.1c1.2 1.5 3.3 2 5.1 1 .4-.2.8-.6 1.1-.9l29.1 16.6c-.7 1.5-.7 3.2.2 4.8.9 1.5 2.4 2.5 4 2.6l.1 32.2c-.5.1-1.1.2-1.6.5-2.2 1.2-3 3.9-1.9 6.1L572.3 591a3.82 3.82 0 00-4.8-1c-.5.3-.8.6-1.1 1l-29.6-17c.5-1.3.5-2.8-.2-4.1-1.3-2.2-4.1-3.1-6.3-1.8-2.1 1.2-3 3.8-2 6L499 591.2c-1.1-1.4-3.1-1.8-4.7-.9-1.8 1-2.5 3.3-1.4 5.1.6 1 1.5 1.7 2.6 1.8l.1 35.2c-.3.1-.7.2-1 .4-1.6.9-2.3 2.8-1.7 4.5l-29.2 17c-1.6-1.9-4.3-2.4-6.6-1.2-2.5 1.4-3.5 4.6-2 7.2.8 1.5 2.2 2.4 3.8 2.6l.1 31.4c-.7.1-1.3.3-2 .6-2.5 1.4-3.4 4.5-2.1 7L426 718.7c-1.2-1.4-3.3-1.8-5-.9-.4.2-.8.6-1.1.9L392 702.8c.7-1.7.7-3.6-.3-5.3-1.6-2.9-5.3-3.9-8.2-2.3-2.7 1.5-3.8 4.7-2.6 7.5L354 718.3c-1.6-1.9-4.4-2.5-6.6-1.3-2.5 1.4-3.5 4.6-2 7.2.8 1.5 2.2 2.4 3.8 2.6l.1 33.3c-.5.1-.9.2-1.4.4-1.7.9-2.4 3-1.6 4.7l-29.2 17c-1.6-2.1-4.4-2.8-6.8-1.5-.7.4-1.3 1-1.7 1.6L281 766.6c.7-1.5.7-3.3-.1-4.8-1.4-2.5-4.6-3.5-7.2-2-2.4 1.3-3.3 4.3-2.2 6.8l-28.9 17a3.82 3.82 0 00-4.8-1c-.5.3-.9.7-1.2 1.1l-28.6-16c.8-1.7.8-3.7-.2-5.5-1-1.8-2.8-2.9-4.8-3.1l-.2-32.8c.4-.1.8-.2 1.2-.4 1.8-1 2.5-3.3 1.5-5.1-1-1.8-3.3-2.5-5.1-1.4-.5.3-.8.6-1.1 1l-30.1-17.1c.5-1.1.5-2.4-.2-3.5-1.1-1.9-3.5-2.6-5.4-1.5-1.8 1-2.5 3.2-1.7 5.1l-28.7 16.9c-1.6-2-4.4-2.5-6.6-1.3-2.5 1.4-3.5 4.6-2 7.2.8 1.5 2.3 2.4 3.9 2.6l.2 33.3c-.4.1-.8.2-1.2.4-1.8 1-2.5 3.3-1.4 5.1 1 1.8 3.3 2.5 5.1 1.5.5-.3.8-.6 1.1-1l28.9 16.4c-.6 1.5-.6 3.2.2 4.6.9 1.6 2.5 2.6 4.3 2.7l.2 32c-.6.1-1.2.3-1.8.6-2.4 1.3-3.3 4.3-2.2 6.8L134 847.6c-1.5-2.1-4.5-2.8-6.8-1.5-.7.4-1.3.9-1.7 1.5L97 831.4c.4-1.2.4-2.5-.3-3.7-1.2-2.1-3.9-2.9-6-1.7-2 1.1-2.8 3.5-1.9 5.6l-29.4 17.3c-1.1-1.3-3.1-1.7-4.7-.8-1.8 1-2.5 3.3-1.4 5.1.6 1 1.6 1.7 2.6 1.9l.2 33.4c-.6.1-1.2.3-1.7.6-2.5 1.4-3.5 4.6-2 7.2 1.2 2.4 4.4 3.3 7 1.8zm143.5-10.9c-.7.1-1.5.2-2.2.6-2.4 1.4-3.3 4.3-2.2 6.8l-28.2 16.6c-1.3-1.6-3.6-2.1-5.4-1.1-.6.3-1.1.8-1.4 1.3l-28.8-16.3c.7-1.5.7-3.2-.2-4.7-.9-1.5-2.4-2.5-4-2.7l-.2-31.9c.6-.1 1.3-.3 1.9-.6 2.4-1.4 3.3-4.3 2.2-6.8l27.9-16.4c1.5 2.2 4.5 2.9 6.8 1.6.7-.4 1.2-.9 1.6-1.4l27.2 15.5 1.2.7c-.5 1.2-.5 2.7.2 3.9.7 1.3 2 2.1 3.3 2.2l.3 32.7zm114.5-57.6c.5-1.2.5-2.6-.2-3.8-.7-1.3-2.1-2.1-3.5-2.3l-.2-32.8c.7-.1 1.3-.3 1.9-.6 2.4-1.4 3.4-4.4 2.2-6.9l29.2-17c1.1 1.4 3.1 1.9 4.8.9.4-.2.8-.6 1.1-.9l29 16.6c-.6 1.4-.5 3.1.3 4.5.9 1.6 2.5 2.5 4.2 2.7l.1 33c-.5.1-1.1.2-1.6.5-2 1.1-2.8 3.6-1.9 5.7L353 846.5c-1.2-1.2-3-1.6-4.5-.7-.4.2-.8.6-1.1.9l-30-17.1zm101.8-63.1c1.5 2.1 4.5 2.9 6.8 1.5.6-.4 1.2-.8 1.6-1.4l28.3 16.2c-.5 1.2-.5 2.6.2 3.9.7 1.3 2 2.1 3.4 2.2l.1 33c-.6.1-1.2.3-1.7.6-2.4 1.3-3.3 4.2-2.3 6.6l-29 16.9c-1.1-1.4-3.1-1.9-4.8-.9-.5.3-.9.6-1.2 1l-30-17.2c.5-1.2.5-2.6-.2-3.8-.7-1.3-2.1-2.1-3.5-2.3l-.1-32.9c.7-.1 1.4-.3 2-.6 2.3-1.3 3.3-4.1 2.3-6.5l28.1-16.3zm-64.9 126.3c.6-1.2.6-2.7-.1-4-.7-1.3-2-2.1-3.4-2.2l-.1-33.8c.5-.1.9-.2 1.4-.4 1.8-1 2.4-3.2 1.5-5l29.7-17.3c1.3 1.7 3.7 2.3 5.7 1.2.6-.3 1.1-.8 1.4-1.3l30 17.2c-.4 1-.4 2.2.2 3.2.6 1 1.5 1.6 2.6 1.8l.1 34.6c-.5.1-1.1.2-1.6.5-1.9 1.1-2.7 3.4-2 5.4L391.4 909c-1.5-2.2-4.5-2.9-6.9-1.6-.8.4-1.4 1-1.8 1.7l-28.4-16.3zm142.4-5.9c-.4.1-.8.2-1.2.4-1.7.9-2.3 2.9-1.6 4.7L465 908.9c-1.5-2.3-4.5-3-6.9-1.7-.8.4-1.4 1.1-1.8 1.8L428 892.8c.5-1.2.5-2.6-.2-3.8-.7-1.3-2.1-2.1-3.5-2.3l-.1-34.5c.5 0 1-.2 1.5-.5 1.7-.9 2.3-3 1.6-4.7l28.9-16.8c1.5 2.3 4.5 3 6.9 1.7.7-.4 1.2-.9 1.6-1.4l27.8 15.9c-.6 1.4-.6 3.1.2 4.6.8 1.5 2.3 2.4 3.8 2.6l.2 33.3zm179.4-104.8c-.7 1.4-.8 3 0 4.5.8 1.4 2.2 2.3 3.8 2.4l.1 33.6c-.5.1-.9.2-1.4.4-1.7 1-2.4 3.1-1.7 4.9L647.4 845a4.43 4.43 0 00-5.8-1.4c-.6.3-1.1.8-1.5 1.4l-29.8-17c.5-1.1.5-2.3-.1-3.4-.6-1-1.6-1.7-2.6-1.8l-.1-33.5c.7-.1 1.3-.3 2-.6 2.4-1.3 3.3-4.2 2.3-6.6l28.9-16.8c1.1 1.3 3.1 1.7 4.7.8.4-.2.8-.6 1.1-.9l29.6 16.9zM602 782c-.6 1.4-.6 3.1.2 4.6.9 1.6 2.5 2.5 4.1 2.7l.1 33.4c-.5.1-1 .2-1.4.5-1.8 1-2.4 3.2-1.5 5L574 845.4c-1.2-2-3.8-2.7-5.9-1.5-.6.4-1.2.9-1.5 1.4l-28.7-16.4c.5-1.2.5-2.7-.2-3.9-.8-1.4-2.1-2.2-3.6-2.3l-.1-34.1c.4-.1.8-.2 1.1-.4 1.7-1 2.4-3.1 1.5-4.9l30.4-17.7c1.1 1.6 3.2 2.1 4.9 1.2.5-.3 1-.7 1.3-1.2L602 782zm-72 1.1c-.6 1.1-.6 2.4 0 3.6.6 1.1 1.7 1.8 2.9 1.9l.1 34.1c-.5.1-.9.2-1.4.5-2 1.1-2.7 3.4-2 5.5l-28.2 16.4c-1.6-2-4.4-2.6-6.7-1.3-.7.4-1.3 1-1.7 1.6l-27.8-15.9c.7-1.5.7-3.3-.2-4.8-.9-1.7-2.7-2.6-4.5-2.7l-.1-32.9c.5-.1 1.1-.2 1.6-.5 2-1.1 2.8-3.5 1.9-5.6l29.7-17.3c1.1 1.4 3.1 1.9 4.8 1 .4-.2.8-.6 1.1-.9l30.5 17.3zm-33.8-23.5c-.4.1-.9.2-1.3.4-1.7.9-2.3 3-1.6 4.7l-28.2 16.4-1.6.9c-1.3-1.8-3.8-2.4-5.8-1.3-.6.3-1.1.8-1.4 1.3l-28.2-16.2c.8-1.5.8-3.4-.1-5s-2.6-2.6-4.3-2.7l-.1-32.8c.5-.1 1-.2 1.5-.5 1.9-1 2.6-3.4 1.6-5.3l28.8-16.8c1.6 2 4.4 2.6 6.7 1.4.6-.3 1.1-.8 1.6-1.3l29.1 16.7c-.6 1.1-.6 2.5.1 3.7.7 1.2 1.8 1.9 3.1 2l.1 34.4zm179.5-104.8c-.6 1.3-.6 2.8.2 4.2.8 1.4 2.1 2.2 3.6 2.4l.1 34.1c-.5.1-1 .2-1.4.4-1.7.9-2.3 3-1.6 4.7l-28.8 16.8c-1.5-2.3-4.5-3.1-7-1.8-.8.4-1.4 1-1.8 1.7l-28.8-16.5c.5-1.1.5-2.4-.1-3.5s-1.8-1.8-3-1.9l-.1-34.9c.4-.1.8-.2 1.1-.4 1.6-.9 2.3-2.8 1.7-4.5l29.2-17c1.6 2.1 4.4 2.7 6.7 1.4.6-.4 1.2-.8 1.6-1.4l28.4 16.2zm-33.1-24.7c-.7.1-1.3.3-2 .6-2.5 1.4-3.4 4.4-2.1 6.9l-29.2 17c-1.1-1.5-3.2-2.1-4.9-1.1-.5.3-.8.6-1.1 1l-29.2-16.7c.6-1.3.6-2.8-.2-4.1-.8-1.4-2.2-2.3-3.8-2.4l-.1-34.2c.4-.1.9-.2 1.3-.4 1.7-.9 2.3-3 1.6-4.7l29.6-17.3c1.4 1.8 3.9 2.3 5.9 1.2.5-.3.9-.7 1.3-1.1l29.8 17.1c-.4 1-.3 2.1.2 3.1.6 1 1.6 1.7 2.7 1.9l.2 33.2zm293.8-.4c-.7 0-1.4.2-2 .6-2.2 1.2-3 4-1.8 6.3l-29.2 17c-1.1-1.4-3.1-1.9-4.7-1-.5.3-1 .7-1.3 1.2l-29.8-17c.6-1.3.6-2.9-.1-4.2-.8-1.4-2.1-2.2-3.6-2.4l-.1-33.8c.4-.1.8-.2 1.2-.4 1.7-1 2.4-3.1 1.5-4.9l29.5-17.2c1.4 1.9 4 2.5 6 1.4.6-.3 1.1-.8 1.5-1.3l29.7 17c-.3.9-.2 1.9.3 2.8.6 1 1.5 1.7 2.6 1.8l.3 34.1zm105.7-103.5c-.6 1.5-.6 3.2.2 4.7s2.3 2.4 3.9 2.6l.1 32.4c-.7 0-1.3.2-2 .6-2.2 1.2-3 4-1.9 6.2l-29.5 17.2c-1.1-1.5-3.2-2-4.8-1.1-.4.2-.8.6-1.1 1L978 573c.7-1.5.7-3.3-.2-4.8-.9-1.5-2.4-2.5-4-2.7l-.1-33.4c.4-.1.8-.2 1.1-.4 1.6-.9 2.3-2.9 1.7-4.6l30.4-17.7c1.1 1.4 3.1 1.9 4.8 1 .5-.3.9-.6 1.2-1l29.2 16.8zm-141.9 8.4c.8-.1 1.7-.3 2.4-.7 2.8-1.5 3.8-5 2.5-7.8l27.4-16c1.4 1.9 4 2.6 6.1 1.4.7-.4 1.2-.9 1.6-1.5l29.4 16.9c-.4 1-.4 2.3.2 3.3.6 1.1 1.8 1.8 3 1.9l.1 33.3c-.7.1-1.4.3-2.1.6-2.5 1.4-3.4 4.4-2.1 6.9l-28.6 16.6c-1.1-1.5-3.2-2-4.9-1.1-.6.3-1 .8-1.3 1.3L904.2 573c.5-1.3.5-2.8-.2-4-.8-1.4-2.2-2.2-3.7-2.4l-.1-32zM859.9 591c-.5 1.1-.5 2.4.1 3.5s1.7 1.7 2.8 1.9l.1 33.8c-.6.1-1.2.2-1.7.6-2.1 1.2-3 3.8-1.9 6l-28.5 16.6c-1.3-2-4-2.6-6.1-1.5-.7.4-1.2.9-1.6 1.6l-28-16c.7-1.5.7-3.3-.1-4.8-.9-1.7-2.6-2.6-4.4-2.7l-.1-33.6c.5-.1 1-.2 1.4-.5 1.7-.9 2.3-2.9 1.6-4.7l28.2-16.4c1.8 2.4 5.1 3.2 7.8 1.7.8-.5 1.5-1.1 2-1.8l28.4 16.3zm-34-25.7c-.8.1-1.6.3-2.4.7-2.8 1.6-3.9 5.1-2.4 7.9l-28.2 16.4c-1.1-1.5-3.1-1.9-4.8-1-.5.3-.9.7-1.2 1.1l-29.1-16.6c.7-1.5.7-3.3-.1-4.8-.9-1.6-2.5-2.5-4.1-2.7l-.1-32.9c.7 0 1.4-.2 2.1-.6 2.1-1.2 2.9-3.6 2.1-5.8l27.7-16.1c1.5 2.1 4.4 2.8 6.8 1.5.7-.4 1.2-.9 1.7-1.5l29.1 16.6c-.4 1-.4 2.2.2 3.2.6 1.1 1.7 1.8 2.9 1.9l-.2 32.7zm146.5-126.5c-.6.1-1.3.2-1.9.6-2.2 1.2-3 3.9-1.9 6.1l-27.9 16.2c-1.8-2.2-5-2.9-7.6-1.5-.7.4-1.2.8-1.7 1.4l-28.2-16.1c.6-1.2.6-2.6 0-3.8-.7-1.3-2-2-3.3-2l-.1-33.5c.6-.1 1.2-.2 1.8-.6 2.2-1.2 3-3.9 1.9-6.1l27.4-16c1.7 2.5 5.1 3.4 7.9 1.8.8-.5 1.5-1.1 2-1.8l26.5 15.2c-.8 1.7-.8 3.7.2 5.5 1 1.8 2.8 2.9 4.7 3.1l.2 31.5zm180.3-103.3c-.5 1.1-.5 2.3.1 3.5.6 1.1 1.7 1.8 2.8 1.9l.1 32.3c-.9 0-1.8.3-2.6.7-2.9 1.6-3.9 5.2-2.4 8.1l-28.2 16.4c-1-1.7-3.2-2.3-5-1.3-.5.3-.9.7-1.2 1.1l-27.9-16c.9-1.7 1-3.9-.1-5.7-1.1-1.9-3-3-5.1-3.1l-.1-32.4c.5-.1.9-.2 1.4-.4 1.7-1 2.4-3.1 1.6-4.9l28.4-16.5c1.7 2.5 5.1 3.4 7.9 1.9.8-.5 1.5-1.1 2-1.8l28.3 16.2zm-73.4.3c-.5 1-.5 2.3.1 3.4s1.6 1.7 2.7 1.9l.1 32.5c-.7.1-1.4.3-2.1.7-2.8 1.5-3.8 5-2.5 7.8l-28.6 16.6c-1.1-1.5-3.2-2.1-4.9-1.1-.5.3-.9.7-1.2 1.1l-28.3-16.2c.8-1.7.8-3.8-.1-5.6-1-1.8-2.8-2.9-4.8-3.1l-.1-32.8c.5-.1.9-.2 1.3-.4 1.7-.9 2.3-2.9 1.6-4.7l29.8-17.3c1.3 1.8 3.7 2.4 5.6 1.3.6-.3 1-.7 1.4-1.2l30 17.1zM972.1 151.4c.6-.1 1.2-.3 1.8-.6 2.2-1.2 3-3.9 1.9-6.1l29.6-17.3c1.1 1.4 3.1 1.9 4.8 1 .4-.2.8-.5 1.1-.9l30.3 17.4c-.5 1.1-.5 2.4.1 3.5s1.7 1.8 2.9 1.9l.1 33.7c-.7 0-1.3.2-1.9.6-2.2 1.2-3 3.9-1.9 6.1l-29.5 17.2c-1.1-1.5-3.2-2-4.8-1-.4.2-.7.5-1 .9l-30.3-17.4c.4-1 .3-2.1-.2-3.1-.6-1.1-1.6-1.7-2.8-1.9l-.2-34zm-36.5 62.8c.4-.1.9-.2 1.3-.4 1.7-1 2.4-3.1 1.6-4.8l30.3-17.6c1.1 1.4 3.1 1.9 4.8 1 .5-.3.9-.6 1.2-1l30.3 17.3c-.5 1-.5 2.3.1 3.3.6 1.2 1.8 1.8 3 1.9l.1 34.3c-.6.1-1.1.2-1.6.5-2 1.1-2.7 3.5-1.8 5.6L975 271.7c-1.1-1.3-3-1.6-4.6-.8-.4.2-.7.5-.9.8l-29.9-17.1c.5-1.3.5-2.7-.2-4-.8-1.4-2.1-2.2-3.5-2.4l-.3-34zM829 318.2c.5-1.1.5-2.4-.1-3.5s-1.8-1.8-3-1.9l-.1-33.9c.6-.1 1.3-.2 1.8-.6 2.1-1.2 2.9-3.8 2-6l29.3-17.1c1.1 1.6 3.2 2.1 4.9 1.1.5-.3.9-.7 1.2-1.1l28.4 16.2c-.9 1.7-.9 3.8.1 5.6 1 1.8 2.8 2.9 4.7 3l.1 31.5c-.6.1-1.2.2-1.8.6-2.2 1.2-3 3.9-1.9 6.1l-29.4 17.1a3.82 3.82 0 00-4.8-1c-.5.3-.9.6-1.2 1.1L829 318.2zm74.1.2c.6-1.3.6-2.9-.1-4.2-.8-1.3-2.1-2.2-3.5-2.3l-.1-31.6c.8-.1 1.7-.3 2.4-.7 2.8-1.6 3.9-5.1 2.4-8l27.4-15.9c1.4 1.9 3.9 2.5 6 1.3.6-.3 1.1-.8 1.5-1.4l29.8 17c-.5 1.1-.5 2.3.1 3.4s1.7 1.7 2.8 1.9l.1 32.3c-.8.1-1.6.3-2.4.7-2.8 1.6-3.9 5-2.5 7.9l-28.4 16.5c-1.1-1.5-3.2-2-4.9-1.1-.5.3-.9.6-1.2 1l-29.4-16.8zm33.1 22.8c.4-.1.8-.2 1.2-.4 1.6-.9 2.3-2.9 1.7-4.6l28.4-16.6c1.8 2.4 5.1 3.2 7.8 1.7.8-.4 1.4-1 1.9-1.7l28.4 16.3c-.4 1-.4 2.2.2 3.2.6 1.1 1.6 1.7 2.7 1.9l.1 32.8c-.8.1-1.6.3-2.3.7-2.8 1.6-3.8 5-2.5 7.8l-26.4 15.3c-1.8-2.4-5.1-3.2-7.7-1.7-.8.4-1.4 1-1.9 1.7l-26.6-15.2c.7-1.7.7-3.7-.2-5.4-1-1.8-2.9-2.9-4.8-3.1v-32.7zm-109.9 66.3c.8-.1 1.6-.3 2.4-.7 2.8-1.5 3.8-4.9 2.5-7.7l27.7-16.1c1.3 2 4 2.6 6.1 1.5.6-.3 1.1-.8 1.4-1.3l28.7 16.4c-.6 1.3-.6 2.9.1 4.3.8 1.4 2.1 2.2 3.5 2.3l.1 33.6c-.4.1-.7.2-1.1.4-1.8 1-2.5 3.2-1.7 5l-28.5 16.6c-1.7-2.6-5.2-3.5-7.9-2-.8.5-1.5 1.1-2 1.9L829 445.3c.4-1 .4-2.1-.1-3.2-.5-1-1.5-1.6-2.5-1.7l-.1-32.9zm-36.6 62c.5-.1 1-.2 1.4-.5 1.8-1 2.5-3.2 1.7-5.1l30.5-17.8c1.1 1.2 2.8 1.5 4.3.7.3-.2.6-.4.9-.7l28.7 16.4c-.7 1.7-.7 3.6.2 5.4 1 1.9 2.9 2.9 4.9 3.1l.1 32c-.6.1-1.2.2-1.7.6-2.1 1.2-2.9 3.8-2 6l-29.5 17.2a3.82 3.82 0 00-4.8-1c-.4.2-.8.6-1.1.9L794.2 510c.7-1.5.7-3.2-.2-4.7-.9-1.6-2.5-2.5-4.2-2.7l-.1-33.1zm-40.9 57.8c-.3 1.2-.2 2.5.4 3.6.7 1.2 1.9 2 3.2 2.3l.1 33c-.7.1-1.3.3-2 .6-2.4 1.4-3.4 4.4-2.2 6.8l-28 16.3c-1.3-2-4-2.7-6.1-1.5-.7.4-1.3 1-1.7 1.6l-28.6-16.4c.6-1.3.7-2.9-.1-4.3-.8-1.4-2.2-2.3-3.7-2.4l-.1-31.7c.9 0 1.8-.3 2.7-.7 2.8-1.6 3.9-5 2.4-7.9l28-16.3c1.1 1.5 3.2 2.1 4.9 1.1.5-.3.9-.7 1.3-1.2l29.5 17.1zm34.6-191.8c-.8 1.7-.9 3.8.1 5.6 1 1.9 2.9 2.9 4.9 3.1l.1 31.7c-.6.1-1.2.2-1.7.6-2.1 1.2-2.9 3.8-2 6l-29.4 17.1c-1.2-1.6-3.4-2.2-5.2-1.2-.5.3-.9.6-1.2 1.1L720.2 383c.6-1.5.6-3.2-.2-4.7-.9-1.5-2.4-2.5-4-2.6l-.1-33.6c.4-.1.8-.2 1.2-.4 1.7-.9 2.3-2.9 1.6-4.6l30.6-17.8c1 1.4 2.9 1.8 4.5 1 .4-.2.8-.6 1.1-1l28.5 16.2zm-141 7.5c.6-.1 1.1-.2 1.6-.5 2-1.1 2.8-3.6 1.8-5.6l28.3-16.5c1.6 2.2 4.5 2.9 6.9 1.6.8-.4 1.4-1 1.8-1.7l28.9 16.6c-.4 1-.4 2.2.2 3.3.6 1.1 1.7 1.8 2.9 1.9l.1 33.5c-.7.1-1.5.2-2.2.6-2.4 1.4-3.4 4.4-2.2 6.9L681.6 400c-1.1-1.5-3.1-1.9-4.8-1-.4.2-.8.6-1.1.9l-29.1-16.6c.7-1.5.7-3.3-.2-4.8-.9-1.6-2.4-2.5-4.1-2.7l.1-32.8zm-36.6 64.2c.6-.1 1.3-.2 1.9-.6 2.2-1.2 3-3.9 1.9-6.1l28.2-16.4c1.6 2.1 4.4 2.7 6.8 1.4.7-.4 1.2-.9 1.6-1.5l29.1 16.7c-.4 1-.4 2.2.2 3.2.6 1.1 1.7 1.8 2.8 1.9l.1 34c-.7 0-1.4.2-2 .6-2.2 1.2-3 4-1.9 6.2l-29.2 17c-1.1-1.5-3.2-2-4.8-1.1-.5.3-.9.6-1.2 1l-28.2-16.1c.7-1.6.7-3.6-.3-5.3-1-1.9-2.9-3-4.9-3.1l-.1-31.8zm-215.1 41c.8-1.7.7-3.7-.2-5.4-1-1.9-2.9-3-4.9-3.1l-.1-31.5c.8 0 1.7-.2 2.4-.6 2.4-1.4 3.4-4.4 2.2-6.9l28.4-16.6c1.2 1.6 3.4 2.1 5.1 1.1.5-.3.9-.6 1.2-1.1l27.9 16c-.8 1.7-.8 3.7.2 5.5 1.1 1.9 3 3 5 3.1l.1 32.9c-.4.1-.7.2-1.1.4-1.7.9-2.4 2.9-1.9 4.7l-29.8 17.4c-1.4-1.7-3.9-2.2-5.9-1.1-.5.3-.9.6-1.2 1l-27.4-15.8zm36.1 63c.7-1.5.7-3.2-.2-4.8-.9-1.5-2.4-2.5-4-2.7l-.1-32.1c.5-.1 1.1-.2 1.6-.5 2.2-1.2 3-4 1.9-6.2l29.7-17.3c1.1 1.8 3.5 2.4 5.3 1.4.5-.3.9-.7 1.2-1.1l28.9 16.5c-.6 1.3-.6 2.9.1 4.3.8 1.4 2.2 2.3 3.8 2.4l.1 33c-.6.1-1.1.2-1.6.5-2.1 1.2-3 3.8-1.9 6L462 527.8c-1.2-1.7-3.4-2.2-5.2-1.2-.5.3-.9.7-1.2 1.1l-28.8-16.5zm73.1-.5c.6-1.3.7-2.9-.1-4.3-.8-1.4-2.2-2.3-3.7-2.4l-.1-33c.5-.1 1.1-.2 1.6-.5 2.1-1.2 2.9-3.7 2-5.9L528 448c1.5 2.2 4.5 3 6.9 1.6.7-.4 1.2-.9 1.7-1.5l27.6 15.8c-.8 1.5-.8 3.4.1 5s2.5 2.5 4.2 2.7l.1 32.8c-.5.1-.9.2-1.3.4-1.8 1-2.5 3.2-1.7 5.1l-29.3 17c-1.3-2-4-2.7-6.1-1.5-.7.4-1.2.9-1.6 1.5l-28.7-16.2zm72.8-.5c.5-1.1.5-2.5-.1-3.7-.7-1.2-1.8-1.9-3.1-2l-.1-32.8c.7-.1 1.3-.3 1.9-.6 2.5-1.4 3.4-4.5 2.1-7l27-15.7c1.7 2.7 5.2 3.6 8 2 .9-.5 1.6-1.1 2.1-1.9l28.2 16.1c-.4 1-.3 2.1.2 3.1.6 1.1 1.7 1.8 2.9 1.9l.1 35.2c-.5 0-1 .2-1.5.5-1.7.9-2.3 3-1.6 4.7l-28.7 16.7c-1.6-2-4.4-2.6-6.7-1.4-.7.4-1.3.9-1.7 1.6l-29-16.7zm33.7 24.9c.8-.1 1.5-.2 2.2-.6 2.5-1.4 3.4-4.5 2.1-7l28.7-16.7c1.1 1.5 3.1 1.9 4.8 1 .5-.3.9-.7 1.3-1.2l28.7 16.4c-.7 1.7-.7 3.6.3 5.3 1 1.7 2.7 2.8 4.5 3l.1 31.8c-.5.1-1.1.2-1.6.5-2.1 1.2-3 3.8-2 6L646 590.8c-1.1-1.4-3.1-1.8-4.7-.9-.5.3-.9.6-1.2 1l-29.7-17c.7-1.3.7-3-.1-4.4-.8-1.4-2.3-2.3-3.8-2.4l-.1-32zm-109.9 62.3c.5 0 1-.2 1.5-.5 1.7-1 2.4-3 1.6-4.8l29.3-17.1c1.4 1.8 3.9 2.4 6 1.3.6-.3 1.1-.8 1.5-1.4l29.6 17c-.4 1-.4 2.2.2 3.3.6 1.1 1.6 1.7 2.8 1.9l.1 34.3c-.5.1-1 .2-1.5.5-2.1 1.1-2.9 3.6-2.1 5.8l-28.6 16.6c-1.5-2.1-4.5-2.8-6.8-1.5-.6.3-1.1.8-1.5 1.3l-28.7-16.4c.4-1 .4-2.2-.2-3.3-.7-1.2-1.8-1.8-3.1-1.9l-.1-35.1zM459.9 663c.8 0 1.6-.2 2.4-.6 2.5-1.4 3.5-4.6 2-7.2l29-16.9c1.1 1.6 3.2 2.1 4.9 1.2.4-.2.8-.5 1.1-.9L528 655c-.8 1.5-.8 3.4.1 5s2.6 2.6 4.4 2.7l.1 33.2c-.5.1-.9.2-1.3.4-1.7 1-2.4 3.1-1.6 4.8l-30.2 17.6c-1.2-1.4-3.3-1.8-4.9-.8-.4.2-.7.5-1 .8L464.5 702c.7-1.5.8-3.3-.1-4.9-.9-1.6-2.5-2.5-4.2-2.7l-.3-31.4zm-109.8 63.8c.8 0 1.6-.2 2.4-.6 2.5-1.4 3.4-4.6 2.1-7.1l26.8-15.6c1.7 2.7 5.2 3.7 8 2.1.9-.5 1.6-1.2 2.1-2l28 16c-.6 1.1-.6 2.5.1 3.7.6 1.1 1.7 1.8 2.9 2l.1 32.9c-.6.1-1.2.3-1.8.6-2.4 1.3-3.3 4.3-2.2 6.8l-27.8 16.2c-1.5-2.3-4.5-3.1-7-1.8-.8.4-1.4 1-1.8 1.7l-28.9-16.6c.4-1 .4-2.2-.2-3.2-.6-1.1-1.6-1.7-2.7-1.9l-.1-33.2zM308 783.3c-.6 1.5-.6 3.2.2 4.7.9 1.6 2.5 2.5 4.2 2.7l.2 22.1v10.8c-.5.1-1 .2-1.5.5-2 1.1-2.8 3.6-1.9 5.6l-29.7 17.5c-1.1-1.6-3.2-2.1-4.9-1.1-.5.3-.9.6-1.2 1l-29.5-16.7c.5-1.2.5-2.6-.2-3.8-.7-1.3-2.1-2.1-3.5-2.3l-.3-34.6c.5-.1.9-.2 1.3-.4 1.7-.9 2.3-3 1.6-4.7l28.9-17c1.5 2.2 4.5 2.9 6.9 1.6.7-.4 1.2-.9 1.7-1.5l27.7 15.6zm-175.4-16.2c.4-1 .4-2.2-.2-3.2-.6-1.1-1.7-1.8-2.9-1.9l-.2-33.3c.8 0 1.5-.2 2.2-.6 2.5-1.4 3.4-4.6 2.1-7.1l28.7-16.8c1.2 1.5 3.3 2 5.1 1 .5-.3.9-.6 1.2-1l30.1 17.1c-.4 1-.4 2.2.2 3.3.6 1.1 1.8 1.8 3 1.9l.2 32.7c-.8.1-1.6.3-2.4.7-2.8 1.5-3.8 5-2.5 7.8l-27 15.9c-1.5-2.3-4.5-3-6.9-1.7-.7.4-1.3 1-1.8 1.7l-28.9-16.5zm33.9 24.6c.7-.1 1.3-.3 1.9-.6 2.3-1.3 3.3-4.1 2.3-6.6l27-15.9c1.8 2.4 5.1 3.2 7.8 1.7.8-.5 1.5-1.1 2-1.8l28.4 16.1c-.3 1-.3 2.1.2 3.1.6 1 1.6 1.7 2.7 1.9l.3 34.7c-.5.1-1 .2-1.4.5-2 1.1-2.8 3.5-1.9 5.5l-29 17.1c-1.3-1.7-3.7-2.3-5.7-1.2-.6.3-1 .8-1.4 1.3l-28.4-16.1c.7-1.5.8-3.3-.1-4.9-.9-1.6-2.6-2.6-4.3-2.7l-.4-32.1zM56.8 855c.5 0 1-.2 1.5-.5 1.7-1 2.4-3.1 1.5-4.9l29.4-17.2c1.3 1.8 3.8 2.4 5.7 1.3.6-.4 1.1-.9 1.5-1.4l28.4 16.1c-.7 1.5-.7 3.2.2 4.8.9 1.6 2.5 2.6 4.2 2.7l.2 31.9c-.7.1-1.4.3-2 .6-2.5 1.4-3.4 4.4-2.1 6.9l-28.8 16.9c-1.1-1.6-3.2-2.2-4.9-1.2-.5.3-.9.7-1.2 1.1l-28.7-16.3c.7-1.5.7-3.3-.1-4.8-.9-1.7-2.6-2.6-4.4-2.7l-.4-33.3z" opacity=".2" fill="#a7a9ac"/><path fill="none" d="M145.5 88.5h850.4v850.4H145.5z"/></svg>