<?xml version="1.0" encoding="utf-8"?>
<!-- Generator: Adobe Illustrator 17.1.0, SVG Export Plug-In . SVG Version: 6.00 Build 0)  -->
<!DOCTYPE svg PUBLIC "-//W3C//DTD SVG 1.1//EN" "http://www.w3.org/Graphics/SVG/1.1/DTD/svg11.dtd">
<svg version="1.1" id="Layer_1" xmlns="http://www.w3.org/2000/svg" xmlns:xlink="http://www.w3.org/1999/xlink" x="0px" y="0px"
	 viewBox="200 0 560 560" enable-background="new 200 0 560 560" xml:space="preserve">
<path fill="#595757" d="M624.6,169.9H335.4c-17.1,0-30.4,13.3-30.4,30.4v169.3c0,2.1,0.1,4.3,0.6,6.4c2.9,14.3,15,24.1,29.8,24.1
	h289.1c17.2,0,30.5-13.3,30.5-30.4V200.4C655,183.2,641.7,169.9,624.6,169.9z M627,204.8c-28.7,23.9-57.3,47.5-85.3,70.7l85.3,85.3
	v8.8c0,1.7-0.7,2.4-2.5,2.4h-6.6c-29.3-29.3-58.2-58.2-87.4-87.2c-0.4,0.4-1.1,1-1.8,1.5c-14.6,12-29.1,24.1-43.5,36.1
	c-3.6,3.1-6.6,3.1-10.2,0c-8.3-6.9-16.5-13.7-24.9-20.6c-6.9-5.7-13.9-11.5-20.6-17.1c-29,29-58.1,58-87.4,87.2h-6.7
	c-2.1,0-2.2-1-2.4-1.7v-9.1c28.6-28.6,57-57,85.5-85.4c-28.3-23.5-56.7-47-85.5-71v-4.5c0-1.7,0.7-2.4,2.4-2.4h10.2
	c44.9,37.4,89.6,74.3,134.4,111.4c44.8-37.2,89.6-74.3,134.4-111.4h10.2c1.5,0,2.4,0.7,2.4,2.4V204.8L627,204.8z"/>
</svg>
