<svg xmlns="http://www.w3.org/2000/svg" viewBox="0 0 82.5 90"><path fill="#FFF" d="M38.6 9.5c-2.3 0-4.9-.7-4.9-2.1 0-1.5 2.5-2.1 4.9-2.1s4.9.7 4.9 2.1c-.1 1.4-2.6 2.1-4.9 2.1zm0-3.1c-2.5 0-3.7.7-3.7 1s1.3 1 3.7 1 3.7-.7 3.7-1-1.3-1-3.7-1z"/><g fill="#FFF"><path d="M53 64.2c-1.4 0-2.9 0-4.2-.1 0 .5.1 1.1.1 1.6 0 9.4-5.1 17.6-12.7 22C41 89.1 46.8 90 53.1 90c16.3 0 29.5-5.7 29.5-12.7v-1.7c0 7-13.2 12.7-29.5 12.7-5.2 0-10.1-.6-14.4-1.6 0 0 21.6 2.7 34.6-3.1l-.6-18.9a46 46 0 005.1-1.4l-.3 17.8c2.4-1.8 4.2-4.1 5-7.1V57.4c0 3.8-13.2 6.8-29.5 6.8z"/><path d="M53 0C36.7 0 23.5 3 23.5 6.8v33.6c13.1 0 23.9 10.1 25.2 22.9 7.5 0 16.7-.4 23.8-2.1l-.6-21.8c2.4-.5 4.5-1 6.2-1.7l-.3 21.7c2-.9 3.6-1.9 4.7-3.1V31.9c0 3.7-13.2 6.8-29.5 6.8-7 0-13.4-.6-18.5-1.5 0 0 22.5 1.9 37.2-1.4l-.6-20.7c2.9-.5 5.4-1.2 7.3-1.9l-.3 20.6c1.8-.8 3.3-1.8 4.3-3v-24C82.5 3.1 69.3 0 53 0zm.1 13.3c-17.3 0-28.4-3.6-28.4-6.1s11.1-6.1 28.4-6.1 28.4 3.6 28.4 6.1-11.1 6.1-28.4 6.1z"/></g><path fill="#FFF" d="M23.4 89.2C10.5 89.2 0 78.7 0 65.8s10.5-23.4 23.4-23.4 23.4 10.5 23.4 23.4-10.5 23.4-23.4 23.4zm0-45.2c-12 0-21.7 9.7-21.7 21.7s9.7 21.7 21.7 21.7 21.8-9.7 21.8-21.6c0-12-9.8-21.8-21.8-21.8z"/><path fill="#FFF" d="M22.9 50.5S12.4 62.3 12.4 72.6c0 4.9 4.7 8.9 10.5 8.9s10.5-4 10.5-8.9c0-10.4-10.5-22.1-10.5-22.1zm-6 27.7s-3.9-4.7 0-10.7c0 0-1.2 6 2.8 8.7l-2.8 2z"/></svg>