<?xml version="1.0" encoding="utf-8"?>
<!-- Generator: Adobe Illustrator 23.1.0, SVG Export Plug-In . SVG Version: 6.00 Build 0)  -->
<svg version="1.1" id="圖層_1" xmlns="http://www.w3.org/2000/svg" xmlns:xlink="http://www.w3.org/1999/xlink" x="0px" y="0px"
	 viewBox="0 0 101.4 94.8" style="enable-background:new 0 0 101.4 94.8;" xml:space="preserve">
<style type="text/css">
	.st0{fill:#FFFFFF;}
</style>
<g>
	<g id="XMLID_2192_">
		<path id="XMLID_2209_" class="st0" d="M35.5,15.8c-2.6-0.7-5.3-1.4-8-2.1c0.2-1.4,0.4-2.9,0.7-4.3c0.3-2.2,0.7-4.5,1-6.7
			c0.2-1.3,1.6-2.5,2.9-2.6c0.5-0.1,0.6,0.2,0.5,0.6c-0.1,3.7,0.3,7.4,1.4,11c0.4,1.3,1,2.6,1.5,3.9c0,0.1,0.1,0.1,0.1,0.2
			C35.6,15.7,35.5,15.7,35.5,15.8z"/>
		<path id="XMLID_2208_" class="st0" d="M79.5,33.5c5.6-0.1,11.1-0.7,16.7-0.6c0,0.1,0.1,0.2,0.1,0.3c-0.3,0.1-0.7,0.4-1,0.4
			c-4.6,0.7-9.2,1.3-13.9,1.9c-0.4,0.1-0.6-0.1-0.8-0.4C80.3,34.7,79.9,34.1,79.5,33.5z"/>
		<path id="XMLID_2207_" class="st0" d="M17.9,17.9c0.3,0,0.5,0,0.7,0c0.5,0.1,1,0.2,1.5,0.3c1.9,0.4,1.9,0.4,3.1,2.1
			C21.8,20.2,18.3,18.6,17.9,17.9z"/>
		<path id="XMLID_2194_" class="st0" d="M81.9,43c-0.3-1.8-0.6-3.6-1.3-5.3c-0.4,0.5-1.3,1.2-2.6,1.3c-1.9,0.1-7.1-1.3-6.2-2.4
			c0,0,5.7,0.8,7.9-0.9c-1.1-1.9-2.6-3.4-4.5-4.6c-1.4-0.8-2.8-1.4-4.3-1.9c-6.3-2.2-12.5-4.3-18.8-6.4c-5.3-1.8-10.7-3.6-16.1-5.3
			c-4.3-1.4-8.6-2.8-13-4.1C21.9,13,21,13.6,21,14.8c0,0.6,0.1,1.2,0.3,1.7c1.3,2.8,3.5,5,5.9,6.8c1.9,1.4,5.9,3.5,7.9,4.7l2.5,0.6
			c-0.9-0.1-17-2.1-23.9-3.2C9.6,24.7,5.5,24,1.4,23.4c-0.4-0.1-0.9,0-1.3,0c0,0.1,0,0.2-0.1,0.2c0.4,0.2,0.8,0.6,1.2,0.7
			c2,0.6,4,1.2,6.1,1.7c5.9,1.5,11.8,3,17.8,4.3c6.1,1.4,12.2,2.6,18.3,3.8c3.1,0.6,6.3,1.1,9.4,1.6c0,0.9-0.2,1-1.1,0.9
			c-0.4-0.1-0.7-0.1-1-0.2c0.2,0.3,0.5,0.4,0.8,0.6c1.4,0.7,2.9,1.5,4.3,2.2c2.4,1.3,4.8,2.6,7.3,3.8c3.3,1.7,6.7,2.8,10.3,3.4
			c2,0.3,4.1,0.5,6.1,0C81.2,46.1,82.2,45.1,81.9,43z M37.6,25.1c-0.3-0.1-0.5-0.6-0.3-0.9c0.2-0.4,0.6-0.6,0.9-0.4
			c0.3,0.1,0.5,0.6,0.3,0.9C38.4,25,38,25.2,37.6,25.1z M39.7,26c-0.3-0.1-0.5-0.6-0.3-0.9c0.2-0.4,0.6-0.6,0.9-0.4s0.5,0.6,0.3,0.9
			C40.5,25.9,40.1,26.1,39.7,26z M41.9,26.9c-0.3-0.1-0.5-0.6-0.3-0.9c0.2-0.4,0.6-0.6,0.9-0.4c0.3,0.1,0.5,0.6,0.3,0.9
			C42.6,26.9,42.2,27.1,41.9,26.9z M44,27.8c-0.3-0.1-0.5-0.6-0.3-0.9c0.2-0.4,0.6-0.6,0.9-0.4c0.3,0.1,0.5,0.6,0.3,0.9
			C44.7,27.8,44.3,28,44,27.8z M46.1,28.7c-0.3-0.1-0.5-0.6-0.3-0.9c0.2-0.4,0.6-0.6,0.9-0.4c0.3,0.1,0.5,0.6,0.3,0.9
			C46.8,28.7,46.4,28.9,46.1,28.7z M48.2,29.7c-0.3-0.1-0.5-0.6-0.3-0.9s0.6-0.6,0.9-0.4c0.3,0.1,0.5,0.6,0.3,0.9
			C48.9,29.6,48.5,29.8,48.2,29.7z M50.3,30.6C50,30.4,49.9,30,50,29.6c0.2-0.4,0.6-0.6,0.9-0.4s0.5,0.6,0.3,0.9
			C51.1,30.5,50.7,30.7,50.3,30.6z M52.4,31.5c-0.3-0.1-0.5-0.6-0.3-0.9c0.2-0.4,0.6-0.6,0.9-0.4c0.3,0.1,0.5,0.6,0.3,0.9
			C53.2,31.4,52.8,31.6,52.4,31.5z M54.6,32.4c-0.3-0.1-0.5-0.6-0.3-0.9c0.2-0.4,0.6-0.6,0.9-0.4c0.3,0.1,0.5,0.6,0.3,0.9
			C55.3,32.4,54.9,32.5,54.6,32.4z M56.7,33.3c-0.3-0.1-0.5-0.6-0.3-0.9c0.2-0.4,0.6-0.6,0.9-0.4c0.3,0.1,0.5,0.6,0.3,0.9
			C57.4,33.3,57,33.5,56.7,33.3z M58.8,34.2c-0.3-0.1-0.5-0.6-0.3-0.9c0.2-0.4,0.6-0.6,0.9-0.4c0.3,0.1,0.5,0.6,0.3,0.9
			C59.5,34.2,59.1,34.4,58.8,34.2z"/>
		<path id="XMLID_2193_" class="st0" d="M45.9,35.9c-0.2,0-0.4-0.1-0.6-0.1c0,0,0,0,0,0c0.4,1,0.4,1.9-0.1,2.8
			c-0.6,1.1-1.8,1.8-2.8,1.5c-1.1-0.4-1.8-1.5-1.5-2.9c0.2-0.7,0.6-1.4,1-2.1c-3.5-0.7-7.1-1.5-10.7-2.2c0,0-0.1,0.1-0.1,0.1
			c0.3,0.2,0.5,0.4,0.8,0.6c1.4,1,2.8,2,4.2,3c1.6,1.1,3.2,2.3,4.8,3.4c1,0.7,2.2,1,3.4,0.4c1.4-0.8,2.2-2.5,1.9-4.1
			C46,36.1,46,36,45.9,35.9z"/>
	</g>
	<g id="XMLID_2162_">
		<path id="XMLID_2191_" class="st0" d="M73.2,57.8"/>
		<polygon id="XMLID_2190_" class="st0" points="55.7,60.8 49.9,62 46.6,61.8 52.5,60.7 		"/>
		<polygon id="XMLID_2189_" class="st0" points="42.1,63.9 50.3,62.3 54.5,62.5 47,64 		"/>
		<polygon id="XMLID_2188_" class="st0" points="36.3,63.8 45.5,62 48.9,62.2 40.8,63.9 		"/>
		<polygon id="XMLID_2187_" class="st0" points="75.7,59.6 72,59.4 77,58.4 81.5,58.4 81.5,62.6 75.7,64 		"/>
		<polygon id="XMLID_2186_" class="st0" points="69.3,59.5 63,60.8 58.7,60.6 65.4,59.3 		"/>
		<polygon id="XMLID_2185_" class="st0" points="63.6,59.2 56.9,60.6 53.8,60.4 61.2,59 		"/>
		<polygon id="XMLID_2184_" class="st0" points="38.8,64.3 31.4,65.8 31.4,71.3 25.7,71.2 25.7,65.8 33.6,64.3 		"/>
		<polygon id="XMLID_2183_" class="st0" points="70.4,59.3 66.4,59.1 70,58.4 70,58.4 74.9,58.4 		"/>
		<polygon id="XMLID_2182_" class="st0" points="61.1,62.6 57,62.4 63.4,61.1 67.6,61.3 67.6,65.9 61.1,67.5 		"/>
		<polygon id="XMLID_2181_" class="st0" points="51.4,62.1 57.4,60.9 61.8,61 55.6,62.3 		"/>
		<polygon id="XMLID_2180_" class="st0" points="70.8,59.6 74.5,59.8 74.5,64.3 68.8,65.6 68.8,61 64.6,60.8 		"/>
		<polygon id="XMLID_2179_" class="st0" points="39.3,72 45,72 52,70.4 52,75.4 45,77.2 39.3,77.2 		"/>
		<polygon id="XMLID_2178_" class="st0" points="45.4,64.3 38.1,65.8 38.1,71.3 32.6,71.3 32.6,65.8 40.2,64.3 		"/>
		<polygon id="XMLID_2177_" class="st0" points="64.6,59 62.2,58.8 64.8,58.3 67.6,58.4 		"/>
		<polygon id="XMLID_2176_" class="st0" points="38.1,77.2 32.6,77.2 32.6,72 38.1,72 		"/>
		<polygon id="XMLID_2175_" class="st0" points="75.7,64.8 81.5,63.4 81.5,67.7 75.7,69.2 		"/>
		<polygon id="XMLID_2174_" class="st0" points="31.4,72 31.4,77.2 25.7,77.2 25.7,72 		"/>
		<polygon id="XMLID_2173_" class="st0" points="39.3,71.3 39.3,65.8 46.7,64.4 52,64.4 52,69.6 45,71.3 		"/>
		<polygon id="XMLID_2172_" class="st0" points="68.8,66.4 74.5,65 74.5,69.5 68.8,71 		"/>
		<polygon id="XMLID_2171_" class="st0" points="61.1,68.2 67.6,66.7 67.6,71.3 61.1,73 		"/>
		<polygon id="XMLID_2170_" class="st0" points="53.2,70.1 59.9,68.5 59.9,73.3 53.2,75.1 		"/>
		<polygon id="XMLID_2169_" class="st0" points="55.8,62.6 59.9,62.8 59.9,67.8 53.2,69.4 53.2,64.2 48.3,64.1 		"/>
		<path id="XMLID_2163_" class="st0" d="M24.7,77.2v-2.1l-11.2,4.2c0.4,0.3,6.7,5.3,9.2,7.4c2.5,2.1,2.7,3.4,1.3,6.8
			c-0.2,0.4-0.4,0.8-0.7,1.3c0.4,0,0.6,0.1,0.9,0c2.7-0.2,5.5-0.4,8.2-0.7c2.1-0.2,4.2-0.6,6.3-1.1c3.1-0.7,6.1-1.4,9.1-2.3
			c4.4-1.2,8.9-2.5,13.2-3.9c5.2-1.6,10.4-3.3,15.5-5.1c4.7-1.6,9.4-3.5,14.1-5.2c2.6-0.9,4.6-2.5,6.7-4.3c3.3-2.8,4.1-7.8,4.1-8.1
			c0-0.5-0.1-0.7-0.7-0.6l-3.2,0.2c-0.5,0-0.7-0.2-0.7-0.7c0-0.7,0.1-1.8,0-2.5c0-0.3-0.4-0.6-0.6-0.7c-0.9-0.2-1.8,0-2.8-0.1
			c-0.6-0.1-1-0.3-1.1-0.9c-0.1-0.4-1.4-3,0.5-3.2v-1.6h-2.4c0,0-1.3-3.8-1.8-5.2c-0.2-0.5-0.4-0.8-1-0.7h-2.9c-0.7,0-1,0.5-1,1.3
			c0.1,1.3,0,2.6,0,3.8c0.1,0.8-0.3,1-1,1H69.8c0,0-0.1,2.9,2.3,2.9c0.4,0,0.8,0,1.1,0c0.5,0,0.8,0.1,0.7,0.7c0,0,0,0,0,0h13.2v7.7
			c0,0-5.2,0-5.2,0v1.1l5.3-0.2c1.3-0.4,5.6-1.7,6.9-2l1.4,0.2c-1.2,0.4-44,12.6-46.9,13.4C41.9,80,35,80.4,28,80.4
			c-4.5,0-9.8-0.7-10.2-0.9L24.7,77.2z M89.5,52.8l-4.7,0.3v-1.5l4.2-0.4L89.5,52.8z M90.3,56.3h-19L70.6,55h19.1L90.3,56.3z
			 M36.2,84.5c0,1-1.3,1.8-3,1.8c-1.7,0-3-0.8-3-1.8c0-1,1.3-1.8,3-1.8C34.9,82.7,36.2,83.5,36.2,84.5z M25.3,93.6
			c0.2-1.3,0.3-2.5,0.5-3.6c0-0.2,0.5-0.5,0.7-0.4c4.2,0.2,8.4-0.4,12.5-1.4c3.9-0.9,7.9-1.7,11.8-2.8c5.3-1.4,10.5-3,15.7-4.6
			c5.2-1.6,10.4-3.2,15.6-4.9c1.9-0.6,3.7-1.2,5.6-1.9c2.4-0.9,4.9-1.8,7.3-2.8c1-0.4,2-1,3.1-1.5c0.1,0.1,0.1,0.1,0.2,0.2
			c-0.4,0.4-0.7,0.9-1.1,1.3c-1.3,1.4-2.6,2.8-4.4,3.5c-3,1.2-5.9,2.4-8.9,3.5c-6,2.1-12,4.2-18,6.2c-4.1,1.4-8.3,2.6-12.4,3.9
			c-2.6,0.8-5.3,1.5-7.9,2.1c-2.1,0.5-4.1,1.1-6.2,1.5c-2.2,0.4-4.3,0.9-6.5,1.1c-2,0.2-4,0.3-6.1,0.4
			C26.2,93.6,25.7,93.6,25.3,93.6z"/>
	</g>
</g>
</svg>
