<svg xmlns="http://www.w3.org/2000/svg" viewBox="0 0 82.5 90"><g fill="#FFF"><path d="M29.5 19.5c-2.1-.5-4.1-1.1-6.3-1.6.2-1.1.3-2.3.5-3.4.3-1.8.5-3.5.8-5.3.2-1 1.3-1.9 2.3-2 .4 0 .4.1.4.5-.1 2.9.2 5.8 1.1 8.6.3 1 .8 2 1.2 3 0 .1.1.1.1.2 0-.1-.1-.1-.1 0zM64 33.3c4.4-.1 8.7-.5 13.1-.4 0 .1 0 .2.1.3-.3.1-.5.3-.8.3-3.6.5-7.2 1-10.9 1.5-.3 0-.5 0-.6-.3-.3-.4-.6-.9-.9-1.4zM15.7 21.1h.5l1.2.3c1.5.3 1.5.3 2.4 1.7-1-.2-3.8-1.5-4.1-2z"/><path d="M65.8 40.8c-.2-1.4-.5-2.8-1-4.1-.3.4-1 .9-2 1-1.5.1-5.6-1-4.9-1.9 0 0 4.5.7 6.2-.7-.8-1.5-2-2.7-3.5-3.6-1.1-.6-2.2-1.1-3.4-1.5-4.9-1.7-9.8-3.4-14.7-5l-12.6-4.2c-3.4-1.1-6.8-2.2-10.2-3.2-.9-.3-1.5.2-1.5 1.1 0 .4.1.9.3 1.3 1 2.2 2.7 3.9 4.6 5.4 1.5 1.1 4.6 2.7 6.2 3.7l1.9.5c-.7-.1-13.4-1.6-18.7-2.5-3.2-.5-6.5-1-9.7-1.5-.3-.1-.7 0-1 0 0 .1 0 .1-.1.2.3.2.6.5.9.6 1.6.5 3.2.9 4.7 1.3 4.6 1.1 9.3 2.3 13.9 3.4 4.8 1.1 9.5 2 14.3 3 2.4.5 4.9.9 7.4 1.3 0 .7-.2.8-.8.7-.3 0-.5-.1-.8-.1.2.2.4.4.6.5 1.1.6 2.2 1.2 3.3 1.7l5.7 3c2.6 1.3 5.2 2.2 8.1 2.7 1.6.3 3.2.4 4.8 0 1.5-.7 2.2-1.5 2-3.1zM31.1 26.7c-.3-.1-.4-.4-.2-.7s.4-.4.7-.3c.3.1.4.4.2.7s-.4.4-.7.3zm1.7.8c-.3-.1-.4-.4-.2-.7.1-.3.4-.4.7-.3.3.1.4.4.2.7-.1.2-.4.4-.7.3zm1.7.7c-.3-.1-.4-.4-.2-.7.1-.3.4-.4.7-.3.3.1.4.4.2.7-.2.2-.5.4-.7.3zm1.6.7c-.3-.1-.4-.4-.2-.7.1-.3.4-.4.7-.3.3.1.4.4.2.7-.1.3-.4.4-.7.3zm1.7.7c-.3-.1-.4-.4-.2-.7.1-.3.4-.4.7-.3.3.1.4.4.2.7-.1.3-.5.4-.7.3zm1.6.7c-.3-.1-.4-.4-.2-.7s.4-.4.7-.3c.3.1.4.4.2.7s-.4.4-.7.3zm1.7.7c-.3-.1-.4-.4-.2-.7.1-.3.4-.4.7-.3.3.1.4.4.2.7-.1.3-.4.5-.7.3zm1.7.8c-.3-.1-.4-.4-.2-.7.1-.3.4-.4.7-.3.3.1.4.4.2.7-.2.2-.5.4-.7.3zm1.6.7c-.3-.1-.4-.4-.2-.7.1-.3.4-.4.7-.3.3.1.4.4.2.7-.1.2-.4.4-.7.3zm1.7.7c-.3-.1-.4-.4-.2-.7.1-.3.4-.4.7-.3.3.1.4.4.2.7-.1.3-.5.4-.7.3zm1.6.7c-.3-.1-.4-.4-.2-.7s.4-.4.7-.3c.3.1.4.4.2.7s-.4.4-.7.3z"/><path d="M37.6 35.2c-.1 0-.3-.1-.5-.1.3.7.3 1.5-.1 2.2-.5.9-1.4 1.4-2.2 1.2-.9-.3-1.4-1.2-1.2-2.3.1-.6.5-1.1.8-1.6-2.7-.6-5.6-1.1-8.4-1.7l-.1.1c.2.2.4.3.6.5 1.1.8 2.2 1.6 3.3 2.3 1.3.9 2.5 1.8 3.8 2.7.8.5 1.7.8 2.6.3 1.1-.6 1.7-2 1.5-3.2 0-.2 0-.3-.1-.4zm7.7 19.5l-4.5.9-2.6-.1 4.6-.9zm-10.6 2.5l6.4-1.3 3.2.2-5.8 1.1zm-4.6-.2l7.2-1.3 2.6.1-6.3 1.3zM61 53.8l-2.9-.2 3.9-.8 3.5.1v3.2L61 57.2zm-5.1-.1l-4.9 1-3.4-.1 5.3-1.1zm-4.4-.2l-5.2 1-2.5-.1 5.8-1.1zm-19.4 3.9l-5.9 1.2v4.3h-4.4v-4.3l6.2-1.2zm24.7-3.9l-3.1-.1 2.8-.6h3.8zm-7.3 2.6l-3.2-.2 5-.9 3.3.1v3.6L49.5 60zm-7.6-.4l4.8-.9 3.4.1-4.9 1z"/><path d="M57.2 53.8l2.9.2v3.4l-4.6 1.1v-3.6l-3.2-.1zm-24.8 9.7h4.5l5.5-1.3v3.9l-5.5 1.5h-4.5zm4.8-6l-5.7 1.2v4.2h-4.3v-4.3l6-1.1zm15.1-4.2l-1.9-.1 2-.4h2.2zM31.5 67.6h-4.3v-4.1h4.3zM61 57.8l4.5-1.1v3.4L61 61.3zm-34.8 5.7v4.1h-4.4v-4.1z"/><path d="M32.4 63v-4.3l5.9-1.2 4.1.1v4.1L36.9 63zm23.1-3.9l4.6-1.1v3.5l-4.6 1.2zm-6 1.4l5.1-1.2V63l-5.1 1.3zM43.3 62l5.3-1.2v3.7l-5.3 1.4z"/><path d="M45.4 56.1l3.2.2v3.9l-5.3 1.2v-4l-3.8-.1z"/><path d="M21 67.6v-1.7l-8.8 3.3c.3.3 5.2 4.2 7.2 5.8 2 1.6 2.1 2.7 1 5.3-.1.3-.3.6-.5 1 .3 0 .5.1.7 0 2.1-.2 4.3-.3 6.4-.5 1.6-.2 3.3-.5 4.9-.8 2.4-.5 4.8-1.1 7.2-1.8 3.5-1 6.9-2 10.4-3 4.1-1.3 8.1-2.6 12.1-4 3.7-1.3 7.3-2.7 11-4 2-.7 3.6-1.9 5.3-3.3 2.6-2.2 3.2-6.1 3.2-6.3 0-.4-.1-.5-.5-.5l-2.5.2c-.4 0-.5-.2-.5-.6v-2c0-.2-.3-.5-.5-.5-.7-.1-1.4 0-2.2-.1-.4-.1-.8-.2-.9-.7 0-.3-1.1-2.4.4-2.5v-1.3h-1.9s-1-3-1.4-4.1c-.1-.4-.3-.6-.8-.6H68c-.5 0-.8.4-.8 1 .1 1 0 2 0 3 0 .7-.2.8-.8.8h-10s-.1 2.3 1.8 2.3h.9c.4 0 .6.1.6.5H70v6h-4.1v.9l4.1-.1c1-.3 4.4-1.3 5.4-1.6l1.1.1c-.9.3-34.4 9.9-36.8 10.5C34.4 69.7 29 70 23.5 70c-3.6 0-7.7-.6-8-.7l5.5-1.7zm50.7-19.1l-3.7.3v-1.2l3.3-.3.4 1.2zm.7 2.7H57.5l-.5-1h15l.4 1zM30.1 73.3c0 .8-1.1 1.4-2.4 1.4-1.3 0-2.4-.6-2.4-1.4 0-.8 1.1-1.4 2.4-1.4 1.3-.1 2.4.6 2.4 1.4zm-8.6 7.1c.1-1 .2-1.9.4-2.8 0-.2.4-.4.6-.3 3.3.2 6.6-.3 9.8-1.1 3.1-.7 6.2-1.4 9.2-2.2 4.1-1.1 8.2-2.3 12.3-3.6 4.1-1.2 8.2-2.5 12.3-3.8 1.5-.5 2.9-.9 4.4-1.5 1.9-.7 3.8-1.4 5.7-2.2.8-.3 1.6-.8 2.4-1.2l.1.1c-.3.3-.6.7-.9 1-1 1.1-2 2.2-3.5 2.8-2.3.9-4.6 1.9-7 2.7-4.7 1.7-9.4 3.3-14.1 4.8-3.2 1.1-6.5 2.1-9.8 3-2 .6-4.1 1.1-6.2 1.7-1.6.4-3.2.8-4.9 1.2-1.7.4-3.4.7-5.1.9-1.6.2-3.2.2-4.7.3-.3.2-.7.2-1 .2z"/></g></svg>