<?xml version="1.0" encoding="utf-8"?>
<!-- Generator: Adobe Illustrator 23.1.0, SVG Export Plug-In . SVG Version: 6.00 Build 0)  -->
<svg version="1.1" id="圖層_1" xmlns="http://www.w3.org/2000/svg" xmlns:xlink="http://www.w3.org/1999/xlink" x="0px" y="0px"
	 viewBox="0 0 40 40" style="enable-background:new 0 0 40 40;" xml:space="preserve">
<style type="text/css">
	.st0{fill:none;}
	.st1{fill:#595857;}
</style>
<path class="st0" d="M0,0"/>
<g id="tNC30H_1_">
	<g id="XMLID_410_">
		<path id="XMLID_1486_" class="st1" d="M20.4,32.8c-0.3-0.4-0.7-0.8-1-1.2c-2.2-2.6-4.2-5.4-6-8.3c-1.4-2.3-2.7-4.6-3.5-7.1
			c-0.5-1.6-0.9-3.2-0.9-4.8c0.1-3.7,1.6-6.7,4.5-9c3.4-2.5,7.1-3.1,11-1.6c4.2,1.6,6.6,4.8,7.3,9.2c0.3,2-0.1,4-0.7,5.9
			c-1,3-2.5,5.7-4.2,8.3c-1.9,3-4,5.7-6.3,8.4C20.5,32.7,20.5,32.7,20.4,32.8z M24.5,11.5c0-2.3-1.8-4.1-4.1-4.1
			c-2.3,0-4.1,1.8-4.1,4.1c0,2.2,1.8,4.1,4.1,4.1C22.7,15.6,24.5,13.8,24.5,11.5z"/>
	</g>
</g>
</svg>
