<?xml version="1.0" encoding="utf-8"?>
<!-- Generator: Adobe Illustrator 17.1.0, SVG Export Plug-In . SVG Version: 6.00 Build 0)  -->
<!DOCTYPE svg PUBLIC "-//W3C//DTD SVG 1.1//EN" "http://www.w3.org/Graphics/SVG/1.1/DTD/svg11.dtd">
<svg version="1.1" id="圖層_1" xmlns="http://www.w3.org/2000/svg" xmlns:xlink="http://www.w3.org/1999/xlink" x="0px" y="0px"
	 viewBox="200 0 560 560" enable-background="new 200 0 560 560" xml:space="preserve">
<path fill="none" d="M200,0"/>
<g id="tNC30H_1_">
	<g id="XMLID_410_">
		<path id="XMLID_1486_" fill="#595857" d="M485.6,509.7c-4.2-5.6-9.8-11.2-14-16.8c-30.8-36.4-58.8-75.6-84-116.2
			c-19.6-32.2-37.8-64.4-49-99.4c-7-22.4-12.6-44.8-12.6-67.2c1.4-51.8,22.4-93.8,63-126c47.6-35,99.4-43.4,154-22.4
			c58.8,22.4,92.4,67.2,102.2,128.8c4.2,28-1.4,56-9.8,82.6c-14,42-35,79.8-58.8,116.2c-26.6,42-56,79.8-88.2,117.6
			C487,508.3,487,508.3,485.6,509.7z M543,211.5c0-32.2-25.2-57.4-57.4-57.4s-57.4,25.2-57.4,57.4c0,30.8,25.2,57.4,57.4,57.4
			C517.8,268.9,543,243.7,543,211.5z"/>
	</g>
</g>
</svg>
