<?xml version="1.0" encoding="utf-8"?>
<!-- Generator: Adobe Illustrator 23.1.0, SVG Export Plug-In . SVG Version: 6.00 Build 0)  -->
<svg version="1.1" id="圖層_1" xmlns="http://www.w3.org/2000/svg" xmlns:xlink="http://www.w3.org/1999/xlink" x="0px" y="0px"
	 viewBox="0 0 40 40" style="enable-background:new 0 0 40 40;" xml:space="preserve">
<style type="text/css">
	.st0{fill:#595757;}
</style>
<g id="tNC30H_1_">
	<g id="XMLID_410_">
		<path id="XMLID_1486_" class="st0" d="M20.6,32.5c-0.3-0.3-0.5-0.6-0.8-0.9c-1.7-2.1-3.3-4.2-4.8-6.5c-1.1-1.8-2.1-3.6-2.8-5.6
			c-0.4-1.2-0.7-2.5-0.7-3.8c0.1-2.9,1.2-5.3,3.6-7.1c2.7-2,5.6-2.5,8.7-1.3c3.3,1.3,5.2,3.8,5.7,7.3c0.2,1.6-0.1,3.1-0.6,4.7
			c-0.8,2.3-2,4.5-3.3,6.6c-1.5,2.3-3.2,4.5-5,6.6C20.7,32.4,20.7,32.5,20.6,32.5z M23.9,15.7c0-1.8-1.5-3.2-3.2-3.2
			c-1.8,0-3.2,1.5-3.2,3.3c0,1.8,1.5,3.2,3.2,3.2C22.4,18.9,23.9,17.5,23.9,15.7z"/>
	</g>
</g>
</svg>
