<svg xmlns="http://www.w3.org/2000/svg" viewBox="0 0 40 40"><path d="M19.98 37.29c-.34-.39-.67-.78-1-1.17-2.19-2.61-4.22-5.35-6.01-8.25-1.4-2.27-2.65-4.61-3.52-7.13-.53-1.56-.94-3.16-.9-4.82.07-3.7 1.55-6.75 4.5-8.98 3.36-2.55 7.13-3.11 11.04-1.59 4.17 1.62 6.58 4.77 7.26 9.2.31 2.02-.07 3.97-.7 5.88-.98 2.97-2.49 5.67-4.17 8.3-1.89 2.95-4.02 5.73-6.32 8.38-.06.07-.11.12-.18.18zm4.1-21.25a4.09 4.09 0 00-4.1-4.09c-2.26 0-4.08 1.84-4.07 4.11A4.09 4.09 0 0020 20.13c2.24-.01 4.08-1.85 4.08-4.09z" fill="#595757"/></svg>