<svg version="1.1" id="圖層_1" xmlns="http://www.w3.org/2000/svg" x="0" y="0" viewBox="0 0 40 40" xml:space="preserve"><style>.st0{fill:#595757}</style><g id="upAk6x_4_"><g id="XMLID_946_"><path id="XMLID_1078_" class="st0" d="M27.57 37.41c-.66.03-1.27.12-1.87.08-2.64-.16-4.83-1.38-6.83-3.01-2.45-2-4.29-4.48-5.75-7.25-.97-1.84-1.95-3.67-2.86-5.53-.92-1.88-1.55-3.87-1.9-5.94-.23-1.32-.34-2.64-.27-3.98.13-2.23.67-4.32 2.17-6.06.12-.14.26-.27.41-.42.05.09.1.16.14.23 1.51 2.86 3.01 5.71 4.52 8.57.09.17.09.29-.02.45-.5.68-.6 1.46-.53 2.28.06.68.31 1.3.63 1.89 1.25 2.37 2.5 4.74 3.74 7.11.46.88 1.07 1.6 1.97 2.05.45.22.92.33 1.42.34a.4.4 0 01.31.19c1.55 2.92 3.09 5.85 4.63 8.78.03.04.04.07.09.22z"/><path id="XMLID_1020_" class="st0" d="M24.62 26.69c.89-.43 1.73-.89 2.61-1.24.6-.24 1.27.07 1.6.63.35.6.67 1.23.99 1.85.79 1.51 1.59 3.01 2.38 4.52.49.94.24 1.79-.7 2.29-.68.36-1.36.71-2.07 1.09-1.6-3.03-3.19-6.05-4.81-9.14z"/><path id="XMLID_947_" class="st0" d="M17.33 12.86c-1.58-3.01-3.16-6-4.74-9.01.08-.05.14-.1.21-.13.62-.33 1.23-.66 1.85-.98.95-.49 1.78-.23 2.28.72 1.06 2 2.11 4 3.16 6.01.51.97.26 1.79-.7 2.31-.68.35-1.36.71-2.06 1.08z"/></g></g></svg>