<?xml version="1.0" encoding="utf-8"?>
<!-- Generator: Adobe Illustrator 17.1.0, SVG Export Plug-In . SVG Version: 6.00 Build 0)  -->
<!DOCTYPE svg PUBLIC "-//W3C//DTD SVG 1.1//EN" "http://www.w3.org/Graphics/SVG/1.1/DTD/svg11.dtd">
<svg version="1.1" id="圖層_1" xmlns="http://www.w3.org/2000/svg" xmlns:xlink="http://www.w3.org/1999/xlink" x="0px" y="0px"
	 viewBox="200 0 560 560" enable-background="new 200 0 560 560" xml:space="preserve">
<g id="upAk6x_4_">
	<g id="XMLID_946_">
		<path id="XMLID_1078_" fill="#595757" d="M593.4,510.1c-8.4,0-16.8,1.4-25.2,1.4c-35-2.8-64.4-18.2-91-40.6
			c-32.2-26.6-57.4-58.8-75.6-96.6c-12.6-23.8-25.2-49-37.8-72.8c-12.6-25.2-21-51.8-25.2-78.4c-2.8-16.8-4.2-35-2.8-51.8
			c1.4-29.4,8.4-57.4,29.4-79.8c1.4-1.4,2.8-4.2,5.6-5.6c1.4,1.4,1.4,2.8,1.4,2.8c19.6,37.8,39.2,75.6,60.2,113.4
			c1.4,2.8,1.4,4.2,0,5.6c-8.4,8.4-9.8,19.6-8.4,29.4c1.4,8.4,4.2,16.8,8.4,25.2c16.8,30.8,33.6,63,49,93.8
			c5.6,11.2,14,21,26.6,26.6c5.6,2.8,12.6,4.2,18.2,4.2c1.4,0,2.8,1.4,4.2,2.8c21,39.2,40.6,77,61.6,116.2
			C592,507.3,593.4,508.7,593.4,510.1z"/>
		<path id="XMLID_1020_" fill="#595757" d="M554.2,368.7c11.2-5.6,22.4-11.2,35-16.8c8.4-2.8,16.8,1.4,21,8.4
			c4.2,8.4,8.4,16.8,12.6,23.8c11.2,19.6,21,39.2,30.8,60.2c7,12.6,2.8,23.8-9.8,30.8c-8.4,4.2-18.2,9.8-28,14
			C597.6,448.5,575.2,409.3,554.2,368.7z"/>
		<path id="XMLID_947_" fill="#595757" d="M457.6,185.3c-21-39.2-42-79.8-63-119c1.4,0,1.4-1.4,2.8-1.4c8.4-4.2,16.8-8.4,25.2-12.6
			c12.6-7,23.8-4.2,29.4,8.4c14,26.6,28,53.2,42,79.8c7,12.6,2.8,23.8-9.8,30.8C475.8,175.5,467.4,179.7,457.6,185.3z"/>
	</g>
</g>
</svg>
