<?xml version="1.0" encoding="utf-8"?>
<!-- Generator: Adobe Illustrator 23.1.0, SVG Export Plug-In . SVG Version: 6.00 Build 0)  -->
<svg version="1.1" id="圖層_1" xmlns="http://www.w3.org/2000/svg" xmlns:xlink="http://www.w3.org/1999/xlink" x="0px" y="0px"
	 viewBox="0 0 40 40" style="enable-background:new 0 0 40 40;" xml:space="preserve">
<style type="text/css">
	.st0{fill:#595757;}
</style>
<g id="upAk6x_4_">
	<g id="XMLID_946_">
		<path id="XMLID_1078_" class="st0" d="M26.2,34c-0.6,0-1.1,0.1-1.6,0.1c-2.2-0.1-4.1-1.2-5.8-2.5c-2.1-1.7-3.6-3.8-4.9-6.1
			c-0.8-1.6-1.7-3.1-2.4-4.7c-0.8-1.6-1.3-3.3-1.6-5c-0.2-1.1-0.3-2.2-0.2-3.4c0.1-1.9,0.6-3.7,1.8-5.1c0.1-0.1,0.2-0.2,0.3-0.4
			C11.9,7,12,7,12,7.1c1.3,2.4,2.5,4.8,3.8,7.2c0.1,0.1,0.1,0.2,0,0.4c-0.4,0.6-0.5,1.2-0.4,1.9c0,0.6,0.3,1.1,0.5,1.6
			c1.1,2,2.1,4,3.2,6c0.4,0.7,0.9,1.4,1.7,1.7c0.4,0.2,0.8,0.3,1.2,0.3c0.1,0,0.2,0.1,0.3,0.2c1.3,2.5,2.6,4.9,3.9,7.4
			C26.1,33.9,26.1,33.9,26.2,34z"/>
		<path id="XMLID_1020_" class="st0" d="M23.7,25c0.7-0.4,1.5-0.7,2.2-1c0.5-0.2,1.1,0.1,1.4,0.5c0.3,0.5,0.6,1,0.8,1.6
			c0.7,1.3,1.3,2.5,2,3.8c0.4,0.8,0.2,1.5-0.6,1.9c-0.6,0.3-1.1,0.6-1.7,0.9C26.4,30.1,25.1,27.6,23.7,25z"/>
		<path id="XMLID_947_" class="st0" d="M17.5,13.3c-1.3-2.5-2.7-5.1-4-7.6c0.1,0,0.1-0.1,0.2-0.1c0.5-0.3,1-0.6,1.6-0.8
			c0.8-0.4,1.5-0.2,1.9,0.6c0.9,1.7,1.8,3.4,2.7,5.1c0.4,0.8,0.2,1.5-0.6,2C18.7,12.7,18.1,13,17.5,13.3z"/>
	</g>
</g>
</svg>
