<svg xmlns="http://www.w3.org/2000/svg" xmlns:xlink="http://www.w3.org/1999/xlink" viewBox="0 0 960 560"><g opacity=".51"><defs><path id="a" d="M378.5 272H437v34.6h-58.5z"/></defs><clipPath id="b"><use xlink:href="#a" overflow="visible"/></clipPath><g clip-path="url(#b)"><defs><path id="c" d="M378.5 272H437v34.6h-58.5z"/></defs><clipPath id="d"><use xlink:href="#c" overflow="visible"/></clipPath><g clip-path="url(#d)"><image overflow="visible" width="262" height="155" xlink:href="ED863E382CD561F.png" transform="translate(378.517 271.958) scale(.2233)"/></g></g></g><path fill="#5F5F5F" d="M434 290.2l-27.2 1.4V272l-28.2 31.5 51.4-.4z"/><g opacity=".51"><defs><path id="e" d="M383.5 256.9H442v34.6h-58.5z"/></defs><clipPath id="f"><use xlink:href="#e" overflow="visible"/></clipPath><g clip-path="url(#f)"><defs><path id="g" d="M383.5 256.9H442v34.6h-58.5z"/></defs><clipPath id="h"><use xlink:href="#g" overflow="visible"/></clipPath><g clip-path="url(#h)"><image overflow="visible" width="262" height="155" xlink:href="ED863E382CD561D.png" transform="translate(383.505 256.942) scale(.2233)"/></g></g></g><path fill="#E50012" d="M383.6 270.4l27.2-1.4v19.5L439 257l-51.4.5zm90.2 1.4c0 2.3-.4 4.3-1.3 5.9-.9 1.6-2 2.9-3.4 3.9-1.4.9-2.9 1.6-4.6 2-1.6.4-3.3.6-4.9.6-2.3 0-4.5-.4-6.6-1.2-2.2-.8-4-2.1-5.4-4-1.4-1.9-2.2-4.3-2.2-7.3v-14.9h8.1v12.8c0 1.8.3 3.2.8 4.4.5 1.2 1.2 2 2.1 2.5.9.5 2 .8 3.2.8 1.2 0 2.2-.3 3.2-.8.9-.5 1.6-1.4 2.2-2.5.5-1.2.8-2.6.8-4.4v-12.8h8.1v15zm6.5-14.9h8.1v26.9h-8.1zm40.7 6.6h-9.9v20.4H503v-20.4h-9.9v-6.6H521zm33.9 6.9c0 2.5-.6 4.8-1.7 6.9-1.2 2.1-2.9 3.8-5.2 5-2.3 1.2-5.1 1.9-8.4 1.9-3.3 0-6.1-.6-8.4-1.9-2.3-1.3-4-3-5.1-5.1-1.1-2.1-1.7-4.4-1.7-6.8 0-2.4.6-4.7 1.7-6.8 1.1-2.1 2.8-3.8 5.1-5.1 2.3-1.3 5.1-1.9 8.4-1.9 2.5 0 4.7.4 6.6 1.1 1.9.7 3.5 1.7 4.8 3 1.3 1.3 2.2 2.7 2.9 4.4.7 1.7 1 3.4 1 5.3m-8.2 0c0-1-.1-1.9-.4-2.8-.3-.8-.7-1.6-1.4-2.2-.6-.6-1.3-1.1-2.2-1.4-.9-.3-1.9-.5-3-.5-2.2 0-3.9.6-5.1 1.9-1.2 1.3-1.9 2.9-1.9 5s.6 3.7 1.9 5c1.3 1.3 3 1.9 5.1 1.9 1.5 0 2.8-.3 3.8-.9 1-.6 1.9-1.4 2.4-2.4.5-1.1.8-2.3.8-3.6m36.6-5c0 1-.2 2-.5 2.9-.3 1-.9 1.8-1.7 2.7-.8.8-1.8 1.5-3.1 2s-2.8.8-4.6.8h-5.3v10.1H560V257h13.4c1.8 0 3.3.3 4.6.8 1.3.5 2.3 1.2 3.1 2 .8.8 1.3 1.7 1.7 2.7.3.9.5 1.9.5 2.9m-8.3 0c0-1.3-.4-2.2-1.1-2.6-.8-.5-2.1-.7-4.1-.7h-1.7v6.5h1.8c1.4 0 2.4-.1 3.1-.3.7-.2 1.3-.5 1.6-.9.3-.4.4-1.1.4-2"/><path fill="#5F5F5F" d="M448.9 304.2v-9.7h-3.6v-1.4h8.8v1.4h-3.7v9.7zm6.7 0v-11.1h4.9c1 0 1.7.1 2.3.3.5.2.9.5 1.2 1.1.3.5.5 1.1.5 1.7 0 .8-.3 1.4-.8 2-.5.5-1.3.9-2.4 1 .4.2.7.4.9.6.4.4.8.9 1.2 1.5l1.9 3h-1.8L462 302c-.4-.7-.8-1.2-1.1-1.5-.3-.4-.5-.6-.7-.7-.2-.1-.4-.2-.7-.3-.2 0-.4-.1-.8-.1H457v4.9h-1.4zm1.5-6.2h3.2c.7 0 1.2-.1 1.6-.2.4-.1.7-.4.9-.7.2-.3.3-.6.3-1 0-.5-.2-1-.6-1.3-.4-.3-1-.5-1.8-.5h-3.5v3.7zm8.5 6.2l4.3-11.1h1.6l4.5 11.1h-1.7l-1.3-3.4h-4.7l-1.2 3.4h-1.5zm3.1-4.5h3.8l-1.2-3.1c-.4-.9-.6-1.7-.8-2.3-.1.7-.3 1.4-.6 2.1l-1.2 3.3zm8.4 4.5v-11.1h3.8c.9 0 1.5.1 2 .2.6.1 1.2.4 1.6.8.6.5 1 1.1 1.3 1.9.3.8.4 1.6.4 2.6 0 .8-.1 1.6-.3 2.2-.2.7-.5 1.2-.8 1.6-.3.4-.6.8-1 1-.4.2-.8.4-1.3.6-.5.1-1.1.2-1.8.2h-3.9zm1.5-1.3h2.4c.7 0 1.3-.1 1.7-.2.4-.1.7-.3 1-.6.3-.3.6-.8.8-1.4.2-.6.3-1.3.3-2.1 0-1.2-.2-2.1-.6-2.7-.4-.6-.8-1-1.4-1.3-.4-.1-1-.2-1.9-.2h-2.3v8.5zm10-9.8h1.5v11.1h-1.5zm4 11.1v-11.1h1.5l5.8 8.7v-8.7h1.4v11.1h-1.5l-5.8-8.7v8.7zm16.4-4.3v-1.3h4.7v4.1c-.7.6-1.5 1-2.2 1.3-.8.3-1.6.4-2.4.4-1.1 0-2.1-.2-3-.7-.9-.5-1.6-1.1-2-2-.5-.9-.7-1.9-.7-3s.2-2.1.7-3c.5-.9 1.1-1.6 2-2.1.8-.5 1.8-.7 2.9-.7.8 0 1.5.1 2.2.4.6.3 1.2.6 1.5 1.1.4.5.6 1.1.8 1.8l-1.3.4c-.2-.6-.4-1-.6-1.3-.3-.3-.6-.6-1.1-.8-.5-.2-1-.3-1.5-.3-.7 0-1.2.1-1.7.3-.5.2-.9.5-1.2.8-.3.3-.5.7-.7 1.1-.3.7-.4 1.4-.4 2.2 0 1 .2 1.8.5 2.5s.8 1.2 1.5 1.5c.7.3 1.3.5 2.1.5.6 0 1.3-.1 1.9-.4.6-.2 1.1-.5 1.4-.8v-2.1H509zm19.1.4l1.5.4c-.3 1.2-.9 2.1-1.7 2.8-.8.6-1.8.9-2.9.9-1.2 0-2.2-.2-2.9-.7-.7-.5-1.3-1.2-1.7-2.1-.4-.9-.6-1.9-.6-3 0-1.2.2-2.2.7-3 .4-.9 1.1-1.5 1.9-2 .8-.4 1.7-.7 2.7-.7 1.1 0 2 .3 2.8.8.8.6 1.3 1.4 1.6 2.4l-1.5.3c-.3-.8-.6-1.4-1.1-1.8-.5-.4-1.1-.6-1.8-.6-.9 0-1.6.2-2.1.6-.6.4-1 1-1.2 1.6-.2.7-.3 1.4-.3 2.1 0 .9.1 1.8.4 2.5.3.7.7 1.2 1.3 1.6.6.4 1.2.5 1.9.5.8 0 1.5-.2 2.1-.7.3-.2.7-.9.9-1.9m2.8-1.5c0-1.8.5-3.3 1.5-4.3s2.3-1.6 3.8-1.6c1 0 1.9.2 2.8.7.8.5 1.5 1.2 1.9 2 .4.9.6 1.9.6 3s-.2 2.1-.7 3c-.5.9-1.1 1.6-1.9 2-.8.5-1.7.7-2.7.7-1 0-2-.3-2.8-.8-.8-.5-1.4-1.2-1.9-2.1-.4-.7-.6-1.6-.6-2.6m1.5 0c0 1.3.4 2.4 1.1 3.2.7.8 1.6 1.1 2.7 1.1s2-.4 2.7-1.2c.7-.8 1.1-1.9 1.1-3.3 0-.9-.2-1.7-.5-2.4s-.8-1.2-1.3-1.6c-.6-.4-1.2-.6-2-.6-1 0-1.9.4-2.7 1.1-.7.9-1.1 2.1-1.1 3.7m11.2 3.9h1.6v1.6h-1.6zm4.3 1.5v-1.6h1.6v1.6c0 .6-.1 1-.3 1.4-.2.3-.5.6-1 .8l-.4-.6c.3-.1.5-.3.6-.6.1-.2.2-.6.2-1.1h-.7zm8.4 0v-11.1h1.4v9.8h5.5v1.3zm11.5 0v-9.7h-3.7v-1.4h8.8v1.4h-3.6v9.7zm6.6 0v-11.1h3.8c.9 0 1.5.1 2 .2.6.1 1.2.4 1.6.8.6.5 1 1.1 1.3 1.9.3.8.4 1.6.4 2.6 0 .8-.1 1.6-.3 2.2-.2.7-.5 1.2-.8 1.6-.3.4-.6.8-1 1-.4.2-.8.4-1.3.6-.5.1-1.1.2-1.8.2h-3.9zm1.5-1.3h2.4c.7 0 1.3-.1 1.7-.2.4-.1.7-.3 1-.6.3-.3.6-.8.8-1.4.2-.6.3-1.3.3-2.1 0-1.2-.2-2.1-.6-2.7-.4-.6-.8-1-1.4-1.3-.4-.1-1-.2-1.9-.2h-2.3v8.5z"/></svg>